<?xml version="1.0" encoding="utf-8"?>
<!-- Generator: Adobe Illustrator 27.5.0, SVG Export Plug-In . SVG Version: 6.00 Build 0)  -->
<svg version="1.1" xmlns="http://www.w3.org/2000/svg" xmlns:xlink="http://www.w3.org/1999/xlink" x="0px" y="0px"
	 viewBox="0 0 3710 3710" style="enable-background:new 0 0 3710 3710;" xml:space="preserve">
<g id="Background">
	<g>
		<g>
			<rect style="fill:#FFFFFF;" width="3710" height="3710"/>
		</g>
	</g>
</g>
<g id="Illustration">
	<g>
		<path style="fill:#F4F7FA;" d="M3004.408,1047.777C2404.635,323.311,984.69,282.819,567.171,857.431
			c-230.051,316.608-133.918,789.882-86.486,1023.396c87.287,429.729,302.528,706.377,349.527,765.059
			c114.043,142.391,391.051,488.26,807.834,567.322c712.138,135.089,1600.724-552.711,1649.955-1328.704
			C3316.383,1437.126,3056.262,1110.411,3004.408,1047.777z"/>
		<g>
			<g>
				<path style="fill:#FFFFFF;" d="M1779.356,1664.749c54.019,27.426,121.884,2.243,151.58-56.248
					c29.698-58.49,9.981-128.141-44.037-155.567c-2.799-1.421-5.656-2.615-8.521-3.758c10.037-32.364,17.604-64.983,22.678-97.614
					c3.096-0.009,6.204-0.06,9.361-0.342c61.63-5.494,110.544-62.126,109.253-126.495c-1.289-64.37-52.297-112.097-113.927-106.604
					c-3.222,0.289-6.385,0.797-9.531,1.357c-6.438-31.899-15.259-63.059-26.386-93.217c2.834-1.659,5.656-3.373,8.411-5.304
					c52.726-36.94,69.584-109.852,37.653-162.848c-31.933-52.997-100.564-66.013-153.292-29.073
					c-2.701,1.895-5.244,3.938-7.755,6.014c-20.827-23.023-43.667-44.358-68.38-63.83c1.737-2.848,3.438-5.735,4.976-8.764
					c29.698-58.492,68.504-122.384,14.062-148.961c-125.939-61.481-179.983-8.85-209.68,49.64c-1.538,3.029-2.864,6.106-4.138,9.189
					c-30.304-8.46-61.006-14.31-91.884-17.539c0.193-3.251,0.344-6.509,0.278-9.809c-1.291-64.366,17.808-99.199-44.054-100.402
					c-134.902-2.622-180.419,55.929-179.128,120.296c0.067,3.364,0.349,6.653,0.683,9.92c-30.914,8.812-61.277,20.079-90.828,33.706
					c-1.405-2.871-2.861-5.725-4.53-8.496c-31.931-52.997-100.564-66.013-153.292-29.069
					c-52.728,36.943-69.585,109.85-37.652,162.847c1.634,2.716,3.427,5.255,5.247,7.76c-23.35,23.353-45.218,48.709-65.426,75.911
					c-2.612-1.638-5.263-3.241-8.061-4.662c-54.019-27.426-121.884-2.244-151.582,56.248c-29.696,58.49-9.98,128.141,44.039,155.567
					c2.798,1.421,5.654,2.615,8.52,3.758c-10.036,32.364-17.604,64.983-22.676,97.614c-3.098,0.009-6.204,0.06-9.36,0.339
					c-61.63,5.497-110.544,62.129-109.255,126.498c1.291,64.37,52.3,112.094,113.929,106.6c3.221-0.287,6.385-0.793,9.531-1.354
					c6.437,31.901,15.258,63.06,26.385,93.218c-2.834,1.659-5.654,3.373-8.411,5.304c-52.727,36.94-69.585,109.85-37.652,162.849
					c31.933,52.997,137.652,77.619,190.378,40.679c2.703-1.895-31.842-15.544-29.331-17.62
					c20.826,23.023,43.667,44.358,68.38,63.831c-1.737,2.848-3.438,5.735-4.976,8.764c-29.698,58.49-9.982,128.141,44.037,155.568
					c54.018,27.426,121.884,2.243,151.581-56.248c1.538-3.031,2.864-6.108,4.139-9.191c30.303,8.461,61.006,14.312,91.882,17.539
					c-0.193,3.253-0.342,6.511-0.278,9.811c1.292,64.366,52.3,112.094,113.929,106.6c61.63-5.494,110.546-62.129,109.254-126.495
					c-0.067-3.364-0.348-6.653-0.681-9.92c30.914-8.812,61.275-20.079,90.828-33.706c1.404,2.871,2.863,5.725,4.531,8.493
					c31.932,52.997,100.562,66.016,153.292,29.072c52.728-36.943,69.584-109.85,37.653-162.851
					c-1.636-2.712-3.428-5.251-5.248-7.755c23.349-23.353,45.218-48.709,65.424-75.911
					C1773.908,1661.726,1776.557,1663.328,1779.356,1664.749z M1105.963,1673.292c-196.129-99.579-267.715-352.46-159.891-564.829
					c107.823-212.369,354.226-303.801,550.354-204.222c196.13,99.581,267.716,352.462,159.891,564.83
					C1548.494,1681.441,1302.093,1772.873,1105.963,1673.292z"/>
				<path style="fill:#FFFFFF;" d="M1910.417,1351.22c61.63-5.495,110.544-62.128,109.255-126.496
					c-1.291-64.369-52.298-112.097-113.929-106.602c-3.222,0.286-6.385,0.797-9.531,1.355
					c-6.436-31.901-15.259-63.059-26.386-93.217c2.834-1.658,5.656-3.374,8.411-5.305c52.726-36.94,117.96-126.198,80.76-175.639
					c-70.605-93.837-143.673-53.219-196.4-16.281c-2.701,1.895-5.244,3.937-7.755,6.011c-20.827-23.021-43.667-44.356-68.381-63.829
					c1.738-2.848,3.44-5.734,4.978-8.762c16.162-31.833,17.589-66.93,6.915-96.768c-50.928,89.637-101.171,179.649-150.515,270.153
					c156.467,114.655,206.28,340.602,108.479,533.232c-82.877,163.236-247.623,254.894-408.484,243.41
					c-7.176,18.608-14.221,37.32-21.906,55.75c-20.852,50.013-44.54,98.999-68.259,147.918c14.917,2.813,29.898,5.027,44.925,6.599
					c-0.194,3.254-0.344,6.513-0.278,9.811c1.291,64.369,40.371,119.057,152.066,113.132c61.788-3.277,72.407-68.658,71.115-133.026
					c-0.067-3.362-0.348-6.653-0.681-9.919c30.914-8.814,61.275-20.08,90.827-33.706c1.405,2.871,2.864,5.725,4.532,8.493
					c31.932,52.998,142.711,75.515,195.439,38.573c52.729-36.943,27.438-119.35-4.494-172.35c-1.636-2.714-3.428-5.254-5.248-7.76
					c23.35-23.35,45.218-48.709,65.424-75.908c2.614,1.64,5.263,3.242,8.062,4.66c54.017,27.429,121.884,2.243,151.582-56.248
					c29.696-58.489,9.98-128.142-44.039-155.567c-2.799-1.421-5.656-2.615-8.521-3.757c10.037-32.364,17.604-64.984,22.678-97.613
					C1904.152,1351.553,1907.26,1351.501,1910.417,1351.22z"/>
				<path style="fill:#D8DEE8;" d="M1837.456,1671.355c54.017,27.427,121.882,2.244,151.58-56.246
					c29.698-58.492,9.98-128.142-44.038-155.568c-2.798-1.421-5.654-2.615-8.52-3.757c10.037-32.365,17.604-64.984,22.678-97.616
					c3.096-0.009,6.204-0.06,9.36-0.342c61.631-5.494,110.544-62.125,109.254-126.495c-1.29-64.369-52.297-112.097-113.927-106.603
					c-3.222,0.289-6.385,0.797-9.532,1.356c-6.438-31.899-15.259-63.06-26.386-93.218c2.835-1.658,5.656-3.372,8.411-5.304
					c52.726-36.94,69.585-109.85,37.652-162.847c-31.931-52.998-100.564-66.013-153.29-29.073c-2.701,1.895-5.243,3.938-7.755,6.013
					c-20.827-23.023-43.667-44.357-68.381-63.829c1.737-2.849,3.44-5.735,4.978-8.765c29.698-58.491,9.98-128.141-44.039-155.567
					c-54.019-27.426-121.882-2.244-151.58,56.247c-1.538,3.03-2.864,6.107-4.14,9.191c-30.303-8.461-61.006-14.311-91.882-17.539
					c0.193-3.253,0.343-6.511,0.278-9.809c-1.291-64.367-52.298-112.095-113.929-106.602
					c-61.629,5.494-110.544,62.129-109.253,126.495c0.067,3.365,0.348,6.653,0.682,9.92c-30.915,8.813-61.276,20.08-90.828,33.706
					c-1.405-2.87-2.862-5.723-4.53-8.496c-31.933-52.997-100.564-66.012-153.292-29.069
					c-52.729,36.942-69.584,109.85-37.653,162.848c1.636,2.715,3.428,5.254,5.248,7.76c-23.35,23.352-45.218,48.709-65.426,75.91
					c-2.612-1.639-5.263-3.24-8.061-4.66c-54.018-27.427-121.884-2.244-151.582,56.247c-29.696,58.492-9.98,128.141,44.038,155.568
					c2.798,1.421,5.654,2.615,8.52,3.757c-10.036,32.365-17.604,64.984-22.678,97.614c-3.096,0.009-6.203,0.061-9.359,0.341
					c-61.632,5.497-110.544,62.127-109.255,126.497c1.291,64.369,52.3,112.094,113.929,106.601c3.221-0.287,6.385-0.794,9.531-1.354
					c6.437,31.899,15.258,63.059,26.385,93.219c-2.835,1.658-5.656,3.372-8.412,5.304c-52.726,36.94-69.584,109.85-37.652,162.847
					c31.933,52.998,100.564,66.013,153.291,29.073c2.703-1.894,5.244-3.938,7.757-6.012c20.826,23.021,43.667,44.357,68.38,63.829
					c-1.737,2.849-3.439,5.735-4.978,8.765c-29.696,58.49-9.98,128.141,44.039,155.567c54.018,27.426,121.884,2.244,151.58-56.248
					c1.539-3.029,2.865-6.106,4.14-9.189c30.303,8.461,61.006,14.312,91.882,17.539c-0.193,3.253-0.342,6.511-0.278,9.809
					c1.292,64.367,52.299,112.094,113.929,106.6c61.63-5.492,110.546-62.127,109.253-126.493c-0.067-3.365-0.348-6.653-0.681-9.922
					c30.914-8.812,61.275-20.079,90.827-33.704c1.405,2.869,2.862,5.723,4.532,8.492c31.933,52.998,100.563,66.016,153.291,29.073
					c52.729-36.943,69.586-109.851,37.655-162.851c-1.637-2.712-3.428-5.251-5.25-7.756c23.35-23.352,45.218-48.709,65.426-75.91
					C1832.008,1668.334,1834.657,1669.934,1837.456,1671.355z M1164.063,1679.9c-196.129-99.579-267.715-352.46-159.891-564.829
					c107.824-212.369,354.226-303.801,550.355-204.222c196.129,99.579,267.716,352.46,159.891,564.829
					C1606.594,1688.047,1360.193,1779.479,1164.063,1679.9z"/>
			</g>
			<g>
				<path style="fill:#FFFFFF;" d="M2549.141,2362.684c-105.629-53.631-144.182-189.824-86.113-304.198
					c58.071-114.375,190.775-163.616,296.403-109.987c105.63,53.629,144.183,189.823,86.113,304.198
					C2787.472,2367.071,2654.769,2416.313,2549.141,2362.684z"/>
				<path style="fill:#D8DEE8;" d="M2943.097,2361.641c29.093,14.77,65.643,1.208,81.637-30.293
					c15.993-31.501,5.375-69.013-23.717-83.783c-1.508-0.766-3.045-1.408-4.589-2.024c5.405-17.431,9.48-34.997,12.214-52.571
					c1.668-0.004,3.34-0.033,5.041-0.185c33.191-2.958,59.534-33.459,58.84-68.125c-0.694-34.667-28.165-60.372-61.357-57.413
					c-1.736,0.156-3.44,0.429-5.135,0.73c-3.467-17.18-8.217-33.962-14.21-50.204c1.526-0.893,3.046-1.816,4.53-2.857
					c28.396-19.893,37.475-59.162,20.279-87.704c-17.198-28.542-54.161-35.553-82.557-15.658c-1.456,1.021-2.824,2.12-4.177,3.238
					c-11.216-12.399-23.517-23.889-36.827-34.376c0.935-1.534,1.852-3.088,2.68-4.721c15.995-31.501,5.375-69.013-23.718-83.783
					c-29.091-14.771-65.641-1.208-81.636,30.293c-0.828,1.631-1.542,3.288-2.229,4.949c-16.32-4.557-32.856-7.708-49.484-9.446
					c0.104-1.751,0.184-3.507,0.149-5.283c-0.696-34.665-28.167-60.37-61.358-57.412c-33.193,2.959-59.536,33.46-58.841,68.127
					c0.037,1.81,0.188,3.582,0.368,5.342c-16.649,4.746-33.002,10.814-48.917,18.152c-0.756-1.546-1.541-3.082-2.439-4.575
					c-17.198-28.544-54.161-35.553-82.559-15.656c-28.398,19.896-37.476,59.162-20.278,87.704c0.88,1.464,1.845,2.83,2.826,4.179
					c-12.576,12.577-24.353,26.233-35.237,40.883c-1.407-0.883-2.833-1.745-4.341-2.511c-29.092-14.771-65.642-1.208-81.635,30.293
					c-15.995,31.501-5.377,69.013,23.716,83.783c1.508,0.766,3.047,1.408,4.589,2.024c-5.405,17.431-9.48,34.998-12.212,52.572
					c-1.668,0.006-3.343,0.032-5.042,0.184c-33.193,2.959-59.536,33.46-58.841,68.127c0.694,34.667,28.167,60.37,61.358,57.411
					c1.735-0.154,3.439-0.426,5.133-0.729c3.467,17.18,8.217,33.962,14.211,50.204c-1.527,0.893-3.047,1.816-4.531,2.857
					c-28.396,19.893-37.476,59.162-20.277,87.704c17.197,28.542,54.159,35.553,82.557,15.658c1.454-1.021,2.824-2.121,4.176-3.238
					c11.217,12.399,23.519,23.888,36.827,34.375c-0.935,1.535-1.852,3.088-2.68,4.721c-15.993,31.501-5.375,69.012,23.718,83.783
					c29.093,14.77,65.642,1.208,81.636-30.293c0.828-1.631,1.542-3.289,2.229-4.949c16.321,4.557,32.856,7.708,49.485,9.446
					c-0.104,1.753-0.184,3.507-0.148,5.283c0.694,34.665,28.166,60.37,61.358,57.412c33.192-2.959,59.536-33.46,58.84-68.125
					c-0.037-1.812-0.188-3.584-0.368-5.344c16.651-4.746,33.002-10.814,48.918-18.153c0.756,1.546,1.542,3.082,2.44,4.573
					c17.198,28.544,54.159,35.554,82.557,15.658s37.476-59.162,20.279-87.705c-0.882-1.462-1.846-2.829-2.827-4.177
					c12.576-12.577,24.354-26.233,35.237-40.883C2940.163,2360.013,2941.591,2360.875,2943.097,2361.641z M2580.431,2366.241
					c-105.629-53.629-144.183-189.822-86.112-304.197c58.07-114.375,190.774-163.617,296.402-109.987
					c105.629,53.629,144.183,189.822,86.113,304.197C2818.763,2370.629,2686.059,2419.872,2580.431,2366.241z"/>
			</g>
		</g>
		<g>
			<linearGradient id="SVGID_1_" gradientUnits="userSpaceOnUse" x1="1932.7124" y1="2604.0239" x2="3270.5286" y2="2604.0239">
				<stop  offset="0" style="stop-color:#AA80F9"/>
				<stop  offset="0.9964" style="stop-color:#6165D7"/>
			</linearGradient>
			<polygon style="fill:url(#SVGID_1_);" points="1932.712,2541.284 2554.324,2514.257 3270.529,2539.353 2563.976,2693.791 			"/>
			<g>
				
					<linearGradient id="SVGID_00000066489699065003781740000012711062915236379018_" gradientUnits="userSpaceOnUse" x1="2080.8447" y1="3134.418" x2="2189.8989" y2="2886.3726">
					<stop  offset="0" style="stop-color:#FFC444"/>
					<stop  offset="0.9964" style="stop-color:#F36F56"/>
				</linearGradient>
				<path style="fill:url(#SVGID_00000066489699065003781740000012711062915236379018_);" d="M2433.554,3140.289l-503.517-135.516
					c-50.709-13.648-90.107-63.891-90.107-112.615v-0.535c0-48.724,39.398-81.414,90.107-72.469l540.046,88.375L2433.554,3140.289z"
					/>
				<g>
					
						<linearGradient id="SVGID_00000052084381730744691740000009020372110259154306_" gradientUnits="userSpaceOnUse" x1="2364.9636" y1="2992.1389" x2="3271.3914" y2="2992.1389">
						<stop  offset="0" style="stop-color:#FF9085"/>
						<stop  offset="1" style="stop-color:#FB6FBB"/>
					</linearGradient>
					<path style="fill:url(#SVGID_00000052084381730744691740000009020372110259154306_);" d="M3271.391,3038.519l-813.576,90.856
						c-50.957,5.691-92.852-29.844-92.852-79.45v-33.652c0-49.606,41.894-93.154,92.852-97.21l813.576-64.759
						C3235.39,2921.324,3227.084,2984.025,3271.391,3038.519z"/>
					
						<linearGradient id="SVGID_00000090267073385076221150000014336331849891768197_" gradientUnits="userSpaceOnUse" x1="2343.0896" y1="2992.5676" x2="3287.3325" y2="2992.5676">
						<stop  offset="0" style="stop-color:#FFC444"/>
						<stop  offset="0.9964" style="stop-color:#F36F56"/>
					</linearGradient>
					<path style="fill:url(#SVGID_00000090267073385076221150000014336331849891768197_);" d="M3278.472,3047.541l-813.84,92.278
						c-66.465,7.536-121.542-39.017-121.542-103.915v-0.713c0-64.898,55.077-121.992,121.542-127.176l813.84-63.475
						c4.897-0.382,8.86,3.695,8.86,9.106s-3.964,10.12-8.86,10.519l-813.84,66.26c-53.47,4.353-97.619,50.354-97.619,102.478v0.711
						c0,52.124,44.149,89.675,97.619,83.795l813.84-89.494c4.897-0.538,8.86,3.412,8.86,8.823
						C3287.333,3042.15,3283.369,3046.986,3278.472,3047.541z"/>
				</g>
			</g>
			<g>
				
					<linearGradient id="SVGID_00000013889465004546601970000004073587889862928535_" gradientUnits="userSpaceOnUse" x1="2239.1582" y1="2465.5906" x2="2047.9698" y2="3109.595">
					<stop  offset="0" style="stop-color:#AA80F9"/>
					<stop  offset="0.9964" style="stop-color:#6165D7"/>
				</linearGradient>
				<path style="fill:url(#SVGID_00000013889465004546601970000004073587889862928535_);" d="M2454.708,2908.075l-524.67-88.921
					c-50.709-8.945-90.107-75.414-90.107-148.573v-0.804c0-73.159,39.398-131.215,90.107-129.332l556.571,20.674L2454.708,2908.075z
					"/>
				<g>
					
						<linearGradient id="SVGID_00000011746623892120459800000000924297178683760544_" gradientUnits="userSpaceOnUse" x1="2364.9636" y1="2721.2048" x2="3271.3914" y2="2721.2048">
						<stop  offset="0" style="stop-color:#FF9085"/>
						<stop  offset="1" style="stop-color:#FB6FBB"/>
					</linearGradient>
					<path style="fill:url(#SVGID_00000011746623892120459800000000924297178683760544_);" d="M3271.391,2830.341l-767.98,57.925
						c-75.741,5.713-138.448-49.939-138.448-124.422v-50.529c0-74.484,62.707-136.574,138.448-138.639l767.98-20.937
						C3235.274,2654.166,3227.201,2748.205,3271.391,2830.341z"/>
					
						<linearGradient id="SVGID_00000139293236858030349680000015929937923734147999_" gradientUnits="userSpaceOnUse" x1="2343.0896" y1="2724.0005" x2="3287.3325" y2="2724.0005">
						<stop  offset="0" style="stop-color:#AA80F9"/>
						<stop  offset="0.9964" style="stop-color:#6165D7"/>
					</linearGradient>
					<path style="fill:url(#SVGID_00000139293236858030349680000015929937923734147999_);" d="M3278.472,2844.541l-813.84,63.475
						c-66.465,5.184-121.542-69.797-121.542-167.242v-1.071c0-97.445,55.077-178.091,121.542-179.743l813.84-20.227
						c4.897-0.122,8.86,6.366,8.86,14.491s-3.964,14.83-8.86,14.977l-813.84,24.408c-53.47,1.604-97.619,66.6-97.619,144.865v1.067
						c0,78.265,44.149,138.721,97.619,134.825l813.84-59.294c4.897-0.357,8.86,5.941,8.86,14.066
						C3287.333,2837.263,3283.369,2844.159,3278.472,2844.541z"/>
				</g>
			</g>
			<path style="opacity:0.5;fill:#FFFFFF;" d="M2292.009,2834.756l-112.151-19.599c-26.188-71.48-24.219-137.142,0-215.622
				l112.151,7.973C2269.022,2690.092,2272.502,2764.896,2292.009,2834.756z"/>
		</g>
		<g>
			<g>
				<path style="opacity:0.75;fill:#F4F7FA;" d="M2651.952,1599.681c0-385.98-328.613-698.88-733.978-698.88
					c-405.365,0-733.978,312.9-733.978,698.88c0,234.242,121.036,441.559,306.802,568.365
					c78.811,53.796,126.605,142.464,126.605,237.885v53.482c0,116.205,94.203,210.407,210.408,210.407h180.325
					c116.205,0,210.407-94.202,210.407-210.407v-53.482c0-95.421,47.796-184.089,126.605-237.885
					C2530.916,2041.24,2651.952,1833.923,2651.952,1599.681z"/>
				
					<linearGradient id="SVGID_00000115488069880600704560000014463957149436978091_" gradientUnits="userSpaceOnUse" x1="1902.6854" y1="3103.7344" x2="1915.7209" y2="2999.4497">
					<stop  offset="0.0036" style="stop-color:#26264F"/>
					<stop  offset="1" style="stop-color:#444B8C"/>
				</linearGradient>
				
					<ellipse style="fill:url(#SVGID_00000115488069880600704560000014463957149436978091_);" cx="1917.974" cy="2981.425" rx="162.816" ry="86.2"/>
				
					<linearGradient id="SVGID_00000046339993230627612330000009273408466153525657_" gradientUnits="userSpaceOnUse" x1="1849.0734" y1="3008.6877" x2="1979.4294" y2="2774.0469">
					<stop  offset="0.0036" style="stop-color:#26264F"/>
					<stop  offset="1" style="stop-color:#444B8C"/>
				</linearGradient>
				<path style="fill:url(#SVGID_00000046339993230627612330000009273408466153525657_);" d="M1701.651,2827.438v88.029
					c0,29.782,16.949,57.07,43.83,69.891c37.32,17.797,99.369,37.33,189.546,35.019c73.157-1.875,120.861-13.822,151.19-26.373
					c29.299-12.126,48.079-41.099,48.079-72.808v-48.705L1701.651,2827.438z"/>
				
					<linearGradient id="SVGID_00000049180852163713528150000006182719407823971461_" gradientUnits="userSpaceOnUse" x1="1701.651" y1="2897.4919" x2="2134.2971" y2="2897.4919">
					<stop  offset="0.0036" style="stop-color:#26264F"/>
					<stop  offset="1" style="stop-color:#444B8C"/>
				</linearGradient>
				<path style="opacity:0.3;fill:url(#SVGID_00000049180852163713528150000006182719407823971461_);" d="M1701.651,2904.543
					c6.593,6.41,14.231,11.849,22.808,15.938c41.868,19.967,316.112,64.58,382.264,39.724c8.591-3.227,16.32-7.546,23.089-12.755
					c2.895-8.313,4.486-17.161,4.486-26.256v-48.705l-432.646-45.051V2904.543z"/>
				
					<linearGradient id="SVGID_00000152948054807481963340000009271881013224360890_" gradientUnits="userSpaceOnUse" x1="1861.4822" y1="2944.5696" x2="1990.209" y2="2696.8931">
					<stop  offset="0.0036" style="stop-color:#26264F"/>
					<stop  offset="1" style="stop-color:#444B8C"/>
				</linearGradient>
				<path style="fill:url(#SVGID_00000152948054807481963340000009271881013224360890_);" d="M1720.858,2767.545
					c-24.367-2.538-45.572,16.574-45.572,41.073v2.495c0,33.412,19.014,64.026,49.173,78.409
					c41.868,19.967,316.112,64.581,382.264,39.724c33.301-12.512,53.939-41.103,53.939-76.677v-2.008
					c0-21.151-15.981-38.883-37.018-41.073L1720.858,2767.545z"/>
				
					<linearGradient id="SVGID_00000049910657583099877810000016967095280232132536_" gradientUnits="userSpaceOnUse" x1="1682.2667" y1="2824.5745" x2="2153.4666" y2="2824.5745">
					<stop  offset="0.0036" style="stop-color:#26264F"/>
					<stop  offset="1" style="stop-color:#444B8C"/>
				</linearGradient>
				<path style="opacity:0.3;fill:url(#SVGID_00000049910657583099877810000016967095280232132536_);" d="M2123.644,2809.488
					l-402.785-41.942c-15.891-1.655-30.394,5.929-38.592,18.178c8.091,19.066,22.825,35.014,42.192,44.25
					c41.868,19.967,327.791,70.397,382.264,44.73c21.204-9.993,37.833-26.861,46.744-47.365
					C2146.828,2817.604,2136.146,2810.79,2123.644,2809.488z"/>
				
					<linearGradient id="SVGID_00000083781118503055627360000008659038604489719476_" gradientUnits="userSpaceOnUse" x1="1675.286" y1="2739.4365" x2="2160.6621" y2="2739.4365">
					<stop  offset="0.0036" style="stop-color:#26264F"/>
					<stop  offset="1" style="stop-color:#444B8C"/>
				</linearGradient>
				<path style="fill:url(#SVGID_00000083781118503055627360000008659038604489719476_);" d="M1705.1,2624.927
					c-16.466,0-29.814,13.348-29.814,29.814v68.944c0,33.412,19.014,64.026,49.173,78.408
					c41.868,19.967,327.791,70.397,382.264,44.729c32.181-15.165,53.939-46.107,53.939-81.682V2654.74
					c0-16.466-13.348-29.814-29.813-29.814H1705.1z"/>
				
					<linearGradient id="SVGID_00000146498887347040230710000005038077973155938701_" gradientUnits="userSpaceOnUse" x1="1905.9198" y1="2702.825" x2="1953.717" y2="2479.0474">
					<stop  offset="0.0036" style="stop-color:#26264F"/>
					<stop  offset="1" style="stop-color:#444B8C"/>
				</linearGradient>
				<path style="fill:url(#SVGID_00000146498887347040230710000005038077973155938701_);" d="M2154.659,2646.389
					c0,30.906-105.967,55.959-236.684,55.959c-130.718,0-236.685-25.053-236.685-55.959c0-30.905,105.967-55.958,236.685-55.958
					C2048.692,2590.431,2154.659,2615.485,2154.659,2646.389z"/>
				
					<linearGradient id="SVGID_00000080196011840758909180000006695370736333125002_" gradientUnits="userSpaceOnUse" x1="1814.1301" y1="1454.1757" x2="2762.4185" y2="2959.7056">
					<stop  offset="0" style="stop-color:#FCB148"/>
					<stop  offset="0.0521" style="stop-color:#FDBA46"/>
					<stop  offset="0.1424" style="stop-color:#FFC244"/>
					<stop  offset="0.3183" style="stop-color:#FFC444"/>
					<stop  offset="0.4849" style="stop-color:#FDB946"/>
					<stop  offset="0.7754" style="stop-color:#F99C4D"/>
					<stop  offset="0.8658" style="stop-color:#F8924F"/>
					<stop  offset="1" style="stop-color:#F8924F"/>
				</linearGradient>
				<path style="fill:url(#SVGID_00000080196011840758909180000006695370736333125002_);" d="M2651.952,1599.681
					c0-385.98-328.613-698.88-733.978-698.88c-405.365,0-733.978,312.9-733.978,698.88c0,234.242,121.036,441.559,306.802,568.365
					c78.811,53.796,126.605,142.464,126.605,237.885v53.482c0,116.205,94.203,210.407,210.408,210.407h180.325
					c116.205,0,210.407-94.202,210.407-210.407v-53.482c0-95.421,47.796-184.089,126.605-237.885
					C2530.916,2041.24,2651.952,1833.923,2651.952,1599.681z"/>
				<ellipse style="opacity:0.5;fill:#F4F7FA;" cx="1917.974" cy="2602.265" rx="173.188" ry="40.946"/>
				<g>
					
						<linearGradient id="SVGID_00000002380463062092709790000014268650409129532349_" gradientUnits="userSpaceOnUse" x1="1640.8896" y1="2613.416" x2="1834.2511" y2="2048.5408">
						<stop  offset="0.494" style="stop-color:#EBEFF2"/>
						<stop  offset="1" style="stop-color:#FFFFFF"/>
					</linearGradient>
					<path style="fill:url(#SVGID_00000002380463062092709790000014268650409129532349_);" d="M1872.842,2627.288
						c-4.96,0-9.265-3.684-9.915-8.733l-127.408-990.823c-0.704-5.482,3.169-10.497,8.652-11.2
						c5.493-0.738,10.497,3.167,11.203,8.649l127.409,990.823c0.704,5.483-3.17,10.497-8.653,11.201
						C1873.697,2627.263,1873.268,2627.288,1872.842,2627.288z"/>
					
						<linearGradient id="SVGID_00000179634992524878297370000007133073055337146246_" gradientUnits="userSpaceOnUse" x1="1825.7488" y1="2676.6943" x2="2019.1104" y2="2111.8188">
						<stop  offset="0.494" style="stop-color:#EBEFF2"/>
						<stop  offset="1" style="stop-color:#FFFFFF"/>
					</linearGradient>
					<path style="fill:url(#SVGID_00000179634992524878297370000007133073055337146246_);" d="M1951.978,2627.288
						c-0.425,0-0.855-0.024-1.288-0.083c-5.483-0.704-9.356-5.718-8.652-11.201l127.411-990.823
						c0.706-5.483,5.715-9.392,11.203-8.649c5.483,0.704,9.356,5.718,8.652,11.2l-127.411,990.823
						C1961.243,2623.603,1956.938,2627.288,1951.978,2627.288z"/>
					
						<linearGradient id="SVGID_00000174580177223128996060000016119064863707307655_" gradientUnits="userSpaceOnUse" x1="1573.5559" y1="2590.3677" x2="1766.9175" y2="2025.4922">
						<stop  offset="0.494" style="stop-color:#EBEFF2"/>
						<stop  offset="1" style="stop-color:#FFFFFF"/>
					</linearGradient>
					<path style="fill:url(#SVGID_00000174580177223128996060000016119064863707307655_);" d="M2055.741,1626.93
						c-3.252,0-6.444-1.583-8.366-4.501l-35.163-53.345c-0.362-0.548-0.919-0.866-1.427-0.802c-0.872,0.02-1.241,0.64-1.361,0.841
						l-23.215,38.885c-3.848,6.441-10.592,10.399-18.043,10.585c-7.403,0.24-14.401-3.435-18.577-9.691l-31.877-47.794
						c-0.347-0.518-0.811-0.786-1.378-0.792c-0.677,0.127-0.994,0.24-1.334,0.728l-28.005,40.478
						c-4.044,5.849-10.675,9.349-17.739,9.363h-0.044c-7.062,0-13.705-3.479-17.779-9.319l-40.373-57.836
						c-0.364-0.523-0.877-0.704-1.424-0.757c-0.577,0.025-1.029,0.318-1.346,0.865l-36.85,63.612
						c-2.769,4.78-8.897,6.412-13.676,3.641c-4.784-2.771-6.414-8.894-3.643-13.678l36.85-63.613
						c3.748-6.466,10.411-10.511,17.825-10.824c7.354-0.376,14.399,3.167,18.68,9.3l40.37,57.836
						c0.35,0.498,0.809,0.758,1.364,0.758h0.002c0.542-0.005,0.987-0.25,1.324-0.733l28.004-40.478
						c4.098-5.918,10.845-9.441,17.965-9.358c7.172,0.064,13.849,3.689,17.861,9.705l31.875,47.789
						c0.359,0.538,0.897,0.987,1.427,0.787c0.868-0.02,1.234-0.636,1.354-0.836l23.215-38.885
						c3.863-6.465,10.631-10.424,18.106-10.59c7.399-0.166,14.431,3.499,18.583,9.798l35.164,53.345
						c3.042,4.613,1.766,10.819-2.85,13.864C2059.543,1626.397,2057.632,1626.93,2055.741,1626.93z"/>
				</g>
				
					<linearGradient id="SVGID_00000070839899740267279410000015321357940707385224_" gradientUnits="userSpaceOnUse" x1="1847.4076" y1="1114.8163" x2="1658.3912" y2="2672.5686">
					<stop  offset="0" style="stop-color:#FCB148"/>
					<stop  offset="0.0521" style="stop-color:#FDBA46"/>
					<stop  offset="0.1424" style="stop-color:#FFC244"/>
					<stop  offset="0.3183" style="stop-color:#FFC444"/>
					<stop  offset="0.4849" style="stop-color:#FDB946"/>
					<stop  offset="0.7754" style="stop-color:#F99C4D"/>
					<stop  offset="0.8658" style="stop-color:#F8924F"/>
					<stop  offset="1" style="stop-color:#F8924F"/>
				</linearGradient>
				<path style="opacity:0.3;fill:url(#SVGID_00000070839899740267279410000015321357940707385224_);" d="M1931.294,2150.935
					c15.724-269.371,469.834-332.412,467.888-572.976c-1.198-148.162-181.65-258.195-220.183-280.232
					c-283.933-162.394-633.411,25.135-705.586-107.59c-17.97-33.045-9.545-69.017-4.746-89.503
					c7.252-30.961,23.672-59.799,48.029-86.175c-200.323,124.791-332.701,340.271-332.701,585.223
					c0,234.242,121.036,441.561,306.802,568.365c78.811,53.797,126.605,142.466,126.605,237.886v53.482
					c0,116.205,94.203,210.407,210.408,210.407h180.325c116.204,0,210.407-94.202,210.407-210.407v-42.76
					c-24.819,19.02-53.323,32.285-84.58,32.029C2025.508,2447.791,1923.469,2284.982,1931.294,2150.935z"/>
				<path style="opacity:0.44;fill:#F4F7FA;" d="M2561.315,1626.93c31.649,264.278-265.22,609.11-631.602,609.112
					c-337.905,0.002-630.492-279.286-631.602-609.112c-0.97-288.271,225.31-561.518,472.005-589.488
					c162.864-18.465,294.658,74.437,442.334,178.533C2367.875,1325.532,2539.729,1446.671,2561.315,1626.93z"/>
			</g>
			<g>
				<g>
					<g>
						
							<linearGradient id="SVGID_00000028290173568553968180000004592955640780652721_" gradientUnits="userSpaceOnUse" x1="3638.4407" y1="255.2284" x2="2803.4551" y2="1707.5295" gradientTransform="matrix(0.9999 0.0163 -0.0163 0.9999 -591.1752 212.0026)">
							<stop  offset="0" style="stop-color:#FFC444"/>
							<stop  offset="0.9964" style="stop-color:#F36F56"/>
						</linearGradient>
						<path style="fill:url(#SVGID_00000028290173568553968180000004592955640780652721_);" d="M2966.164,1495.919
							c-5.209-0.085-11.131-4.406-11.046-9.615l7.508-459.805c0.17-10.401-2.448-18.059-12.85-18.229l-679.097-11.089
							c-5.209-0.085-9.334-6.145-9.249-11.354c0.085-5.209,4.406-11.131,9.615-11.046l679.097,11.089
							c20.803,0.34,35.223,20.192,34.884,40.995l-7.508,459.805C2977.432,1491.879,2971.373,1496.004,2966.164,1495.919z"/>
					</g>
					
						<linearGradient id="SVGID_00000080920024205125545480000010726223180752007571_" gradientUnits="userSpaceOnUse" x1="3547.0623" y1="1555.4403" x2="3601.2795" y2="1048.6279" gradientTransform="matrix(0.9999 0.0163 -0.0163 0.9999 -591.1752 212.0026)">
						<stop  offset="0" style="stop-color:#FFC444"/>
						<stop  offset="0.9964" style="stop-color:#F36F56"/>
					</linearGradient>
					<path style="fill:url(#SVGID_00000080920024205125545480000010726223180752007571_);" d="M2996.015,1412.823l-8.785-14.426
						c-2.98-5.466-9.172-8.875-15.398-8.876c-6.226-0.001-12.187,3.396-15.169,8.86l-8.361,14.728
						c-1.942,3.561-3.315,7.534-3.381,11.59l-2.042,125.087c-0.044,2.686,13.595,5.087,27.92,5.321s28.035-1.72,28.079-4.406
						l2.048-125.44C3000.997,1420.931,2998.089,1416.626,2996.015,1412.823z"/>
				</g>
				
					<linearGradient id="SVGID_00000183230164769972206000000016394689401498723999_" gradientUnits="userSpaceOnUse" x1="2507.1565" y1="-9261.0303" x2="2413.0154" y2="-8558.7119" gradientTransform="matrix(0.9563 0.2925 0.2925 -0.9563 2510.4121 -8294.084)">
					<stop  offset="0" style="stop-color:#AA80F9"/>
					<stop  offset="0.9964" style="stop-color:#6165D7"/>
				</linearGradient>
				<path style="fill:url(#SVGID_00000183230164769972206000000016394689401498723999_);" d="M2038.776,992.292
					c85.073,30.069,168.067,67.75,248.966,113.112l641.93-104.81l30.35,9.286l2.596-8.491l0.895-2.923l-578.079-541.799
					L1602.995,582.9l-0.714,2.339l-2.598,8.49l23.748,7.266L2038.776,992.292z"/>
				
					<linearGradient id="SVGID_00000142876053970494535960000007002560049021016455_" gradientUnits="userSpaceOnUse" x1="2493.3779" y1="148.0708" x2="2370.1626" y2="1713.8094" gradientTransform="matrix(0.9563 0.2925 -0.2925 0.9563 192.9275 -716.5682)">
					<stop  offset="0" style="stop-color:#AA80F9"/>
					<stop  offset="0.9964" style="stop-color:#6165D7"/>
				</linearGradient>
				<path style="fill:url(#SVGID_00000142876053970494535960000007002560049021016455_);" d="M2306.373,1116.015l651.85-106.43
					l-576.678-543.288l-781.934,127.668l413.414,389.479C2113.699,1017.041,2211.486,1061.211,2306.373,1116.015z"/>
				
					<linearGradient id="SVGID_00000046320031635432854450000008408386912476015038_" gradientUnits="userSpaceOnUse" x1="2264.7175" y1="5683.2788" x2="2441.2856" y2="777.2817" gradientTransform="matrix(0.9563 0.2925 -0.2925 0.9563 192.9275 -716.5682)">
					<stop  offset="0" style="stop-color:#AA80F9"/>
					<stop  offset="0.9964" style="stop-color:#6165D7"/>
				</linearGradient>
				<path style="fill:url(#SVGID_00000046320031635432854450000008408386912476015038_);" d="M2309.002,1117.513
					c75.625,45.166,201.042,127.624,278.612,199.451l106.205-347.171c3.375-11.034,0.514-23.505-7.727-37.154
					c-38.379-62.93-194.38-148.021-391.578-208.346c-197.198-60.325-374.105-77.077-441.123-46.389
					c-10.366,4.793-18.126,10.62-22.733,17.643c-2.023,2.779-3.507,5.723-4.458,8.828l-66.629,217.807
					c44.262,6.807,104.662,18.058,174.961,37.359C2126.568,1012.265,2261.376,1089.069,2309.002,1117.513z"/>
				
					<linearGradient id="SVGID_00000119104085530575581760000018255720122233165983_" gradientUnits="userSpaceOnUse" x1="2070.2192" y1="1324.6694" x2="2086.4185" y2="874.563" gradientTransform="matrix(0.9563 0.2925 -0.2925 0.9563 192.9275 -716.5682)">
					<stop  offset="0" style="stop-color:#AA80F9"/>
					<stop  offset="0.9964" style="stop-color:#6165D7"/>
				</linearGradient>
				<path style="opacity:0.3;fill:url(#SVGID_00000119104085530575581760000018255720122233165983_);" d="M1965.401,968.406
					c-3.062-14.908-3.94-30.333-2.358-46.23c9.609-96.51-75.706-181.763-132.383-226.63c-0.469-0.377-0.942-0.756-1.409-1.133
					l-69.677,227.769C1829.453,932.927,1898.061,948.341,1965.401,968.406z"/>
			</g>
		</g>
		<g>
			
				<linearGradient id="SVGID_00000105413261707849313250000017240288757867995810_" gradientUnits="userSpaceOnUse" x1="3395.2722" y1="1468.6775" x2="3364.9954" y2="1588.9884" gradientTransform="matrix(-0.9995 0.0321 0.0321 0.9995 5789.7505 -117.7824)">
				<stop  offset="0" style="stop-color:#FFC444"/>
				<stop  offset="0.9964" style="stop-color:#F36F56"/>
			</linearGradient>
			<path style="fill:url(#SVGID_00000105413261707849313250000017240288757867995810_);" d="M2454.121,1520.254
				c0,0-6.809-12.592-0.924-28.795c5.885-16.202,5.064-41.798,7.955-51.498c0.698-2.341,0.494-3.72-0.254-4.24
				c-1.541-1.071-8.156,8.344-12.132,17.448c-7.052,16.142-4.57,28.18-8.674,29.103c-4.589,1.031-10.234-13.444-13.208-12.387
				c-2.305,0.819,0.327,10.181,0.616,19.196c0.205,6.399,17.229,37.879,17.229,37.879L2454.121,1520.254z"/>
			
				<linearGradient id="SVGID_00000042726804449217674050000016662480874472885439_" gradientUnits="userSpaceOnUse" x1="2406.0388" y1="1646.3041" x2="2773.6367" y2="1646.3041" gradientTransform="matrix(0.9995 -0.0321 0.0321 0.9995 -18.0723 68.425)">
				<stop  offset="0" style="stop-color:#AA80F9"/>
				<stop  offset="0.9964" style="stop-color:#6165D7"/>
			</linearGradient>
			<path style="fill:url(#SVGID_00000042726804449217674050000016662480874472885439_);" d="M2807.334,1647.414
				c0.265-15.693,0.845-49.992-18.48-61.325c-25.523-14.968-61.117,24.581-102.032,36.298
				c-43.018,12.319-113.467,0.041-230.903-120.553c-6.652,7.093-13.304,14.187-19.956,21.28
				c13.036,40.841,45.713,120.962,125.409,177.601c18.606,13.223,131.646,93.559,199.655,47.254
				C2794.369,1725.269,2806.801,1678.998,2807.334,1647.414z"/>
			
				<linearGradient id="SVGID_00000181060815801604328910000012088978541014208153_" gradientUnits="userSpaceOnUse" x1="-789.8964" y1="2613.2034" x2="-731.4429" y2="2613.2034" gradientTransform="matrix(1 -0.0031 0.0031 1 3583.8899 -78.3885)">
				<stop  offset="0" style="stop-color:#444B8C"/>
				<stop  offset="0.9964" style="stop-color:#26264F"/>
			</linearGradient>
			<path style="fill:url(#SVGID_00000181060815801604328910000012088978541014208153_);" d="M2855.708,2523.582
				c3.278,2.495,4.073,8.961,4.593,13.188c0.233,1.888,0.349,2.833,0.159,3.508c-1.387,4.928-10.833,5.744-25.622,7.736
				c-23.371,3.147-30.289,5.216-32.236,1.786c-1.825-3.215,2.166-8.702,2.615-9.308c2.418-3.254,5.473-4.508,11.389-6.667
				c10.946-3.995,18.356-6.229,20.6-6.905C2851.217,2522.695,2853.556,2521.945,2855.708,2523.582z"/>
			
				<linearGradient id="SVGID_00000008128951382744405810000011409107274688098436_" gradientUnits="userSpaceOnUse" x1="-424.9844" y1="2794.5078" x2="-399.3397" y2="2741.4292" gradientTransform="matrix(0.9959 0.0907 -0.0907 0.9959 3512.313 -207.4867)">
				<stop  offset="0" style="stop-color:#FFC444"/>
				<stop  offset="0.9964" style="stop-color:#F36F56"/>
			</linearGradient>
			<path style="fill:url(#SVGID_00000008128951382744405810000011409107274688098436_);" d="M2841.078,2502.609l-1.49,26.794
				c0.708,1.269,8.773,4.885,14.975,1.364l5.188-26.458L2841.078,2502.609z"/>
			
				<linearGradient id="SVGID_00000152245549042169344210000011498373945025301905_" gradientUnits="userSpaceOnUse" x1="-294.8957" y1="3029.363" x2="-232.7918" y2="3029.363" gradientTransform="matrix(0.9722 0.234 -0.234 0.9722 3588.2334 -356.639)">
				<stop  offset="0" style="stop-color:#444B8C"/>
				<stop  offset="0.9964" style="stop-color:#26264F"/>
			</linearGradient>
			<path style="fill:url(#SVGID_00000152245549042169344210000011498373945025301905_);" d="M2650.368,2518.347
				c3.965,4.105,5.087,11.864,1.881,15.807c-3.152,3.877-8.164,1.206-22.108,2.071c-14.937,0.927-18.727,4.583-28.977,2.106
				c-4.141-1.003-11.478-3.522-11.435-6.458c0.031-2.064,3.687-3.247,15.881-7.772c17.309-6.423,17.221-6.74,20.917-7.476
				C2635.81,2514.78,2645.131,2512.926,2650.368,2518.347z"/>
			
				<linearGradient id="SVGID_00000133521450259551686890000007646137054081159613_" gradientUnits="userSpaceOnUse" x1="-469.3658" y1="2921.1858" x2="-443.1759" y2="2866.9788" gradientTransform="matrix(0.986 0.1664 -0.1664 0.986 3578.9253 -274.3142)">
				<stop  offset="0" style="stop-color:#FFC444"/>
				<stop  offset="0.9964" style="stop-color:#F36F56"/>
			</linearGradient>
			<path style="fill:url(#SVGID_00000133521450259551686890000007646137054081159613_);" d="M2640.006,2494.27l-6.698,25.185
				c0.61,1.32,8.376,5.538,14.828,2.501l10.36-24.568L2640.006,2494.27z"/>
			
				<linearGradient id="SVGID_00000047755118519323591680000004620369639600073604_" gradientUnits="userSpaceOnUse" x1="3259.6396" y1="2432.1831" x2="3094.0032" y2="2058.7991" gradientTransform="matrix(-0.9995 0.0321 0.0321 0.9995 5789.7505 -117.7824)">
				<stop  offset="0" style="stop-color:#311944"/>
				<stop  offset="0.7407" style="stop-color:#5C3169"/>
				<stop  offset="1" style="stop-color:#6B3976"/>
			</linearGradient>
			<path style="fill:url(#SVGID_00000047755118519323591680000004620369639600073604_);" d="M2689.097,1945.826
				c1.616,83.864-1.078,178.305-11.517,281.149c-10.317,101.646-26.393,193.705-44.549,274.787c9.651,2.267,19.3,4.534,28.95,6.801
				c23.546-23.412,53.022-60.023,66.181-110.846c8.167-31.544,4.595-47.503,9.178-86.126c7.297-61.496,25.028-94.161,42.833-144.134
				c16-44.906,34.507-110.649,42.757-197.998C2778.319,1961.582,2733.708,1953.704,2689.097,1945.826z"/>
			
				<linearGradient id="SVGID_00000062900562308325301810000010638931584553228213_" gradientUnits="userSpaceOnUse" x1="3259.6399" y1="2432.1831" x2="3094.0034" y2="2058.7991" gradientTransform="matrix(-0.9995 0.0321 0.0321 0.9995 5789.7505 -117.7824)">
				<stop  offset="0" style="stop-color:#311944"/>
				<stop  offset="0.7407" style="stop-color:#5C3169"/>
				<stop  offset="1" style="stop-color:#6B3976"/>
			</linearGradient>
			<path style="opacity:0.3;fill:url(#SVGID_00000062900562308325301810000010638931584553228213_);" d="M2689.097,1945.826
				c26.771,19.082,60.257,49.452,60.445,87.336c0.139,28.112-18.187,33.872-30.606,75.285c-15.228,50.777,5.738,64.08-4.144,128.097
				c-7.356,47.648-18.584,37.777-29.945,95.902c-10.116,51.756-4.152,74.616-21.036,116.256
				c-9.716,23.961-21.991,41.797-30.78,53.06c9.65,2.267,19.3,4.534,28.95,6.801c23.546-23.412,53.022-60.023,66.181-110.846
				c8.167-31.544,4.595-47.503,9.179-86.126c7.297-61.496,25.027-94.161,42.833-144.134c16-44.906,34.507-110.649,42.757-197.998
				C2778.319,1961.582,2733.708,1953.704,2689.097,1945.826z"/>
			
				<linearGradient id="SVGID_00000087374725655533991670000002641667270832895362_" gradientUnits="userSpaceOnUse" x1="2764.5486" y1="2710.0608" x2="2598.9146" y2="2336.6821" gradientTransform="matrix(-0.9959 -0.0907 -0.0907 0.9959 5709.9741 -7.5669)">
				<stop  offset="0" style="stop-color:#311944"/>
				<stop  offset="0.7407" style="stop-color:#5C3169"/>
				<stop  offset="1" style="stop-color:#6B3976"/>
			</linearGradient>
			<path style="fill:url(#SVGID_00000087374725655533991670000002641667270832895362_);" d="M2794.512,1942.822
				c9.272,106.43,17.568,214.877,24.759,325.286c5.397,82.85,10.032,164.672,13.958,245.438c9.812,0.894,19.623,1.788,29.436,2.68
				c8.879-17.884,20.561-45.166,28.049-79.894c9.095-42.178,5.882-66.949,9.069-110.464c3.577-48.804,10.696-59.64,21.942-121.422
				c22.827-125.385,34.241-188.078,3.085-225.85C2914.697,1966.334,2883.244,1935.768,2794.512,1942.822z"/>
			
				<linearGradient id="SVGID_00000020401126380370600400000015238945822740000664_" gradientUnits="userSpaceOnUse" x1="-2902.54" y1="1460.2148" x2="-2319.1396" y2="1856.4865" gradientTransform="matrix(0.9995 -0.0321 0.0321 0.9995 5559.771 -110.6176)">
				<stop  offset="0" style="stop-color:#311944"/>
				<stop  offset="1" style="stop-color:#6B3976"/>
			</linearGradient>
			<path style="fill:url(#SVGID_00000020401126380370600400000015238945822740000664_);" d="M2744.357,1651.684
				c-11.198-6.76-1.867-27.77-2.703-72.228c-1.024-54.481-15.813-64.164-4.882-85.903c13.367-26.582,48.778-38.541,72.453-39.811
				c5.221-0.279,6.351-3.172,50.49,6.76c79.522,17.894,98.563-4.635,134.582,16.102c34.8,20.037,20.601,43.658,54.532,67.376
				c54.998,38.446,110.083-6.795,149.547,25.574c37.328,30.617,40.764,111.563,3.992,156.979
				c-41.686,51.484-120.235,38.94-172.878,30.686c-11.076-1.736-67.056-11.629-126.323-52.502
				c-32.787-22.613-55.588-47.152-70.176-65.304c-3.402-3.59-8.67-7.903-15.457-8.407c-8.148-0.606-14.512,4.57-17.586,6.848
				C2783.808,1649.815,2755.357,1658.324,2744.357,1651.684z"/>
			<g>
				<g>
					
						<linearGradient id="SVGID_00000090998772162978934090000001867126071692562346_" gradientUnits="userSpaceOnUse" x1="2612.1123" y1="1844.8477" x2="3003.8323" y2="1844.8477" gradientTransform="matrix(0.9995 -0.0321 0.0321 0.9995 -18.0723 68.425)">
						<stop  offset="0" style="stop-color:#AA80F9"/>
						<stop  offset="0.9964" style="stop-color:#6165D7"/>
					</linearGradient>
					<path style="fill:url(#SVGID_00000090998772162978934090000001867126071692562346_);" d="M2782.312,1591.554
						c0,0,90.755-29.658,132.568,14.72c6.51,6.909,13.21,17.177,18.832,40.135c19.725,80.548-24.918,110.898-16.335,184.284
						c0.983,8.406,11.536,89.067,71.895,136.912c28.704,22.753,60.872,31.901,60.76,52.893
						c-0.08,15.112-16.851,29.422-32.633,34.798c-30.196,10.285-48.813-14.843-89.314-22.446
						c-42.328-7.945-51.373,13.987-117.328,24.86c-21.953,3.619-122.156,20.139-148.317-20.552
						c-11.133-17.317,1.537-28.83,17.825-101.823c1.647-7.382,29.782-135.643,18.252-190.77c-1-4.779-4.472-24.171-4.461-50.043
						c0.002-6.403,0.58-13.57,2.144-22.152c0,0,6.626-36.365,33.721-68.279C2733.813,1599.51,2738.47,1594.72,2782.312,1591.554z"/>
				</g>
			</g>
			<g style="opacity:0.3;">
				<g>
					
						<linearGradient id="SVGID_00000183246187271781391190000000246876656090211464_" gradientUnits="userSpaceOnUse" x1="2612.5764" y1="1858.2163" x2="3003.8323" y2="1858.2163" gradientTransform="matrix(0.9995 -0.0321 0.0321 0.9995 -18.0723 68.425)">
						<stop  offset="0" style="stop-color:#AA80F9"/>
						<stop  offset="0.9964" style="stop-color:#6165D7"/>
					</linearGradient>
					<path style="fill:url(#SVGID_00000183246187271781391190000000246876656090211464_);" d="M2914.88,1606.275
						c9.23-0.4,17.58,35.02,18.832,40.135c19.725,80.548-24.918,110.898-16.335,184.284c0.983,8.406,11.536,89.067,71.895,136.911
						c28.704,22.753,60.872,31.901,60.76,52.894c-0.08,15.112-16.851,29.422-32.633,34.798
						c-30.196,10.285-48.813-14.843-89.315-22.446c-42.327-7.945-51.373,13.987-117.327,24.86
						c-21.953,3.619-122.156,20.139-148.317-20.552c-2.702-4.202-3.73-6.046-3.537-7.884c2.125-20.253,95.878-4.904,118.047-42.4
						c21.659-36.632-39.513-99.168-20.333-119.056c14.979-15.532,55.567,19.216,86.729,1.344
						c19.545-11.209,22.048-35.471,30.209-87.655C2887.887,1689.88,2900.868,1606.881,2914.88,1606.275z"/>
				</g>
			</g>
			<g>
				
					<linearGradient id="SVGID_00000088120027746559983800000013169970093098509459_" gradientUnits="userSpaceOnUse" x1="4541.8174" y1="516.9258" x2="4422.0933" y2="306.7845" gradientTransform="matrix(-0.9778 0.2099 0.2099 0.9778 7299.2202 -410.4727)">
					<stop  offset="0" style="stop-color:#FFC444"/>
					<stop  offset="0.9964" style="stop-color:#F36F56"/>
				</linearGradient>
				<path style="fill:url(#SVGID_00000088120027746559983800000013169970093098509459_);" d="M2809.819,1531.188
					c-1.054,5.836-6.372,37.143,6.611,44.737c2.814,1.647,8.146,2.47,18.812,4.117c6.982,1.078,12.831,1.688,16.955,2.048
					c-0.426,5.234-1.91,13.781-7.682,21.696c-16.178,22.189-50.19,17.674-55.042,16.949c-17.117-2.552-34.032-7.273-38.179-10.357
					c-6.315-4.696-11.274-8.212-14.258-11.849c6.484-3.394,19.51-12.214,28.345-15.246c6.603-2.266,12.815-3.93,18.475-5.164
					c0.742-6.038,1.486-12.077,2.23-18.116C2793.997,1550.399,2801.908,1540.794,2809.819,1531.188z"/>
				
					<linearGradient id="SVGID_00000171704943854376036700000017937522601263591303_" gradientUnits="userSpaceOnUse" x1="4563.9756" y1="504.2972" x2="4444.2505" y2="294.1548" gradientTransform="matrix(-0.9778 0.2099 0.2099 0.9778 7299.2202 -410.4727)">
					<stop  offset="0" style="stop-color:#FFC444"/>
					<stop  offset="0.9964" style="stop-color:#F36F56"/>
				</linearGradient>
				<path style="fill:url(#SVGID_00000171704943854376036700000017937522601263591303_);" d="M2810.913,1546.671
					c0,0-1.568,22.868-23.597,27.596c-19.724,4.234-36.197-43.229-26.442-55.955c3.254-4.245,11.488-8.449,18.744-8.473
					c5.103-0.016,22.531,5.989,25.487,23.14c3.313-3.722,7.552-4.898,9.708-3.453c2.735,1.833,1.483,7.459,1.197,8.733
					C2815.027,1542.675,2812.254,1545.481,2810.913,1546.671z"/>
			</g>
			<g>
				<path style="fill:#26264F;" d="M2787.511,1917.788l-66.692-151.011c-4.511-10.214,0.614-22.109,11.136-25.846l121.009-42.979
					c7.024-1.837,14.336,1.738,17.199,8.41l68.354,159.263c3.404,7.931-0.739,17.072-8.945,19.742l-124.128,40.378
					C2798.311,1928.065,2790.576,1924.633,2787.511,1917.788z"/>
			</g>
			
				<linearGradient id="SVGID_00000056414337864355084330000014775444769150504845_" gradientUnits="userSpaceOnUse" x1="3090.2073" y1="1829.1415" x2="3071.7607" y2="1939.8199" gradientTransform="matrix(-0.9995 0.0321 0.0321 0.9995 5789.7505 -117.7824)">
				<stop  offset="0" style="stop-color:#FFC444"/>
				<stop  offset="0.2327" style="stop-color:#FCB048"/>
				<stop  offset="0.9964" style="stop-color:#F36F56"/>
			</linearGradient>
			<path style="fill:url(#SVGID_00000056414337864355084330000014775444769150504845_);" d="M2792.54,1829.516
				c0,0-12.636-7.85-12.9-16.097c-0.265-8.247-8.909-20.354-13.032-20.221c-4.124,0.132-3.991,4.256,0.397,12.371
				c4.388,8.115-16.362,4.653-24.874-3.33c-8.512-7.983-16.759-7.718-12.503-3.727c6.729,6.311,8.644,12.106,8.644,12.106
				s9.306,32.725,45.322,29.505L2792.54,1829.516z"/>
			
				<linearGradient id="SVGID_00000046328296194811317150000000376142227334679942_" gradientUnits="userSpaceOnUse" x1="2740.2141" y1="1763.1583" x2="2988.564" y2="1763.1583" gradientTransform="matrix(0.9995 -0.0321 0.0321 0.9995 -18.0723 68.425)">
				<stop  offset="0" style="stop-color:#AA80F9"/>
				<stop  offset="0.9964" style="stop-color:#6165D7"/>
			</linearGradient>
			<path style="fill:url(#SVGID_00000046328296194811317150000000376142227334679942_);" d="M2871.592,1591.689
				c26.002-12.616,71.694,34.484,79.805,42.845c43.037,44.362,105.34,146.057,60.358,208.584
				c-37.527,52.165-142.305,66.755-231.056,3.289c3.859-8.38,7.718-16.759,11.577-25.139c9.1,2.973,68.901,21.547,111.073-11.821
				c8.946-7.079,22.702-17.963,23.683-33.783c1.827-29.478-43.121-37.096-64.501-80.487
				C2843.605,1656.77,2849.172,1602.567,2871.592,1591.689z"/>
		</g>
		<g>
			<path style="fill:#B7C0CE;" d="M1052.826,2993.526c0.762,0,1.406-0.776,1.477-1.801l26.921-445.939
				c0.075-1.091-0.525-2.057-1.342-2.158c-0.814-0.09-1.54,0.702-1.616,1.793l-23.957,403.147v-411.565
				c0-1.096-0.665-1.984-1.485-1.984s-1.485,0.888-1.485,1.984v454.54c0,1.061,0.624,1.933,1.417,1.982
				C1052.779,2993.526,1052.802,2993.526,1052.826,2993.526z"/>
			<g>
				<polygon style="fill:#F4F7FA;" points="752.631,2579.513 1047.968,2536.289 1615.361,2570.74 1318.197,2618.272 				"/>
				<polygon style="fill:#B7C0CE;" points="1318.197,2618.273 752.631,2579.513 752.631,2598.234 1318.197,2636.994 
					1615.361,2589.46 1615.361,2570.739 				"/>
			</g>
			<path style="fill:#B7C0CE;" d="M1316.189,3129.072c0.02,0,0.039,0,0.059-0.001c0.797-0.042,1.427-0.917,1.427-1.983V2632.44
				c0-1.096-0.665-1.984-1.485-1.984c-0.82,0-1.485,0.888-1.485,1.984v443.825l-22.635-443.979
				c-0.065-1.092-0.772-1.907-1.597-1.823c-0.817,0.086-1.429,1.04-1.365,2.133l25.601,494.647
				C1314.77,3128.278,1315.417,3129.072,1316.189,3129.072z"/>
			<path style="fill:#B7C0CE;" d="M1612.115,3051.38c0.02,0,0.039-0.001,0.059-0.001c0.797-0.042,1.427-0.917,1.427-1.983v-460.968
				c0-1.095-0.665-1.984-1.485-1.984c-0.82,0-1.485,0.889-1.485,1.984v410.354l-20.761-410.51c-0.065-1.093-0.793-1.91-1.597-1.822
				c-0.818,0.086-1.429,1.04-1.365,2.133l23.727,460.968C1610.696,3050.587,1611.344,3051.38,1612.115,3051.38z"/>
			<path style="fill:#B7C0CE;" d="M755.43,3051.38c0.769,0,1.415-0.787,1.479-1.819l25.194-460.969
				c0.068-1.092-0.54-2.051-1.357-2.142c-0.82-0.089-1.535,0.721-1.604,1.813l-22.229,413.457v-403.485
				c0-1.096-0.665-1.984-1.485-1.984c-0.82,0-1.485,0.888-1.485,1.984v451.161c0,1.064,0.628,1.938,1.424,1.982
				C755.388,3051.379,755.409,3051.38,755.43,3051.38z"/>
		</g>
		<g>
			<g>
				<g>
					<g>
						<path style="fill:#26264F;" d="M1085.778,2541.801l352.064-2.62v7.752c0,2.104-1.536,3.893-3.615,4.211l-99.553,15.265
							c-1.182,0.181-2.38,0.229-3.572,0.143l-241.498-17.404c-2.156-0.155-3.826-1.95-3.826-4.111V2541.801z"/>
						<g>
							<path style="fill:#26264F;" d="M1213.541,2528.988l220.661,14.181c3.948,0.254,7.159-2.443,7.159-6.023v-143.45
								c0-3.58-3.21-6.483-7.159-6.483h-220.661c-3.253,0-5.883,2.624-5.883,5.861v129.676
								C1207.657,2525.986,1210.288,2528.779,1213.541,2528.988z"/>
							<path style="fill:#26264F;" d="M1210.022,2528.988l220.661,14.181c3.949,0.254,7.159-2.443,7.159-6.023v-143.45
								c0-3.58-3.21-6.483-7.159-6.483h-220.661c-3.253,0-5.883,2.624-5.883,5.861v129.676
								C1204.139,2525.986,1206.769,2528.779,1210.022,2528.988z"/>
							
								<linearGradient id="SVGID_00000101072266430571988400000016285223751323660715_" gradientUnits="userSpaceOnUse" x1="2645.6199" y1="2463.8584" x2="2861.8213" y2="2463.8584" gradientTransform="matrix(-1 0 0 1 4073.8638 0)">
								<stop  offset="0" style="stop-color:#FF9085"/>
								<stop  offset="1" style="stop-color:#FB6FBB"/>
							</linearGradient>
							<path style="fill:url(#SVGID_00000101072266430571988400000016285223751323660715_);" d="M1216.896,2519.846l205.523,12.318
								c3.214,0.192,5.825-2.021,5.825-4.944v-125.59c0-2.923-2.611-5.302-5.825-5.314l-205.523-0.773
								c-2.683-0.01-4.854,2.14-4.854,4.802v114.39C1212.042,2517.396,1214.213,2519.685,1216.896,2519.846z"/>
							<path style="fill:#FFFFFF;" d="M1312.559,2391.136c0,1.333,1.136,2.417,2.539,2.42c1.404,0.004,2.544-1.076,2.544-2.412
								s-1.14-2.42-2.544-2.421C1313.696,2388.724,1312.559,2389.803,1312.559,2391.136z"/>
							<path style="opacity:0.48;fill:#FFFFFF;" d="M1262.293,2489.715c17.098-8.329,30.542,2.225,43.517-8.188
								c7.866-6.313,4.004-11.021,13.683-20.455c10.72-10.449,17.7-6.937,28.473-16.341c13.623-11.891,6.809-21.142,18.544-29.679
								c14.235-10.357,29.587-0.771,43.138-10.703c5.844-4.284,9.052-10.512,10.726-17.136h13.259c2.324,0,4.21,1.705,4.21,3.808
								v148.8c0,2.103-1.887,3.687-4.21,3.538l-226.041-14.527c-1.109-0.071-2.093-0.657-2.724-1.507
								c16.547-0.546,26.712-5.568,33.211-10.76C1250.789,2506.408,1248.585,2496.392,1262.293,2489.715z"/>
						</g>
						
							<linearGradient id="SVGID_00000096761755830281184320000011690481943673033898_" gradientUnits="userSpaceOnUse" x1="2636.0215" y1="2544.0359" x2="2988.0857" y2="2544.0359" gradientTransform="matrix(-1 0 0 1 4073.8638 0)">
							<stop  offset="0" style="stop-color:#444B8C"/>
							<stop  offset="0.9964" style="stop-color:#26264F"/>
						</linearGradient>
						<path style="fill:url(#SVGID_00000096761755830281184320000011690481943673033898_);" d="M1201.227,2528.592l236.615,14.926
							l-103.169,15.819c-1.182,0.181-2.38,0.229-3.572,0.143l-245.324-17.679l111.686-13.108
							C1198.712,2528.547,1199.972,2528.513,1201.227,2528.592z"/>
						<polygon style="opacity:0.3;fill:#26264F;" points="1403.317,2543.647 1206.327,2531.035 1145.361,2538.132 
							1340.653,2551.614 						"/>
					</g>
				</g>
				
					<linearGradient id="SVGID_00000001624938348507682170000014247101470348593807_" gradientUnits="userSpaceOnUse" x1="3519.2639" y1="2921.6504" x2="3530.8359" y2="3068.9304" gradientTransform="matrix(-1 0 0 1 4700.1265 0)">
					<stop  offset="0.0036" style="stop-color:#26264F"/>
					<stop  offset="1" style="stop-color:#444B8C"/>
				</linearGradient>
				<path style="fill:url(#SVGID_00000001624938348507682170000014247101470348593807_);" d="M1156.411,2994.954
					c0,0,51.754,3.596,52.514,6.976c0.761,3.38-35.128,16.442-47.668,16.929c-12.54,0.488-22.856-3.219-21.72-8.53
					c1.135-5.312,5.525-18.671,5.525-18.671L1156.411,2994.954z"/>
				
					<linearGradient id="SVGID_00000155844028246986292200000005285070934830195872_" gradientUnits="userSpaceOnUse" x1="2588.2158" y1="2635.3726" x2="2585.7861" y2="2459.2148" gradientTransform="matrix(-0.9853 0.171 0.171 0.9853 3253.2041 -36.2046)">
					<stop  offset="0" style="stop-color:#FFC444"/>
					<stop  offset="0.9964" style="stop-color:#F36F56"/>
				</linearGradient>
				<path style="fill:url(#SVGID_00000155844028246986292200000005285070934830195872_);" d="M1158.855,2971.96l0.919,24.425
					c0,0-7.873,4.444-14.122,1.891l-6.949-25.757L1158.855,2971.96z"/>
				
					<linearGradient id="SVGID_00000076567670710780230620000008161022652127180711_" gradientUnits="userSpaceOnUse" x1="3374.5259" y1="2911.8015" x2="3386.0979" y2="3059.0811" gradientTransform="matrix(-1 0 0 1 4700.1265 0)">
					<stop  offset="0.0036" style="stop-color:#26264F"/>
					<stop  offset="1" style="stop-color:#444B8C"/>
				</linearGradient>
				<path style="fill:url(#SVGID_00000076567670710780230620000008161022652127180711_);" d="M1301.149,2985.105
					c0,0,51.754,3.597,52.515,6.976c0.761,3.38-35.129,16.442-47.668,16.929c-12.54,0.488-22.856-3.219-21.721-8.53
					c1.136-5.313,5.525-18.671,5.525-18.671L1301.149,2985.105z"/>
				
					<linearGradient id="SVGID_00000045601315965756295860000007032923956542582452_" gradientUnits="userSpaceOnUse" x1="2443.929" y1="2650.4172" x2="2441.4995" y2="2474.2615" gradientTransform="matrix(-0.9853 0.171 0.171 0.9853 3253.2041 -36.2046)">
					<stop  offset="0" style="stop-color:#FFC444"/>
					<stop  offset="0.9964" style="stop-color:#F36F56"/>
				</linearGradient>
				<path style="fill:url(#SVGID_00000045601315965756295860000007032923956542582452_);" d="M1303.594,2962.11l0.919,24.425
					c0,0-7.873,4.444-14.122,1.891l-6.949-25.757L1303.594,2962.11z"/>
				
					<linearGradient id="SVGID_00000100345526721618160180000006899924700515453375_" gradientUnits="userSpaceOnUse" x1="3181.0132" y1="2608.908" x2="3114.9324" y2="2707.2231" gradientTransform="matrix(-1 0 0 1 4073.8638 0)">
					<stop  offset="0" style="stop-color:#893976"/>
					<stop  offset="1" style="stop-color:#311944"/>
				</linearGradient>
				<path style="fill:url(#SVGID_00000100345526721618160180000006899924700515453375_);" d="M1164.354,2975.412
					c-9.67,1.073-19.341,2.15-29.011,3.223c-13.061-14.477-32.559-39.72-42.98-75.213c-20.09-68.429,9.005-117.741-9.67-130.015
					c-26.434-17.37-83.724,82.635-175.682,80.067c-37.73-1.054-86.978-19.532-105.906-59.775
					c-2.858-6.076-16.893-37.879-3.224-67.693c14.112-30.783,84.122-44.178,223.566-69.716
					c59.856-10.961,90.081-16.429,102.226-10.631C1209.738,2686.746,1173.848,2919.064,1164.354,2975.412z"/>
				
					<linearGradient id="SVGID_00000072973774985795315230000017144786833330093707_" gradientUnits="userSpaceOnUse" x1="2761.8428" y1="2825.3823" x2="3236.0815" y2="2825.3823" gradientTransform="matrix(-1 0 0 1 4073.8638 0)">
					<stop  offset="0" style="stop-color:#893976"/>
					<stop  offset="1" style="stop-color:#311944"/>
				</linearGradient>
				<path style="fill:url(#SVGID_00000072973774985795315230000017144786833330093707_);" d="M1312.006,2975.824
					c-10.003,1.741-20.005,3.482-30.008,5.222c-12.149-17.896-30.538-45.934-51.1-81.512c-42.863-74.164-42.08-89.227-61.889-98.775
					c-41.925-20.203-73.602,34.378-177.29,49.428c-33.918,4.924-109.216,15.856-139.683-24.714
					c-12.351-16.448-19.445-44.168-9.67-67.692c17.524-42.172,75.245-37.107,265.398-74.139
					c74.155-14.442,84.264-17.017,102.226-10.63C1310.305,2708.683,1312.26,2927.107,1312.006,2975.824z"/>
				
					<linearGradient id="SVGID_00000016075538408618721180000016880224148171888557_" gradientUnits="userSpaceOnUse" x1="3015.4324" y1="2469.4897" x2="3226.5178" y2="2671.0525" gradientTransform="matrix(-1 0 0 1 4073.8638 0)">
					<stop  offset="0" style="stop-color:#FF9085"/>
					<stop  offset="1" style="stop-color:#FB6FBB"/>
				</linearGradient>
				<path style="fill:url(#SVGID_00000016075538408618721180000016880224148171888557_);" d="M1104.267,2395.051
					c-9.871-24.141-31.061-38.024-42.048-45.223c-5.499-3.604-10.579-6.305-15.738-8.412
					c-39.791-16.246-79.519-15.128-86.607-14.596c-17.185,1.287-59.63,4.464-91.077,31.712
					c-15.221,13.189-27.388,31.602-45.128,135.385c-24.741,144.741-4.661,129.905-24.176,188.572
					c-10.326,31.045-26.415,66.663-9.399,89.41c5.496,7.347,13.348,9.456,29.355,16.659
					c59.793,26.905,113.402,22.268,145.979,19.042c35.847-3.551,53.964-5.581,63.469-18.248
					c15.183-20.232-0.446-45.944-3.173-90.443c-1.958-31.948,5.306-57.267,19.834-107.897
					C1079.332,2473.302,1123.18,2441.297,1104.267,2395.051z"/>
				
					<linearGradient id="SVGID_00000105390466539209433370000011904997314969570440_" gradientUnits="userSpaceOnUse" x1="2763.0181" y1="2532.8562" x2="2758.2063" y2="2554.8232" gradientTransform="matrix(-1 0 0 1 4073.8638 0)">
					<stop  offset="0" style="stop-color:#FFC444"/>
					<stop  offset="0.9964" style="stop-color:#F36F56"/>
				</linearGradient>
				<path style="fill:url(#SVGID_00000105390466539209433370000011904997314969570440_);" d="M1272.743,2539.181l38.206-7.348
					c2.745-0.528,5.562-0.556,8.317-0.082l33.049,5.683c0,0-21.489,8.644-39.756,5.934c-18.266-2.71-38.221,7.566-38.221,7.566
					L1272.743,2539.181z"/>
				<g>
					<g>
						
							<linearGradient id="SVGID_00000063605562636008813970000002793008401987383722_" gradientUnits="userSpaceOnUse" x1="6405.5557" y1="1562.9707" x2="6537.2017" y2="1728.5981" gradientTransform="matrix(-0.9663 0.2576 0.2576 0.9663 6818.2046 -923.8408)">
							<stop  offset="0" style="stop-color:#FFC444"/>
							<stop  offset="0.9964" style="stop-color:#F36F56"/>
						</linearGradient>
						<path style="fill:url(#SVGID_00000063605562636008813970000002793008401987383722_);" d="M1019.751,2300.063
							c6.425-9.708-3.193-28.385-6.997-35.772c-0.131-0.255-0.299-0.589-0.657-1.25c-5.844-10.782-7.341-12.255-10.129-14.122
							l-3.876-2.393c0,0-0.225-0.088-0.461-0.173c-2.487-0.885-10.965-1.143-12.682-0.774c-5.486,1.171-11.328,23.521-9.661,55.12
							c-0.227,1.206-0.447,2.421-0.659,3.645c-0.864,4.99-1.55,9.881-2.081,14.663c-0.508,4.574-6.994,4.47-11.588,4.177
							c-18.644-1.19-27.768,0.397-28.561,3.173c-1.487,5.204,20.628,22.215,47.934,26.04c36.647,0.274,66.458-3.629,63.254-9.4
							c-1.423-2.562-29.817-9.982-37.803-17.335c-7.312-6.733-6.716-13.684-7.318-18.66
							C1002.246,2307.202,1014.851,2307.467,1019.751,2300.063z"/>
						<path style="fill:#26264F;" d="M1009.463,2237.552c3.013,6.645-4.297,19.989-6.996,21.925
							c-0.303,0.217-2.011,1.564-3.546,3.872c-0.209,0.314-0.393,0.683-0.558,1.158c-2.145,6.17,7.664,13.429,5.771,16.19
							c-1.373,2.005-8.04-0.674-8.833,1.054c-0.747,1.631,4.794,5.002,3.945,6.951c-0.64,1.473-4.05,0.126-6.2,2.383
							c-1.662,1.744-1.855,4.215-1.893,5.449c-0.266,8.77,19.622,40.445,23.765,54.736c4.395,15.157-3.466,29.584-32.018,69.449
							c-40.614,56.706-60.921,85.06-72.211,93.165c-55.178,39.61-120.061,34.756-146.667,30.623
							c-31.964-4.964-98-15.223-119.268-66.081c-24.446-58.46,23.684-138.457,73.065-152.041
							c22.582-6.211,34.605,3.223,63.932-6.982c32.389-11.273,28.465-31.202,58.453-42.972c39.995-15.699,65.802,12.365,93.05-8.068
							c14.828-11.121,12.383-23.329,30.623-32.234C981.872,2227.343,1005.513,2228.841,1009.463,2237.552z"/>
						
							<linearGradient id="SVGID_00000135658646823357950230000017064014763073059972_" gradientUnits="userSpaceOnUse" x1="6411.8574" y1="1554.6354" x2="6558.8398" y2="1739.558" gradientTransform="matrix(-0.9663 0.2576 0.2576 0.9663 6818.2046 -923.8408)">
							<stop  offset="0" style="stop-color:#FFC444"/>
							<stop  offset="0.9964" style="stop-color:#F36F56"/>
						</linearGradient>
						<path style="fill:url(#SVGID_00000135658646823357950230000017064014763073059972_);" d="M1000.616,2278.397
							c-2.4-3.297-6.616-0.199-6.64,4.066c-0.025,4.265,4.108,8.7,8.118,7.858
							C1006.104,2289.479,1003.845,2282.834,1000.616,2278.397z"/>
					</g>
				</g>
				
					<linearGradient id="SVGID_00000173162150498235187750000012674913472672883335_" gradientUnits="userSpaceOnUse" x1="2957.6726" y1="2529.9473" x2="3168.7075" y2="2731.4617" gradientTransform="matrix(-1 0 0 1 4073.8638 0)">
					<stop  offset="0" style="stop-color:#FF9085"/>
					<stop  offset="1" style="stop-color:#FB6FBB"/>
				</linearGradient>
				<path style="opacity:0.3;fill:url(#SVGID_00000173162150498235187750000012674913472672883335_);" d="M934.487,2765.551
					c10.546-20.999-15.296-48.911,1.587-80.923c14.338-27.188,40.386-21.097,52.362-46.015
					c14.465-30.097-16.994-52.591-15.867-98.377c1.347-54.736,48.445-109.529,76.163-104.724
					c17.934,3.109,20.238,29.863,32.855,59.153c-11.165,24.483-24.21,55.156-36.029,96.346
					c-14.528,50.633-21.792,75.949-19.834,107.897c2.727,44.5,18.356,70.213,3.173,90.444
					c-9.505,12.665-27.622,14.698-63.469,18.247c-32.577,3.225-86.186,7.863-145.979-19.041c-7.568-3.406-13.235-5.956-17.856-8.473
					C895.008,2794.115,926.122,2782.207,934.487,2765.551z"/>
				
					<linearGradient id="SVGID_00000175308822083094086190000016586531929035559317_" gradientUnits="userSpaceOnUse" x1="2967.1602" y1="2506.3086" x2="3206.561" y2="2734.9092" gradientTransform="matrix(-1 0 0 1 4073.8638 0)">
					<stop  offset="0" style="stop-color:#FF9085"/>
					<stop  offset="1" style="stop-color:#FB6FBB"/>
				</linearGradient>
				<path style="fill:url(#SVGID_00000175308822083094086190000016586531929035559317_);" d="M1282.474,2550.328
					c-1.083-4.876-2.167-9.749-3.25-14.625c-73.404,13.158-105.502-1.612-121.008-18.872c-14.232-15.841-8.164-24.025-30.941-84.493
					c-21.695-57.594-46.31-72.396-58.709-77.75c-6.926-2.991-11.707-4.974-17.454-3.57c-26.445,6.463-35.188,75.377-27.768,126.939
					c4.18,29.049,12.378,86.013,59.106,113.054c0.859,0.497,2.219,1.284,4.015,2.244c5.884,3.148,29.267,14.392,75.321,6.085
					C1216.087,2589.545,1269.063,2558.425,1282.474,2550.328z"/>
			</g>
			<g>
				<ellipse style="fill:#B7C0CE;" cx="935.505" cy="3056.914" rx="127.23" ry="51.926"/>
				
					<linearGradient id="SVGID_00000028283289933271819030000016896030915069656464_" gradientUnits="userSpaceOnUse" x1="3011.1289" y1="3039.6501" x2="3265.5884" y2="3039.6501" gradientTransform="matrix(-1 0 0 1 4073.8638 0)">
					<stop  offset="0" style="stop-color:#AA80F9"/>
					<stop  offset="0.9964" style="stop-color:#6165D7"/>
				</linearGradient>
				<path style="fill:url(#SVGID_00000028283289933271819030000016896030915069656464_);" d="M808.275,3050.824
					c0,27.071,56.962,49.017,127.229,49.017c70.268,0,127.23-21.946,127.23-49.017c0-27.07-56.962-71.365-127.23-71.365
					C865.238,2979.459,808.275,3023.754,808.275,3050.824z"/>
				
					<linearGradient id="SVGID_00000066492852854992214240000013341812528477614011_" gradientUnits="userSpaceOnUse" x1="3126.1052" y1="3027.1685" x2="3339.9177" y2="3027.1685" gradientTransform="matrix(-1 0 0 1 4148.1929 0)">
					<stop  offset="0" style="stop-color:#AA80F9"/>
					<stop  offset="0.9964" style="stop-color:#6165D7"/>
				</linearGradient>
				<path style="opacity:0.3;fill:url(#SVGID_00000066492852854992214240000013341812528477614011_);" d="M808.275,3050.824
					c0-27.071,56.962-71.365,127.229-71.365c32.444,0,62.036,9.453,84.51,22.283c1.573,3.296,2.306,6.572,2.008,9.684
					c-1.459,15.231-26.3,24.595-40.559,27.682c-35.908,7.778-53.443-13.695-83.049-12.876c-18.304,0.506-43.669,9.701-73.755,48.645
					C814.245,3067.771,808.275,3059.569,808.275,3050.824z"/>
				<path style="fill:#FFFFFF;" d="M928.536,3004.048c5.083,1.265,9.827,1.215,14.289,0.081c4.047-1.027,6.826-4.772,6.826-8.949
					l0-143.463h-28.291v143.294C921.359,2999.315,924.359,3003.008,928.536,3004.048z"/>
				
					<linearGradient id="SVGID_00000023255300917246190730000018294109101557377703_" gradientUnits="userSpaceOnUse" x1="3198.542" y1="2928.3528" x2="3226.8337" y2="2928.3528" gradientTransform="matrix(-1 0 0 1 4148.1929 0)">
					<stop  offset="0" style="stop-color:#AA80F9"/>
					<stop  offset="0.9964" style="stop-color:#6165D7"/>
				</linearGradient>
				<path style="opacity:0.65;fill:url(#SVGID_00000023255300917246190730000018294109101557377703_);" d="M928.536,3004.048
					c5.083,1.265,9.827,1.215,14.289,0.081c4.047-1.027,6.826-4.772,6.826-8.949l0-143.463h-28.291v143.294
					C921.359,2999.315,924.359,3003.008,928.536,3004.048z"/>
				<g>
					
						<linearGradient id="SVGID_00000003819637990220277630000004249369770469242047_" gradientUnits="userSpaceOnUse" x1="3353.1328" y1="2898.2683" x2="3301.2627" y2="2830.6799" gradientTransform="matrix(-1 0 0 1 4148.1929 0)">
						<stop  offset="0" style="stop-color:#311944"/>
						<stop  offset="1" style="stop-color:#893976"/>
					</linearGradient>
					<path style="fill:url(#SVGID_00000003819637990220277630000004249369770469242047_);" d="M1084.993,2791.34l-43.22-27.322
						c-1.798-10.206-22.171-116.977-104.879-150.505c-33.634-13.634-69.831-12.017-89.695-11.129
						c-39.654,1.771-67.939,3.034-81.542,21.95c-17.469,24.288,11.83,46.315,5.763,115.79c-2.474,28.332-8.765,40.915-0.929,59.684
						c9.388,22.483,31.157,34.946,48.084,41.961c20.234,11.75,55.463,28.493,101.993,32.57
						c78.377,6.869,136.89-26.752,157.012-39.616c8.948-2.821,15.671-10.262,17.573-19.448
						C1097.081,2805.959,1093.034,2796.422,1084.993,2791.34z"/>
				</g>
				<path style="opacity:0.26;fill:#FFFFFF;" d="M1065.12,2810.795c-1.598-9.607-28.374-1.643-53.702-20.458
					c-37.861-28.124-18.211-75.765-51.145-121.468c-30.225-41.942-91.072-63.289-109.961-47.309
					c-25.143,21.272,36.393,100.823,0,152.155c-17.678,24.936-44.612,23.734-44.751,38.358
					c-0.22,23.11,66.815,49.754,130.419,48.587C1004.359,2859.407,1067.656,2826.043,1065.12,2810.795z"/>
			</g>
		</g>
		<g>
			
				<linearGradient id="SVGID_00000005259563321781212070000001477797090329692306_" gradientUnits="userSpaceOnUse" x1="6519.5425" y1="3926.9934" x2="6553.3296" y2="3957.0474" gradientTransform="matrix(-0.9902 -0.14 -0.14 0.9902 8522.9238 206.9384)">
				<stop  offset="0" style="stop-color:#444B8C"/>
				<stop  offset="0.9964" style="stop-color:#26264F"/>
			</linearGradient>
			<path style="fill:url(#SVGID_00000005259563321781212070000001477797090329692306_);" d="M1507.993,3197.998
				c-0.962-5.297-18.067-10.091-26.536-2.996c-4.206,3.523-7.102,10.663-4.669,13.888c0.885,1.173-2.741,3.237,0.734,3.277
				C1489.044,3212.301,1508.95,3203.262,1507.993,3197.998z"/>
			<path style="fill:#D8DEE8;" d="M1489.288,3198.026l-17.745,0.885c6.148-11.176-1.244-41.576-1.244-41.576l19.161,0.563
				c0,0-0.472,8.825-1.639,21.935C1487.421,3184.321,1488.158,3191.081,1489.288,3198.026z"/>
			
				<linearGradient id="SVGID_00000176752205334591102220000005716041069083873445_" gradientUnits="userSpaceOnUse" x1="6522.9395" y1="3923.1758" x2="6556.7266" y2="3953.2292" gradientTransform="matrix(-0.9902 -0.14 -0.14 0.9902 8522.9238 206.9384)">
				<stop  offset="0" style="stop-color:#444B8C"/>
				<stop  offset="0.9964" style="stop-color:#26264F"/>
			</linearGradient>
			<path style="fill:url(#SVGID_00000176752205334591102220000005716041069083873445_);" d="M1491.624,3197.759
				c0,0-21.179-4.88-23.47-0.679c-2.292,4.202-4.07,15.45,9.367,15.087C1490.959,3211.805,1492.818,3201.321,1491.624,3197.759z"/>
			
				<linearGradient id="SVGID_00000160186684008288199680000004440167083383585681_" gradientUnits="userSpaceOnUse" x1="6680.2041" y1="3219.9502" x2="6713.9922" y2="3250.0051" gradientTransform="matrix(-1 0 0 1 8420.0811 0)">
				<stop  offset="0" style="stop-color:#444B8C"/>
				<stop  offset="0.9964" style="stop-color:#26264F"/>
			</linearGradient>
			<path style="fill:url(#SVGID_00000160186684008288199680000004440167083383585681_);" d="M1732.611,3236.417
				c-1.694-5.109-19.302-7.463-26.695,0.747c-3.67,4.076-5.539,11.552-2.678,14.404c1.041,1.039-2.26,3.59,1.185,3.143
				C1715.85,3253.232,1734.294,3241.494,1732.611,3236.417z"/>
			<path style="fill:#D8DEE8;" d="M1711.803,3241.339l-17.434,3.421c4.481-11.943-7.196-40.967-7.196-40.967l19.043-2.193
				c0,0,0.8,8.802,1.524,21.944C1707.989,3228.042,1709.688,3234.627,1711.803,3241.339z"/>
			
				<linearGradient id="SVGID_00000020378458388396879490000006256568428884395939_" gradientUnits="userSpaceOnUse" x1="6683.6006" y1="3216.1321" x2="6717.3887" y2="3246.187" gradientTransform="matrix(-1 0 0 1 8420.0811 0)">
				<stop  offset="0" style="stop-color:#444B8C"/>
				<stop  offset="0.9964" style="stop-color:#26264F"/>
			</linearGradient>
			<path style="fill:url(#SVGID_00000020378458388396879490000006256568428884395939_);" d="M1716.37,3238.471
				c0,0-21.654-1.867-23.334,2.614c-1.68,4.479-1.867,15.866,11.387,13.626C1717.677,3252.472,1718.05,3241.831,1716.37,3238.471z"
				/>
			
				<linearGradient id="SVGID_00000063635649532923372510000000802628084479682178_" gradientUnits="userSpaceOnUse" x1="4254.8013" y1="2894.7166" x2="4394.4165" y2="2894.7166" gradientTransform="matrix(-1 0 0 1 5811.0015 0)">
				<stop  offset="0" style="stop-color:#311944"/>
				<stop  offset="1" style="stop-color:#6B3976"/>
			</linearGradient>
			<path style="fill:url(#SVGID_00000063635649532923372510000000802628084479682178_);" d="M1556.2,2627.693
				c-4.749,81.188-11.398,165.613-20.353,252.983c-10.375,101.219-22.98,197.933-37.114,289.85c-17.422,5.975-33.523,0-33.523,0
				s-20.371-33.365-35.917-122.042c-9.974-56.898-10.663-56.181-10.775-66.106c-0.564-50.075,17.003-64.572,20.353-109.33
				c3.099-41.41-10.083-53.812-17.958-100.43c-6.056-35.848-8.327-88.089,10.775-156.366
				C1473.192,2620.065,1514.696,2623.879,1556.2,2627.693z"/>
			
				<linearGradient id="SVGID_00000088114565674303343500000013775181376463463602_" gradientUnits="userSpaceOnUse" x1="4254.8013" y1="2894.7166" x2="4383.0449" y2="2894.7166" gradientTransform="matrix(-1 0 0 1 5811.0015 0)">
				<stop  offset="0" style="stop-color:#311944"/>
				<stop  offset="1" style="stop-color:#6B3976"/>
			</linearGradient>
			<path style="opacity:0.3;fill:url(#SVGID_00000088114565674303343500000013775181376463463602_);" d="M1556.2,2627.693
				c-4.749,81.187-11.398,165.613-20.353,252.983c-10.375,101.219-22.98,197.933-37.114,289.85c-17.422,5.975-33.522,0-33.522,0
				c0.221-8.509,0.815-21.328,2.592-36.815c4.713-41.077,12.224-52.765,12.995-77.972c0.986-32.237-10.686-33.229-12.995-64.976
				c-3.579-49.207,23.44-60.876,25.99-103.962c2.695-45.525-25.81-60.506-47.649-116.957
				c-12.891-33.324-24.334-83.355-14.456-153.593C1473.192,2620.065,1514.695,2623.879,1556.2,2627.693z"/>
			
				<linearGradient id="SVGID_00000072282076760282503120000017761703662611363466_" gradientUnits="userSpaceOnUse" x1="4513.0732" y1="2990.2722" x2="4128.9927" y2="2920.9646" gradientTransform="matrix(-1 0 0 1 5811.0015 0)">
				<stop  offset="0" style="stop-color:#311944"/>
				<stop  offset="0.7407" style="stop-color:#5C3169"/>
				<stop  offset="1" style="stop-color:#6B3976"/>
			</linearGradient>
			<path style="fill:url(#SVGID_00000072282076760282503120000017761703662611363466_);" d="M1643.598,2625.15
				c23.855,80.358,46.974,180.172,59.861,296.206c12.507,112.613,12.28,212.622,7.183,294.935
				c-7.583,2.119-15.165,4.237-22.747,6.356c-44.091-46.131-59.833-88.531-65.848-119.5c-8.898-45.809,4.51-61.342-7.183-113.143
				c-2.69-11.916-6.474-24.715-50.283-110.6c-41.813-81.971-50.386-93.876-57.467-123.313
				c-10.109-42.019-7.442-79.283-3.592-104.245C1550.213,2642.949,1596.905,2634.049,1643.598,2625.15z"/>
			<g>
				<path style="fill:#26264F;" d="M1831.611,2451.468l74.819-175.262c3.738-8.757-1.281-18.774-10.533-21.021l-137.053-33.284
					c-7.407-1.799-15.016,2.09-17.898,9.146l-68.818,168.449c-3.427,8.388,1.09,17.908,9.755,20.559l131.051,40.098
					C1820.464,2462.456,1828.519,2458.711,1831.611,2451.468z"/>
				<path style="fill:#FFFFFF;" d="M1828.225,2443.039l69.887-163.708c3.491-8.179-1.198-17.536-9.84-19.635l-128.017-31.09
					c-6.918-1.68-14.026,1.951-16.718,8.542l-64.281,157.344c-3.201,7.835,1.018,16.728,9.112,19.204l122.411,37.454
					C1817.812,2453.302,1825.336,2449.804,1828.225,2443.039z"/>
			</g>
			
				<linearGradient id="SVGID_00000007426098373676273180000017951892666182836406_" gradientUnits="userSpaceOnUse" x1="1858.0133" y1="2356.9768" x2="1887.9813" y2="2356.9768">
				<stop  offset="0" style="stop-color:#FFC444"/>
				<stop  offset="0.6366" style="stop-color:#F78E50"/>
				<stop  offset="0.9964" style="stop-color:#F36F56"/>
			</linearGradient>
			<path style="fill:url(#SVGID_00000007426098373676273180000017951892666182836406_);" d="M1871.37,2394.914l2.245-20.652
				l11.899-22.684c1.621-3.089,2.467-6.525,2.467-10.014v-22.525l-14.366,33.223c0,0-9.429-8.531-13.02-10.326
				c-3.592-1.796-3.143,5.388-0.449,8.082c2.694,2.693-1.347,24.692,1.347,26.938l-0.898,13.469L1871.37,2394.914z"/>
			
				<linearGradient id="SVGID_00000074443143084992801120000008008491551260666036_" gradientUnits="userSpaceOnUse" x1="4048.5022" y1="2449.6272" x2="4438.0391" y2="2449.6272" gradientTransform="matrix(-1 0 0 1 5811.0015 0)">
				<stop  offset="0" style="stop-color:#AA80F9"/>
				<stop  offset="0.9964" style="stop-color:#6165D7"/>
			</linearGradient>
			<path style="fill:url(#SVGID_00000074443143084992801120000008008491551260666036_);" d="M1757.334,2263.368
				c-11.172-27.32-35.154-43.033-47.59-51.181c-29.424-19.279-48.261-15.76-115.832-26.04
				c-90.052-13.702-100.831-26.685-131.096-16.163c-39.756,13.821-60.522,49.909-70.038,66.447
				c-47.974,83.373,8.115,125.748-6.286,291.824c-5.881,67.826-20.96,126.767,15.265,161.625
				c7.627,7.34,16.159,11.178,33.223,18.856c67.673,30.449,128.348,25.2,165.218,21.55c40.57-4.017,61.076-6.318,71.834-20.652
				c17.183-22.897-0.505-51.999-3.592-102.363c-2.216-36.159,6.005-64.812,22.448-122.117
				C1729.113,2351.932,1778.74,2315.712,1757.334,2263.368z"/>
			<g>
				<g>
					<path style="fill:#FFFFFF;" d="M1606.601,2137.003c4.1-14.606-3.068-28.132-4.648-31.047
						c-6.614-12.202-8.309-13.869-11.464-15.982l-4.387-2.706c0,0-0.254-0.102-0.522-0.198c-2.815-1.002-12.41-1.293-14.354-0.878
						c-6.209,1.325-12.821,26.622-10.934,62.386c-0.258,1.363-0.506,2.738-0.746,4.124c-0.978,5.648-1.755,11.184-2.355,16.596
						c-0.575,5.177-7.916,5.059-13.115,4.727c-21.101-1.347-31.427,0.449-32.325,3.591c-1.682,5.889,23.346,25.142,54.251,29.474
						c41.477,0.308,75.217-4.108,71.59-10.639c-1.61-2.9-33.747-11.297-42.785-19.62c-8.275-7.622-7.601-15.489-8.282-21.122
						C1589.036,2154.407,1603.584,2147.763,1606.601,2137.003z"/>
					<path style="fill:#26264F;" d="M1598.973,2077.108c-0.037,11.08-5.258,22.913-7.918,24.814
						c-0.343,0.246-2.276,1.773-4.013,4.384c-0.237,0.355-0.445,0.771-0.631,1.31c-2.427,6.982,8.674,15.199,6.532,18.325
						c-1.554,2.268-9.1-0.765-9.997,1.194c-0.845,1.843,5.425,5.659,4.465,7.866c-0.724,1.667-4.583,0.142-7.017,2.695
						c-1.213,1.272-0.857,2.279-2.143,6.167c-0.727,2.198-1.743,4.603-2.531,5.942c-3.829,6.506-14.674,8.882-16.761,6.279
						c-0.581-0.726-0.082-1.336-0.675-3.771c0,0-0.55-2.256-2.12-4.865c-2.243-3.728-7.659-6.394-13.123-10.328
						c-10.119-7.287-12.87-13.499-13.695-15.597c-0.294-0.748-0.476-1.312-0.608-1.718c-2.631-8.167-2.643-20.163,1.028-27.54
						c6.15-12.357,20.026-6.49,31.381-18.735c13.104-14.127,5.299-33.437,12.41-35.57
						C1581.395,2035.608,1599.041,2056.621,1598.973,2077.108z"/>
					<path style="fill:#FFFFFF;" d="M1588.96,2123.337c-2.716-3.731-7.487-0.225-7.515,4.603c-0.029,4.827,4.65,9.847,9.188,8.894
						C1595.171,2135.88,1592.614,2128.36,1588.96,2123.337z"/>
				</g>
				<path style="fill:#26264F;" d="M1586.757,2115.26l6.3,8.196c0,0,6.792,10.041,10.757,4.54c3.239-4.495,4.079-4.395,4.277-4.206
					c0.037,0.036,0.048,0.09,0.057,0.087c0.057-0.015-0.475-2.237-0.953-4.19c1.677,2.407,3.988,6.313,5.388,11.568
					c1.359,5.104,2.817,10.568-0.063,15.818c-0.166,0.303-3.339,5.89-9.262,7.242c0,0-2.329,0.531-12.171-1.198
					c0,0,10.757-7.806,10.922-9.66c0.446-5.042-6.547-7.767-11.74-18.105C1588.268,2121.364,1587.281,2117.748,1586.757,2115.26z"/>
			</g>
			
				<linearGradient id="SVGID_00000135668152240097236510000002330185307673512074_" gradientUnits="userSpaceOnUse" x1="4040.1716" y1="2416.0437" x2="4279.019" y2="2644.1157" gradientTransform="matrix(-1 0 0 1 5811.0015 0)">
				<stop  offset="0" style="stop-color:#AA80F9"/>
				<stop  offset="0.9964" style="stop-color:#6165D7"/>
			</linearGradient>
			<path style="opacity:0.3;fill:url(#SVGID_00000135668152240097236510000002330185307673512074_);" d="M1565.179,2682.698
				c11.936-23.766-17.312-55.357,1.796-91.588c16.228-30.771,45.708-23.877,59.262-52.079
				c16.371-34.063-19.234-59.521-17.958-111.342c1.524-61.95,54.829-123.964,86.2-118.525c20.297,3.518,22.905,33.799,37.186,66.949
				c-12.636,27.709-27.401,62.425-40.777,109.043c-16.443,57.305-24.664,85.958-22.448,122.117
				c3.086,50.365,20.775,79.466,3.592,102.363c-10.758,14.334-31.263,16.635-71.834,20.652c-36.87,3.65-97.545,8.899-165.218-21.55
				c-8.566-3.854-14.978-6.741-20.209-9.589C1520.497,2715.026,1555.712,2701.549,1565.179,2682.698z"/>
			
				<linearGradient id="SVGID_00000054959837615921168380000012471307292710643642_" gradientUnits="userSpaceOnUse" x1="3935.2029" y1="2357.3689" x2="4148.126" y2="2357.3689" gradientTransform="matrix(-1 0 0 1 5811.0015 0)">
				<stop  offset="0" style="stop-color:#AA80F9"/>
				<stop  offset="0.9964" style="stop-color:#6165D7"/>
			</linearGradient>
			<path style="fill:url(#SVGID_00000054959837615921168380000012471307292710643642_);" d="M1875.41,2390.873
				c-6.584-2.843-13.169-5.687-19.754-8.53c-11.129,11.382-25.323,22.449-37.264,18.856c-17.798-5.356-13.348-38.099-35.019-95.628
				c-24.554-65.183-52.413-81.938-66.446-87.996c-7.838-3.384-13.25-5.631-19.754-4.041c-29.93,7.316-39.825,85.31-31.427,143.667
				c4.732,32.88,14.009,97.351,66.895,127.954c7.513,4.348,48.866,28.277,89.792,9.428
				C1857.396,2478.481,1879,2437.168,1875.41,2390.873z"/>
		</g>
	</g>
</g>
</svg>
