<?xml version="1.0" encoding="utf-8"?>
<!-- Generator: Adobe Illustrator 27.5.0, SVG Export Plug-In . SVG Version: 6.00 Build 0)  -->
<svg version="1.1" xmlns="http://www.w3.org/2000/svg" xmlns:xlink="http://www.w3.org/1999/xlink" x="0px" y="0px"
	 viewBox="0 0 3710 3710" style="enable-background:new 0 0 3710 3710;" xml:space="preserve">
<g id="Background">
	<g>
		<g>
			<rect style="fill:#FFFFFF;" width="3710" height="3710"/>
		</g>
	</g>
</g>
<g id="Illustration">
	<g>
		<path style="fill:#F4F7FA;" d="M2558.582,619.673c94.781,135.685-16.352,355.664,124.287,457.71
			c136.902,99.335,305.082-63.488,434.103,22.019c191.396,126.844,156.444,707.259-123.387,1067.882
			c-84.155,108.452-154.471,150.649-185.613,273.302c-66.873,263.369,168.151,420.038,123.426,550.295
			c-100.704,293.294-1649.454,539.401-2270.882-342.042c-290.232-411.671-333.657-1006.127-74.344-1457.619
			C1054.747,375.382,2345.908,315.221,2558.582,619.673z"/>
		<g>
			<path style="fill:#AABBCC;" d="M3001.202,1505.016c36.674,18.62,82.749,1.524,102.912-38.188
				c20.162-39.711,6.775-86.998-29.899-105.618c-1.901-0.965-3.839-1.776-5.785-2.551c6.814-21.974,11.951-44.12,15.397-66.273
				c2.102-0.007,4.212-0.041,6.355-0.234c41.842-3.729,75.051-42.178,74.174-85.88c-0.875-43.702-35.506-76.105-77.348-72.375
				c-2.187,0.196-4.335,0.541-6.47,0.921c-4.371-21.657-10.359-42.812-17.914-63.288c1.924-1.126,3.839-2.29,5.709-3.601
				c35.798-25.079,47.244-74.58,25.563-110.562c-21.679-35.98-68.275-44.817-104.073-19.738c-1.833,1.287-3.56,2.674-5.265,4.083
				c-14.139-15.63-29.647-30.115-46.426-43.335c1.179-1.934,2.334-3.895,3.379-5.951c20.163-39.711,46.509-83.09,9.548-101.134
				c-85.504-41.74-122.196-6.008-142.358,33.703c-1.044,2.057-1.945,4.145-2.81,6.239c-20.574-5.744-41.419-9.716-62.381-11.908
				c0.13-2.208,0.232-4.419,0.187-6.66c-0.876-43.7,12.09-67.349-29.91-68.166c-91.589-1.78-122.49,37.973-121.613,81.672
				c0.045,2.285,0.236,4.518,0.463,6.736c-20.989,5.983-41.602,13.632-61.666,22.883c-0.954-1.948-1.943-3.886-3.075-5.767
				c-21.679-35.982-68.275-44.818-104.074-19.737c-35.798,25.082-47.243,74.581-25.563,110.562c1.111,1.844,2.327,3.567,3.563,5.269
				c-15.854,15.854-30.699,33.069-44.419,51.538c-1.774-1.113-3.573-2.201-5.472-3.165c-36.674-18.622-82.75-1.523-102.913,38.188
				c-20.162,39.71-6.775,86.998,29.899,105.619c1.901,0.965,3.84,1.775,5.785,2.552c-6.814,21.973-11.951,44.118-15.396,66.273
				c-2.102,0.006-4.212,0.041-6.354,0.23c-41.843,3.731-75.052,42.18-74.176,85.883c0.876,43.701,35.508,76.103,77.35,72.373
				c2.185-0.194,4.333-0.538,6.469-0.918c4.371,21.658,10.359,42.812,17.913,63.288c-1.924,1.126-3.839,2.29-5.71,3.601
				c-35.798,25.079-47.243,74.58-25.563,110.562c21.679,35.981,93.454,52.697,129.252,27.618
				c1.835-1.286-21.619-10.553-19.914-11.962c14.141,15.63,29.647,30.115,46.426,43.335c-1.179,1.934-2.335,3.894-3.379,5.951
				c-20.163,39.711-6.776,86.999,29.898,105.619c36.674,18.62,82.75,1.524,102.912-38.188c1.044-2.057,1.944-4.147,2.81-6.239
				c20.573,5.744,41.418,9.716,62.381,11.908c-0.13,2.207-0.232,4.419-0.187,6.66c0.876,43.7,35.506,76.104,77.348,72.374
				c41.842-3.73,75.052-42.181,74.175-85.881c-0.045-2.284-0.236-4.516-0.463-6.735c20.989-5.983,41.603-13.632,61.666-22.884
				c0.952,1.95,1.943,3.887,3.077,5.766c21.679,35.982,68.273,44.821,104.073,19.739c35.799-25.081,47.244-74.58,25.564-110.563
				c-1.112-1.841-2.329-3.565-3.564-5.266c15.853-15.855,30.7-33.07,44.419-51.539
				C2997.503,1502.964,2999.302,1504.051,3001.202,1505.016z M2544.018,1510.817c-133.157-67.607-181.76-239.294-108.554-383.476
				c73.205-144.183,240.493-206.259,373.651-138.652c133.156,67.608,181.759,239.295,108.554,383.477
				C2844.463,1516.348,2677.175,1578.424,2544.018,1510.817z"/>
			<path style="fill:#AABBCC;" d="M3090.183,1292.154c41.842-3.731,75.051-42.181,74.174-85.881
				c-0.875-43.701-35.506-76.106-77.348-72.375c-2.187,0.195-4.335,0.541-6.47,0.919c-4.37-21.658-10.359-42.811-17.914-63.287
				c1.924-1.125,3.839-2.29,5.709-3.602c35.798-25.079,80.087-85.679,54.83-119.246c-47.934-63.709-97.542-36.132-133.34-11.054
				c-1.833,1.287-3.56,2.673-5.265,4.082c-14.139-15.63-29.647-30.114-46.426-43.335c1.179-1.934,2.334-3.893,3.379-5.95
				c10.973-21.612,11.942-45.44,4.695-65.698c-34.577,60.857-68.688,121.969-102.189,183.414
				c106.229,77.842,140.05,231.243,73.649,362.025c-56.269,110.825-168.117,173.054-277.331,165.256
				c-4.872,12.635-9.656,25.337-14.872,37.85c-14.157,33.955-30.24,67.213-46.343,100.426c10.126,1.909,20.299,3.413,30.5,4.48
				c-0.132,2.208-0.234,4.421-0.188,6.66c0.876,43.701,27.408,80.831,103.241,76.809c41.949-2.225,49.159-46.615,48.282-90.316
				c-0.045-2.283-0.236-4.516-0.462-6.734c20.988-5.983,41.602-13.634,61.665-22.884c0.952,1.95,1.943,3.887,3.077,5.766
				c21.679,35.983,96.889,51.271,132.687,26.189c35.8-25.081,18.628-81.031-3.05-117.014c-1.112-1.843-2.329-3.567-3.564-5.267
				c15.853-15.854,30.7-33.07,44.419-51.537c1.774,1.115,3.573,2.201,5.473,3.164c36.674,18.623,82.749,1.524,102.912-38.188
				c20.162-39.709,6.775-86.998-29.899-105.618c-1.901-0.965-3.839-1.775-5.785-2.55c6.814-21.974,11.951-44.12,15.397-66.272
				C3085.929,1292.379,3088.039,1292.344,3090.183,1292.154z"/>
			<path style="fill:#D8DEE8;" d="M3040.648,1509.502c36.674,18.62,82.75,1.523,102.912-38.188
				c20.161-39.711,6.776-86.998-29.899-105.618c-1.9-0.965-3.839-1.776-5.784-2.551c6.813-21.974,11.952-44.12,15.396-66.273
				c2.103-0.007,4.211-0.041,6.355-0.234c41.842-3.729,75.051-42.179,74.176-85.88c-0.876-43.702-35.506-76.106-77.349-72.375
				c-2.188,0.197-4.335,0.541-6.471,0.921c-4.371-21.657-10.36-42.812-17.915-63.288c1.926-1.126,3.841-2.29,5.711-3.601
				c35.797-25.079,47.244-74.58,25.563-110.562c-21.68-35.982-68.276-44.818-104.073-19.738c-1.835,1.287-3.561,2.674-5.266,4.083
				c-14.14-15.631-29.648-30.116-46.425-43.335c1.18-1.934,2.335-3.894,3.379-5.951c20.162-39.711,6.776-86.998-29.898-105.62
				c-36.676-18.62-82.751-1.522-102.913,38.189c-1.044,2.057-1.944,4.145-2.81,6.239c-20.573-5.744-41.419-9.716-62.381-11.908
				c0.131-2.208,0.233-4.42,0.189-6.66c-0.877-43.7-35.507-76.104-77.35-72.374c-41.842,3.729-75.052,42.18-74.175,85.88
				c0.046,2.285,0.237,4.518,0.463,6.736c-20.988,5.983-41.601,13.632-61.665,22.883c-0.954-1.948-1.944-3.886-3.075-5.768
				c-21.68-35.982-68.276-44.818-104.074-19.737c-35.8,25.082-47.243,74.58-25.563,110.562c1.109,1.844,2.326,3.567,3.563,5.268
				c-15.853,15.855-30.701,33.07-44.419,51.537c-1.775-1.112-3.573-2.199-5.474-3.164c-36.674-18.622-82.749-1.523-102.911,38.188
				c-20.162,39.71-6.776,86.998,29.898,105.619c1.9,0.964,3.84,1.775,5.785,2.551c-6.814,21.974-11.953,44.118-15.397,66.273
				c-2.102,0.005-4.211,0.041-6.355,0.23c-41.842,3.732-75.051,42.181-74.176,85.882c0.876,43.703,35.508,76.104,77.35,72.374
				c2.187-0.193,4.335-0.538,6.47-0.918c4.371,21.656,10.358,42.812,17.915,63.288c-1.925,1.126-3.841,2.288-5.711,3.601
				c-35.797,25.079-47.243,74.58-25.563,110.561c21.681,35.982,68.277,44.818,104.073,19.738c1.835-1.285,3.562-2.673,5.266-4.082
				c14.139,15.63,29.647,30.115,46.425,43.335c-1.18,1.934-2.335,3.894-3.379,5.951c-20.162,39.71-6.776,86.998,29.898,105.618
				c36.676,18.62,82.751,1.522,102.913-38.188c1.044-2.057,1.945-4.147,2.81-6.239c20.573,5.744,41.419,9.716,62.381,11.908
				c-0.131,2.207-0.233,4.42-0.189,6.66c0.878,43.7,35.508,76.102,77.35,72.373c41.842-3.73,75.052-42.18,74.175-85.88
				c-0.046-2.284-0.237-4.517-0.463-6.735c20.989-5.983,41.601-13.632,61.665-22.884c0.953,1.949,1.943,3.887,3.076,5.766
				c21.68,35.982,68.275,44.82,104.073,19.739c35.799-25.081,47.243-74.58,25.564-110.563c-1.11-1.841-2.327-3.565-3.564-5.266
				c15.854-15.854,30.7-33.071,44.42-51.538C3036.949,1507.45,3038.746,1508.536,3040.648,1509.502z M2583.463,1515.302
				c-133.158-67.607-181.759-239.294-108.555-383.478c73.204-144.182,240.494-206.257,373.65-138.651
				c133.158,67.607,181.76,239.295,108.555,383.477C2883.91,1520.834,2716.62,1582.909,2583.463,1515.302z"/>
		</g>
		<g>
			<g>
				<g>
					
						<linearGradient id="SVGID_1_" gradientUnits="userSpaceOnUse" x1="13051.8428" y1="-12110.8848" x2="9379.4805" y2="-8732.3066" gradientTransform="matrix(0.2845 0.9587 0.9587 -0.2845 5441.478 -7714.2354)">
						<stop  offset="0.0036" style="stop-color:#6165D7"/>
						<stop  offset="1" style="stop-color:#AA80F9"/>
					</linearGradient>
					<polygon style="fill:url(#SVGID_1_);" points="928.904,1589.961 754.11,1892.826 455.786,1734.056 508.201,1929.93 
						806.489,2088.563 981.318,1785.835 					"/>
				</g>
				
					<linearGradient id="SVGID_00000042722591833398031220000016060315895395378082_" gradientUnits="userSpaceOnUse" x1="3411.634" y1="-318.0871" x2="-260.813" y2="3060.5693">
					<stop  offset="0.0036" style="stop-color:#6165D7"/>
					<stop  offset="1" style="stop-color:#AA80F9"/>
				</linearGradient>
				<path style="fill:url(#SVGID_00000042722591833398031220000016060315895395378082_);" d="M2930.1,1123.084l-229.624-92.437
					c-65.768-85.883-146.828-161.445-241.527-222.994C1989.457,502.618,1338.103,644.25,1006.923,1123.31
					c-137.561,198.888-202.804,428.738-189.09,659.038c2.56,44.825,8.211,89.726,16.873,134.4
					c7.46,38.271-18.231,76.692-57.403,85.883c-39.103,9.191-76.844-14.389-84.304-52.661c-6.254-32.469-11.15-64.939-14.688-97.484
					c-30.134-280.626,43.167-563.362,210.79-805.793c376.981-545.357,1118.51-706.576,1652.947-359.352
					c66.294,43.092,126.636,92.211,180.806,146.377C2808.055,919,2877.667,1016.786,2930.1,1123.084z"/>
			</g>
			<g>
				<g>
					
						<linearGradient id="SVGID_00000029035470309007132100000005203900264315597744_" gradientUnits="userSpaceOnUse" x1="-3777.6563" y1="-3963.6313" x2="-3334.4932" y2="-3963.6313" gradientTransform="matrix(-0.2845 -0.9587 -0.9587 0.2845 -1813.0138 -690.6609)">
						<stop  offset="0" style="stop-color:#FF9085"/>
						<stop  offset="1" style="stop-color:#FB6FBB"/>
					</linearGradient>
					<polygon style="fill:url(#SVGID_00000029035470309007132100000005203900264315597744_);" points="2821.975,1874.454 
						2996.769,1571.588 3295.094,1730.358 3242.678,1534.484 2944.39,1375.851 2769.56,1678.58 					"/>
				</g>
				
					<linearGradient id="SVGID_00000104674717828339785870000006534239959857172609_" gradientUnits="userSpaceOnUse" x1="824.6123" y1="2209.9846" x2="3079.1748" y2="2209.9846">
					<stop  offset="0" style="stop-color:#FF9085"/>
					<stop  offset="1" style="stop-color:#FB6FBB"/>
				</linearGradient>
				<path style="fill:url(#SVGID_00000104674717828339785870000006534239959857172609_);" d="M2861.846,2417.732
					c-377.055,545.357-1118.587,706.5-1653.02,359.276c-66.298-43.017-126.64-92.135-180.806-146.302
					c-83.094-83.246-151.426-178.395-203.407-281.757l243.036,106.601c62.527,76.917,137.713,144.946,224.349,201.222
					c469.418,305.035,1120.772,163.403,1451.949-315.657c137.562-198.888,202.804-428.738,189.094-659.114
					c-2.564-44.825-8.214-89.651-16.877-134.325c-7.456-38.271,18.231-76.691,57.407-85.883c39.099-9.191,76.84,14.389,84.3,52.66
					c6.253,32.469,11.15,64.94,14.692,97.485C3102.696,1892.566,3029.395,2175.301,2861.846,2417.732z"/>
			</g>
		</g>
		<g>
			<path style="opacity:0.75;fill:#F4F7FA;" d="M2612.793,1663.021c0-371.156-315.993-672.039-705.79-672.039
				c-389.797,0-705.789,300.883-705.789,672.039c0,225.246,116.388,424.602,295.02,546.537
				c75.784,51.73,121.744,136.993,121.744,228.749v51.428c0,111.742,90.585,202.326,202.327,202.326h173.399
				c111.742,0,202.326-90.584,202.326-202.326v-51.428c0-91.756,45.96-177.019,121.743-228.749
				C2496.405,2087.623,2612.793,1888.267,2612.793,1663.021z"/>
			
				<linearGradient id="SVGID_00000018228804278739543480000004911073122434348479_" gradientUnits="userSpaceOnUse" x1="1892.3019" y1="3109.3113" x2="1904.8368" y2="3009.0317">
				<stop  offset="0.0036" style="stop-color:#26264F"/>
				<stop  offset="1" style="stop-color:#444B8C"/>
			</linearGradient>
			
				<ellipse style="fill:url(#SVGID_00000018228804278739543480000004911073122434348479_);" cx="1907.004" cy="2991.699" rx="156.563" ry="82.889"/>
			
				<linearGradient id="SVGID_00000099657167304624839530000011620396698428894347_" gradientUnits="userSpaceOnUse" x1="1840.749" y1="3017.9148" x2="1966.0986" y2="2792.2854">
				<stop  offset="0.0036" style="stop-color:#26264F"/>
				<stop  offset="1" style="stop-color:#444B8C"/>
			</linearGradient>
			<path style="fill:url(#SVGID_00000099657167304624839530000011620396698428894347_);" d="M1698.988,2843.626v84.647
				c0,28.639,16.298,54.879,42.147,67.207c35.887,17.114,95.553,35.896,182.267,33.674c70.347-1.803,116.219-13.292,145.383-25.36
				c28.175-11.66,46.233-39.52,46.233-70.012v-46.835L1698.988,2843.626z"/>
			
				<linearGradient id="SVGID_00000049911719232112317950000005364748637496466334_" gradientUnits="userSpaceOnUse" x1="1698.9884" y1="2910.9895" x2="2115.0186" y2="2910.9895">
				<stop  offset="0.0036" style="stop-color:#26264F"/>
				<stop  offset="1" style="stop-color:#444B8C"/>
			</linearGradient>
			<path style="opacity:0.3;fill:url(#SVGID_00000049911719232112317950000005364748637496466334_);" d="M1698.988,2917.77
				c6.34,6.164,13.684,11.394,21.932,15.326c40.26,19.201,303.972,62.1,367.583,38.198c8.261-3.103,15.693-7.256,22.202-12.265
				c2.784-7.994,4.313-16.501,4.313-25.248v-46.835l-416.03-43.321V2917.77z"/>
			
				<linearGradient id="SVGID_00000123410947680748393460000015191344005339534245_" gradientUnits="userSpaceOnUse" x1="1852.6813" y1="2956.259" x2="1976.4644" y2="2718.0947">
				<stop  offset="0.0036" style="stop-color:#26264F"/>
				<stop  offset="1" style="stop-color:#444B8C"/>
			</linearGradient>
			<path style="fill:url(#SVGID_00000123410947680748393460000015191344005339534245_);" d="M1717.458,2786.034
				c-23.431-2.44-43.822,15.938-43.822,39.496v2.399c0,32.129,18.284,61.567,47.284,75.397c40.26,19.2,303.972,62.1,367.583,38.198
				c32.022-12.032,51.867-39.525,51.867-73.733v-1.931c0-20.339-15.367-37.39-35.596-39.496L1717.458,2786.034z"/>
			
				<linearGradient id="SVGID_00000050665475864562193160000008551254438163582103_" gradientUnits="userSpaceOnUse" x1="1680.3486" y1="2840.8723" x2="2133.4519" y2="2840.8723">
				<stop  offset="0.0036" style="stop-color:#26264F"/>
				<stop  offset="1" style="stop-color:#444B8C"/>
			</linearGradient>
			<path style="opacity:0.3;fill:url(#SVGID_00000050665475864562193160000008551254438163582103_);" d="M2104.774,2826.365
				l-387.316-40.331c-15.281-1.592-29.227,5.701-37.11,17.48c7.781,18.334,21.948,33.669,40.572,42.55
				c40.26,19.2,315.202,67.693,367.583,43.012c20.389-9.61,36.379-25.829,44.948-45.546
				C2127.069,2834.17,2116.796,2827.617,2104.774,2826.365z"/>
			
				<linearGradient id="SVGID_00000142176043208770171110000006640846738879833012_" gradientUnits="userSpaceOnUse" x1="1673.6362" y1="2759.0042" x2="2140.3708" y2="2759.0042">
				<stop  offset="0.0036" style="stop-color:#26264F"/>
				<stop  offset="1" style="stop-color:#444B8C"/>
			</linearGradient>
			<path style="fill:url(#SVGID_00000142176043208770171110000006640846738879833012_);" d="M1702.305,2648.892
				c-15.834,0-28.669,12.835-28.669,28.669v66.296c0,32.128,18.284,61.567,47.284,75.397c40.26,19.2,315.202,67.693,367.583,43.01
				c30.944-14.582,51.867-44.337,51.867-78.545v-106.159c0-15.833-12.835-28.669-28.668-28.669H1702.305z"/>
			
				<linearGradient id="SVGID_00000005960780560271049500000004330634551591662500_" gradientUnits="userSpaceOnUse" x1="1895.4122" y1="2723.7986" x2="1941.3738" y2="2508.6155">
				<stop  offset="0.0036" style="stop-color:#26264F"/>
				<stop  offset="1" style="stop-color:#444B8C"/>
			</linearGradient>
			
				<ellipse style="fill:url(#SVGID_00000005960780560271049500000004330634551591662500_);" cx="1907.004" cy="2669.531" rx="227.595" ry="53.81"/>
			
				<linearGradient id="SVGID_00000112618556478728462540000014120115260604105128_" gradientUnits="userSpaceOnUse" x1="1807.1478" y1="1523.1041" x2="2719.0168" y2="2970.8137">
				<stop  offset="0" style="stop-color:#FCB148"/>
				<stop  offset="0.0521" style="stop-color:#FDBA46"/>
				<stop  offset="0.1424" style="stop-color:#FFC244"/>
				<stop  offset="0.3183" style="stop-color:#FFC444"/>
				<stop  offset="0.4849" style="stop-color:#FDB946"/>
				<stop  offset="0.7754" style="stop-color:#F99C4D"/>
				<stop  offset="0.8658" style="stop-color:#F8924F"/>
				<stop  offset="1" style="stop-color:#F8924F"/>
			</linearGradient>
			<path style="fill:url(#SVGID_00000112618556478728462540000014120115260604105128_);" d="M2612.793,1663.021
				c0-371.156-315.993-672.039-705.79-672.039c-389.797,0-705.789,300.883-705.789,672.039
				c0,225.246,116.388,424.602,295.02,546.537c75.784,51.73,121.744,136.993,121.744,228.749v51.428
				c0,111.742,90.585,202.326,202.327,202.326h173.399c111.742,0,202.326-90.584,202.326-202.326v-51.428
				c0-91.756,45.96-177.019,121.743-228.749C2496.405,2087.623,2612.793,1888.267,2612.793,1663.021z"/>
			<ellipse style="opacity:0.5;fill:#F4F7FA;" cx="1907.004" cy="2627.101" rx="166.537" ry="39.373"/>
			<g>
				
					<linearGradient id="SVGID_00000120536350106519346550000017480756887535431355_" gradientUnits="userSpaceOnUse" x1="1640.5605" y1="2637.8235" x2="1826.4958" y2="2094.6426">
					<stop  offset="0.494" style="stop-color:#EBEFF2"/>
					<stop  offset="1" style="stop-color:#FFFFFF"/>
				</linearGradient>
				<path style="fill:url(#SVGID_00000120536350106519346550000017480756887535431355_);" d="M1863.605,2651.163
					c-4.769,0-8.909-3.543-9.534-8.398l-122.515-952.771c-0.677-5.272,3.047-10.094,8.32-10.77
					c5.282-0.709,10.094,3.045,10.772,8.317l122.516,952.771c0.677,5.273-3.048,10.094-8.32,10.771
					C1864.427,2651.139,1864.014,2651.163,1863.605,2651.163z"/>
				
					<linearGradient id="SVGID_00000080208822488317088870000001247840602802272156_" gradientUnits="userSpaceOnUse" x1="1818.3202" y1="2698.6716" x2="2004.2556" y2="2155.4902">
					<stop  offset="0.494" style="stop-color:#EBEFF2"/>
					<stop  offset="1" style="stop-color:#FFFFFF"/>
				</linearGradient>
				<path style="fill:url(#SVGID_00000080208822488317088870000001247840602802272156_);" d="M1939.701,2651.163
					c-0.409,0-0.822-0.023-1.238-0.08c-5.272-0.677-8.997-5.498-8.32-10.771l122.518-952.771c0.679-5.272,5.496-9.031,10.773-8.317
					c5.272,0.677,8.996,5.498,8.32,10.77l-122.518,952.771C1948.611,2647.62,1944.471,2651.163,1939.701,2651.163z"/>
				
					<linearGradient id="SVGID_00000070103266734596612610000013383186629198671037_" gradientUnits="userSpaceOnUse" x1="1575.8134" y1="2615.6592" x2="1761.7487" y2="2072.4785">
					<stop  offset="0.494" style="stop-color:#EBEFF2"/>
					<stop  offset="1" style="stop-color:#FFFFFF"/>
				</linearGradient>
				<path style="fill:url(#SVGID_00000070103266734596612610000013383186629198671037_);" d="M2039.48,1689.224
					c-3.127,0-6.196-1.523-8.045-4.328l-33.813-51.296c-0.348-0.527-0.884-0.832-1.373-0.771c-0.839,0.019-1.193,0.616-1.308,0.808
					l-22.324,37.392c-3.7,6.194-10.185,10-17.349,10.178c-7.119,0.231-13.848-3.303-17.863-9.318l-30.653-45.958
					c-0.334-0.498-0.78-0.756-1.325-0.761c-0.651,0.122-0.956,0.23-1.283,0.7l-26.929,38.923c-3.889,5.625-10.265,8.99-17.058,9.004
					h-0.043c-6.79,0-13.179-3.345-17.095-8.961l-38.822-55.615c-0.35-0.503-0.844-0.677-1.37-0.728
					c-0.555,0.023-0.989,0.306-1.295,0.832l-35.434,61.169c-2.662,4.596-8.555,6.165-13.151,3.501
					c-4.601-2.665-6.167-8.553-3.503-13.153l35.434-61.17c3.604-6.217,10.012-10.108,17.141-10.408
					c7.072-0.362,13.846,3.045,17.963,8.943l38.82,55.615c0.336,0.479,0.778,0.728,1.311,0.728h0.002
					c0.522-0.004,0.949-0.24,1.273-0.705l26.929-38.924c3.941-5.691,10.428-9.078,17.275-8.998
					c6.896,0.061,13.318,3.548,17.175,9.332l30.65,45.953c0.345,0.517,0.862,0.949,1.372,0.756c0.834-0.019,1.187-0.611,1.302-0.803
					l22.323-37.391c3.714-6.217,10.223-10.024,17.41-10.183c7.115-0.159,13.877,3.365,17.869,9.422l33.813,51.296
					c2.925,4.436,1.699,10.404-2.74,13.331C2043.136,1688.712,2041.298,1689.224,2039.48,1689.224z"/>
			</g>
			
				<linearGradient id="SVGID_00000089565731537095540150000017290303670228209339_" gradientUnits="userSpaceOnUse" x1="1839.1471" y1="1196.778" x2="1657.3899" y2="2694.7043">
				<stop  offset="0" style="stop-color:#FCB148"/>
				<stop  offset="0.0521" style="stop-color:#FDBA46"/>
				<stop  offset="0.1424" style="stop-color:#FFC244"/>
				<stop  offset="0.3183" style="stop-color:#FFC444"/>
				<stop  offset="0.4849" style="stop-color:#FDB946"/>
				<stop  offset="0.7754" style="stop-color:#F99C4D"/>
				<stop  offset="0.8658" style="stop-color:#F8924F"/>
				<stop  offset="1" style="stop-color:#F8924F"/>
			</linearGradient>
			<path style="opacity:0.3;fill:url(#SVGID_00000089565731537095540150000017290303670228209339_);" d="M1919.812,2193.104
				c15.12-259.026,451.79-319.646,449.919-550.971c-1.152-142.472-174.674-248.279-211.727-269.47
				c-273.029-156.157-609.085,24.17-678.488-103.458c-17.28-31.776-9.178-66.367-4.564-86.065
				c6.974-29.772,22.763-57.502,46.185-82.866c-192.63,119.999-319.924,327.202-319.924,562.747
				c0,225.246,116.388,424.603,295.02,546.537c75.785,51.731,121.744,136.994,121.744,228.75v51.428
				c0,111.742,90.585,202.326,202.327,202.326h173.399c111.741,0,202.326-90.584,202.326-202.326v-41.118
				c-23.866,18.29-51.275,31.045-81.332,30.799C2010.407,2478.559,1912.288,2322.003,1919.812,2193.104z"/>
			<ellipse style="opacity:0.44;fill:#F4F7FA;" cx="1918.292" cy="1689.224" rx="607.345" ry="585.719"/>
		</g>
		<g>
			
				<linearGradient id="SVGID_00000011741474282076711190000012059844504543472787_" gradientUnits="userSpaceOnUse" x1="2020.7803" y1="1853.3361" x2="2072.8708" y2="1973.2269" gradientTransform="matrix(1 0 0 1 341.2505 0)">
				<stop  offset="0" style="stop-color:#FFC444"/>
				<stop  offset="0.9964" style="stop-color:#F36F56"/>
			</linearGradient>
			<path style="fill:url(#SVGID_00000011741474282076711190000012059844504543472787_);" d="M2403.57,1936.719
				c0,0-10.2-53.265-20.399-69.131c-10.2-15.866-29.229-26.065-29.229-26.065s-3.968,6.521,8.663,20.26
				c12.632,13.738,2.101,15.098,0,19.518c-2.101,4.421,2.433,20.286,11.499,25.953c9.067,5.667,12.467,36.559,12.467,36.559
				L2403.57,1936.719z"/>
			
				<linearGradient id="SVGID_00000105397703326176252300000004292464060690566319_" gradientUnits="userSpaceOnUse" x1="2153.9941" y1="1939.4666" x2="2365.3064" y2="2425.8201" gradientTransform="matrix(1 0 0 1 341.2505 0)">
				<stop  offset="0" style="stop-color:#AA80F9"/>
				<stop  offset="0.9964" style="stop-color:#6165D7"/>
			</linearGradient>
			<path style="fill:url(#SVGID_00000105397703326176252300000004292464060690566319_);" d="M2374.104,1929.919
				c10.955-1.889,21.911-3.778,32.865-5.667c39.21,72.692,85.148,119.416,116.426,146.539
				c36.961,32.051,60.824,52.744,100.033,63.12c57.926,15.33,107.962-2.666,114.463,13.6c3.179,7.952-7.848,16.562-25.499,37.682
				c-51.4,61.502-46.542,94.568-74.797,103.697c-23.346,7.542-46.842-8.682-86.698-37.116
				c-36.257-25.867-81.715-58.298-120.129-120.129C2379.244,2048.712,2374.082,1967.114,2374.104,1929.919z"/>
			
				<linearGradient id="SVGID_00000119820065376004417860000006632545986492661160_" gradientUnits="userSpaceOnUse" x1="5079.9917" y1="2433.5642" x2="5150.1738" y2="2152.8354" gradientTransform="matrix(1 0 0 1 -2267.8289 0)">
				<stop  offset="0" style="stop-color:#AA80F9"/>
				<stop  offset="0.9964" style="stop-color:#6165D7"/>
			</linearGradient>
			<path style="fill:url(#SVGID_00000119820065376004417860000006632545986492661160_);" d="M2856.883,2154.121
				c5.326,2.013,86.554,34.315,103.25,119.094c1.349,6.848,14.399,79.687-34.998,131.143
				c-55.389,57.698-162.046,56.269-204.38,8.033c-9.873-11.249-15.081-23.716-17.999-34.192l0,0l11.155-29.635
				c13.61-16.431,32.142-20.325,42.04-22.764c24.399-6.013,42.82,4.855,56.793-6.911c7.732-6.51,9.268-15.879,10.64-24.249
				c4.673-28.507-11.417-46.055-12.588-63.634c-0.876-13.142-5.476-41.938,11.677-60.716
				C2833.336,2158.4,2848.382,2155.161,2856.883,2154.121z"/>
			
				<linearGradient id="SVGID_00000156552030092129882760000015260111944366594176_" gradientUnits="userSpaceOnUse" x1="4795.1631" y1="3583.3826" x2="4828.4551" y2="3612.9958" gradientTransform="matrix(0.9902 -0.14 0.14 0.9902 -2370.6716 206.9384)">
				<stop  offset="0" style="stop-color:#444B8C"/>
				<stop  offset="0.9964" style="stop-color:#26264F"/>
			</linearGradient>
			<path style="fill:url(#SVGID_00000156552030092129882760000015260111944366594176_);" d="M2888.533,3098.944
				c0.948-5.219,17.802-9.943,26.147-2.953c4.144,3.471,6.998,10.507,4.6,13.685c-0.872,1.156,2.7,3.189-0.723,3.229
				C2907.204,3113.037,2887.591,3104.13,2888.533,3098.944z"/>
			
				<linearGradient id="SVGID_00000039108369299562315450000007880904458338697898_" gradientUnits="userSpaceOnUse" x1="3901.9666" y1="3613.0339" x2="3901.9666" y2="3555.0361" gradientTransform="matrix(0.9902 -0.14 0.14 0.9902 -1454.4706 77.4224)">
				<stop  offset="0" style="stop-color:#FFC444"/>
				<stop  offset="0.9964" style="stop-color:#F36F56"/>
			</linearGradient>
			<path style="fill:url(#SVGID_00000039108369299562315450000007880904458338697898_);" d="M2906.199,3100.843l17.334-2.45
				c-8.031-9.669-6.544-40.46-6.544-40.46l-18.434,4.115c0,0,2.101,8.451,5.674,20.918
				C2905.452,3087.234,2905.999,3093.913,2906.199,3100.843z"/>
			
				<linearGradient id="SVGID_00000044165042369102730800000015651193292235666079_" gradientUnits="userSpaceOnUse" x1="4798.5107" y1="3579.6208" x2="4831.8018" y2="3609.2336" gradientTransform="matrix(0.9902 -0.14 0.14 0.9902 -2370.6716 206.9384)">
				<stop  offset="0" style="stop-color:#444B8C"/>
				<stop  offset="0.9964" style="stop-color:#26264F"/>
			</linearGradient>
			<path style="fill:url(#SVGID_00000044165042369102730800000015651193292235666079_);" d="M2904.662,3098.708
				c0,0,20.869-4.809,23.126-0.669c2.258,4.14,4.01,15.224-9.23,14.866C2905.318,3112.547,2903.486,3102.218,2904.662,3098.708z"/>
			
				<linearGradient id="SVGID_00000068639029296981910930000007159928035685485502_" gradientUnits="userSpaceOnUse" x1="4911.3608" y1="3102.2886" x2="4944.6543" y2="3131.9031" gradientTransform="matrix(1 0 0 1 -2267.8289 0)">
				<stop  offset="0" style="stop-color:#444B8C"/>
				<stop  offset="0.9964" style="stop-color:#26264F"/>
			</linearGradient>
			<path style="fill:url(#SVGID_00000068639029296981910930000007159928035685485502_);" d="M2650.691,3118.514
				c1.668-5.035,19.019-7.354,26.304,0.736c3.616,4.017,5.457,11.383,2.638,14.194c-1.025,1.023,2.227,3.537-1.168,3.097
				C2667.206,3135.083,2649.033,3123.517,2650.691,3118.514z"/>
			
				<linearGradient id="SVGID_00000029044600539539088440000003043168706034347930_" gradientUnits="userSpaceOnUse" x1="4018.1199" y1="3131.9624" x2="4018.1199" y2="3073.9624" gradientTransform="matrix(1 0 0 1 -1342.5187 0)">
				<stop  offset="0" style="stop-color:#FFC444"/>
				<stop  offset="0.9964" style="stop-color:#F36F56"/>
			</linearGradient>
			<path style="fill:url(#SVGID_00000029044600539539088440000003043168706034347930_);" d="M2667.918,3122.867h17.506
				c-6.598-10.697-0.815-40.977-0.815-40.977l-18.829,1.494c0,0,0.897,8.662,2.69,21.506
				C2669.083,3109.287,2668.689,3115.977,2667.918,3122.867z"/>
			
				<linearGradient id="SVGID_00000038398494134819436020000005101603096532594052_" gradientUnits="userSpaceOnUse" x1="5135.0488" y1="3158.5588" x2="4917.9517" y2="2282.032" gradientTransform="matrix(-1 0 0 1 7807.9185 0)">
				<stop  offset="0" style="stop-color:#444B8C"/>
				<stop  offset="0.9964" style="stop-color:#26264F"/>
			</linearGradient>
			<path style="fill:url(#SVGID_00000038398494134819436020000005101603096532594052_);" d="M2622.548,2460.85
				c-8.109,26.78-19.691,70.003-27.146,124.231c-21.264,154.678,23.931,159.613,15.491,331.016
				c-2.694,54.713,47.4,180.875,51.815,183.66c2.136,0.207,4.455,0.347,6.927,0.272c4.357-0.131,10.5-0.8,17.644-2.942
				c7.935-1.366,36.545-78.858,29.914-124.931c-4.693-32.61-3.332-67.605-0.612-137.598c0.441-11.341,29.457-220.647,29.457-220.647
				l0,0c8.827,77.474,18.978,143.301,27.777,194.338c28.273,163.974,120.202,263.221,124.997,264.813
				c0.947,0.38,9.573,3.514,16.626-1.134c3.14-2.069,4.207-4.739,4.207-4.739c2.459-1.926-0.724-163.708-28.764-285.465
				c-40.699-176.727-22.977-218.079-35.872-297.016C2843.854,2416.406,2622.548,2460.85,2622.548,2460.85z"/>
			
				<linearGradient id="SVGID_00000036955159192098951340000005725965743481949618_" gradientUnits="userSpaceOnUse" x1="2214.7996" y1="1888.6422" x2="2447.5637" y2="2424.3694" gradientTransform="matrix(1 0 0 1 341.2505 0)">
				<stop  offset="0" style="stop-color:#AA80F9"/>
				<stop  offset="0.9964" style="stop-color:#6165D7"/>
			</linearGradient>
			<path style="fill:url(#SVGID_00000036955159192098951340000005725965743481949618_);" d="M2786.938,2140.326
				c-27.021-0.794-89.129-10.333-123.338,20.448c-0.595,0.534,6.414,4.279,2.963,8.323c-3.204,3.752-14.192,16.893-24.154,34.656
				c-7.216,12.865-13.729,27.862-20.299,50.212c-11.589,39.417-14.914,72.98-16.025,87.604
				c-6.252,82.239-0.052,120.179,5.574,145.981c24.43,12.549,87.383,35.004,162.392,23.847
				c34.254-5.096,61.669-16.494,80.959-26.669c-19.463-58.93-4.194-90.465,3.01-119.53c10.273-41.445,10.438-38.312,18.896-71.235
				c13.956-54.323,16.245-109.832,6.656-121.191C2857.718,2142.147,2811.132,2141.039,2786.938,2140.326z"/>
			
				<linearGradient id="SVGID_00000144316640672846844200000004674243631501836691_" gradientUnits="userSpaceOnUse" x1="4914.707" y1="3098.5264" x2="4948.0005" y2="3128.1409" gradientTransform="matrix(1 0 0 1 -2267.8289 0)">
				<stop  offset="0" style="stop-color:#444B8C"/>
				<stop  offset="0.9964" style="stop-color:#26264F"/>
			</linearGradient>
			<path style="fill:url(#SVGID_00000144316640672846844200000004674243631501836691_);" d="M2666.694,3120.538
				c0,0,21.337-1.839,22.992,2.576c1.656,4.415,1.84,15.634-11.22,13.427C2665.406,3134.334,2665.039,3123.848,2666.694,3120.538z"
				/>
			<g>
				
					<linearGradient id="SVGID_00000021803284757597745220000017846709415218564755_" gradientUnits="userSpaceOnUse" x1="5697.3369" y1="1531.0392" x2="5869.7881" y2="1748.0052" gradientTransform="matrix(0.9663 0.2576 -0.2576 0.9663 -2403.0903 -923.8408)">
					<stop  offset="0" style="stop-color:#FFC444"/>
					<stop  offset="0.9964" style="stop-color:#F36F56"/>
				</linearGradient>
				<path style="fill:url(#SVGID_00000021803284757597745220000017846709415218564755_);" d="M2730.167,2089.692
					c-4.442-15.83,3.326-30.489,5.037-33.648c7.169-13.224,9.005-15.03,12.425-17.321l4.755-2.934c0,0,0.275-0.11,0.565-0.213
					c3.051-1.086,13.45-1.402,15.556-0.952c6.73,1.437,13.895,28.853,11.85,67.613c0.279,1.477,0.548,2.967,0.808,4.469
					c1.06,6.121,1.902,12.122,2.553,17.987c0.623,5.611,4.354,10.393,9.636,12.387c35.763,13.499,35.691,2.719,39.392,14.335
					c2.015,6.325-38.596,16.547-58.577,14.237c-44.951,0.334-81.518-4.453-77.588-11.531c1.745-3.142,36.574-12.243,46.369-21.264
					c8.969-8.26,8.239-16.787,8.977-22.892C2749.205,2108.554,2733.438,2101.354,2730.167,2089.692z"/>
				<path style="fill:#26264F;" d="M2738.435,2024.78c0.04,12.008,5.698,24.833,8.581,26.893c0.372,0.267,2.467,1.922,4.349,4.751
					c0.257,0.385,0.482,0.836,0.684,1.419c2.63,7.567-9.401,16.472-7.079,19.861c1.685,2.457,9.862-0.83,10.834,1.293
					c0.916,1.997-5.88,6.134-4.839,8.526c0.785,1.806,4.967,0.154,7.604,2.921c1.315,1.378,0.929,2.47,2.322,6.683
					c0.788,2.383,1.89,4.99,2.744,6.44c4.15,7.051,15.904,9.626,18.165,6.804c0.629-0.786,0.089-1.447,0.732-4.085
					c0,0,0.596-2.446,2.297-5.273c2.431-4.04,8.3-6.929,14.223-11.193c10.967-7.897,13.948-14.629,14.842-16.904
					c0.319-0.81,0.517-1.422,0.659-1.862c2.852-8.851,2.865-21.852-1.114-29.847c-6.666-13.393-21.703-7.034-34.011-20.305
					c-14.2-15.311-5.743-36.239-13.449-38.55C2757.486,1979.803,2738.362,2002.576,2738.435,2024.78z"/>
				
					<linearGradient id="SVGID_00000021824182379107243890000016476969458207891349_" gradientUnits="userSpaceOnUse" x1="5709.0054" y1="1520.0657" x2="5889.292" y2="1746.8889" gradientTransform="matrix(0.9663 0.2576 -0.2576 0.9663 -2403.0903 -923.8408)">
					<stop  offset="0" style="stop-color:#FFC444"/>
					<stop  offset="0.9964" style="stop-color:#F36F56"/>
				</linearGradient>
				<path style="fill:url(#SVGID_00000021824182379107243890000016476969458207891349_);" d="M2749.288,2074.882
					c2.943-4.044,8.115-0.245,8.145,4.988c0.031,5.232-5.04,10.672-9.958,9.639
					C2742.556,2088.475,2745.326,2080.325,2749.288,2074.882z"/>
			</g>
			<path style="fill:#9B305E;" d="M2846.404,2447.644c-0.496,0-0.925-0.373-0.981-0.879c-3.232-29.098,2.774-50.16,8.073-68.74
				c1.292-4.524,2.51-8.795,3.568-13.065c5.837-23.549,8.393-32.644,11.099-42.274c1.757-6.253,3.575-12.718,6.39-23.522
				c0.138-0.526,0.673-0.854,1.205-0.707c0.528,0.136,0.845,0.677,0.707,1.205c-2.818,10.823-4.638,17.298-6.398,23.559
				c-2.701,9.615-5.253,18.696-11.084,42.217c-1.066,4.302-2.29,8.589-3.585,13.13c-5.25,18.407-11.199,39.267-8.008,67.98
				c0.06,0.542-0.33,1.031-0.874,1.092C2846.477,2447.643,2846.441,2447.644,2846.404,2447.644z"/>
			<path style="fill:#26264F;" d="M2751.674,2066.128l-6.828,8.882c0,0-7.361,10.882-11.658,4.921
				c-3.511-4.871-4.421-4.763-4.636-4.559c-0.041,0.039-0.051,0.097-0.062,0.095c-0.061-0.017,0.515-2.425,1.033-4.542
				c-1.818,2.609-4.322,6.842-5.84,12.537c-1.474,5.531-3.053,11.454,0.068,17.143c0.18,0.328,3.618,6.384,10.037,7.849
				c0,0,2.524,0.576,13.191-1.299c0,0-11.658-8.46-11.837-10.469c-0.483-5.465,7.096-8.418,12.723-19.622
				C2750.037,2072.743,2751.107,2068.824,2751.674,2066.128z"/>
		</g>
		<g>
			
				<linearGradient id="SVGID_00000144308229631559501420000008802537077091873434_" gradientUnits="userSpaceOnUse" x1="4765.4185" y1="1137.2966" x2="5002.6631" y2="1354.4354" gradientTransform="matrix(-1 0 0 1 5914.8198 0)">
				<stop  offset="0.0036" style="stop-color:#26264F"/>
				<stop  offset="1" style="stop-color:#444B8C"/>
			</linearGradient>
			<path style="fill:url(#SVGID_00000144308229631559501420000008802537077091873434_);" d="M1152.945,1436.225
				c-66.827,54.162-189.017,57.726-275.435-8.346c-92.335-70.598-123.015-204.78-77.9-269.871
				c50.725-73.186,178.377-31.781,228.138-122.416c19.617-35.73,12.179-55.703,44.514-94.594
				c12.3-14.795,53.714-64.608,118.243-63.99c10.488,0.1,56.938,0.545,82.074,30.604c35.14,42.023-3.487,106.878-36.168,233.703
				C1180.684,1357.567,1204.206,1394.679,1152.945,1436.225z"/>
			
				<linearGradient id="SVGID_00000072979989393446109940000009376303175548553142_" gradientUnits="userSpaceOnUse" x1="5231.1689" y1="2022.0559" x2="5249.4038" y2="2254.1372" gradientTransform="matrix(-1 0 0 1 6541.0825 0)">
				<stop  offset="0.0036" style="stop-color:#26264F"/>
				<stop  offset="1" style="stop-color:#444B8C"/>
			</linearGradient>
			<path style="fill:url(#SVGID_00000072979989393446109940000009376303175548553142_);" d="M1274.35,2137.799
				c0,0,73.404,33.362,74.602,38.688c1.199,5.326-47.205-1.785-66.966-1.018c-19.761,0.768-36.016-5.072-34.227-13.441
				c1.789-8.371,8.706-29.422,8.706-29.422L1274.35,2137.799z"/>
			
				<linearGradient id="SVGID_00000001623322136258538860000004692813416795206591_" gradientUnits="userSpaceOnUse" x1="5278.2451" y1="2151.2642" x2="5274.9297" y2="1910.896" gradientTransform="matrix(-1 0 0 1 6541.0825 0)">
				<stop  offset="0" style="stop-color:#893976"/>
				<stop  offset="1" style="stop-color:#311944"/>
			</linearGradient>
			<path style="fill:url(#SVGID_00000001623322136258538860000004692813416795206591_);" d="M1277.036,2110.726l-4.466,33.049
				c0,0-11.62,4.136-19.426-0.754l-3.331-36.247L1277.036,2110.726z"/>
			
				<linearGradient id="SVGID_00000163072401924098945730000012405920706253761703_" gradientUnits="userSpaceOnUse" x1="4701.4824" y1="1438.4148" x2="4719.7163" y2="1670.484" gradientTransform="matrix(-0.9916 0.1295 0.1295 0.9916 5531.7573 -47.8625)">
				<stop  offset="0.0036" style="stop-color:#26264F"/>
				<stop  offset="1" style="stop-color:#444B8C"/>
			</linearGradient>
			<path style="fill:url(#SVGID_00000163072401924098945730000012405920706253761703_);" d="M1037.457,2107.262l-6.691,14.697
				c-1.872,4.11-1.979,8.778-0.278,12.962c4.437,10.915,13.226,32.169,16.555,37.575c4.534,7.365,52.242,5.859,52.242,5.859
				s3.428-6.459-7.284-12.321c-10.711-5.86-17.145-6.163-21.972-16.248c-4.827-10.083-11.022-39.582-11.022-39.582
				L1037.457,2107.262z"/>
			
				<linearGradient id="SVGID_00000008107962787153169480000002377270157764380570_" gradientUnits="userSpaceOnUse" x1="4719.7705" y1="1590.3346" x2="4716.4551" y2="1349.9677" gradientTransform="matrix(-0.9916 0.1295 0.1295 0.9916 5531.7573 -47.8625)">
				<stop  offset="0" style="stop-color:#893976"/>
				<stop  offset="1" style="stop-color:#311944"/>
			</linearGradient>
			<path style="fill:url(#SVGID_00000008107962787153169480000002377270157764380570_);" d="M1068.183,2068.121
				c-2.771,2.869-11.899,50.762-11.899,50.762s-4.079,6.902-14.589-1.124c-10.509-8.026-4.751-3.595-4.751-3.595l-4.156-45.389
				L1068.183,2068.121z"/>
			
				<linearGradient id="SVGID_00000010273461173482829720000008920573687789005741_" gradientUnits="userSpaceOnUse" x1="4594.6172" y1="1761.8727" x2="4772.3394" y2="1761.8727" gradientTransform="matrix(-1 0 0 1 5914.8198 0)">
				<stop  offset="0.0036" style="stop-color:#26264F"/>
				<stop  offset="1" style="stop-color:#444B8C"/>
			</linearGradient>
			<path style="fill:url(#SVGID_00000010273461173482829720000008920573687789005741_);" d="M1317.423,1446.75
				c3.873,98.583,4.03,205.691-1.643,320.115c-6.386,128.85-19.221,247.939-35.395,355.894c-6.012,0.192-12.331,0.224-18.931,0.038
				c-4.456-0.123-8.776-0.34-12.948-0.628c-8.394-22.385-18.315-51.822-27.2-86.983c-9.34-36.972-14.975-70.136-18.99-101.849
				c-14.136-111.662,2.43-121.403-9.041-204.155c-10.16-73.289-24.609-76.15-41.568-180.204
				c-18.403-112.902-4.704-129.84,1.958-135.958C1182.025,1386.971,1248.644,1404.705,1317.423,1446.75z"/>
			
				<linearGradient id="SVGID_00000047775607936680713220000010750761277295179450_" gradientUnits="userSpaceOnUse" x1="4606.9067" y1="1761.88" x2="4772.3389" y2="1761.88" gradientTransform="matrix(-1 0 0 1 5914.8198 0)">
				<stop  offset="0.0036" style="stop-color:#26264F"/>
				<stop  offset="1" style="stop-color:#444B8C"/>
			</linearGradient>
			<path style="opacity:0.3;fill:url(#SVGID_00000047775607936680713220000010750761277295179450_);" d="M1153.664,1413.02
				c27.05-24.846,88.912-9.803,154.249,28.116c-75.165,81.209-83.359,133.89-74.348,168.073
				c10.184,38.633,41.146,49.76,41.029,92.004c-0.145,51.913-46.998,65.665-46.003,120.598
				c0.659,36.325,21.247,35.948,26.109,80.813c5.753,53.085-21.144,71.377-12.432,110.653c3.749,16.898,14.445,38.976,44.911,61.722
				c-2.196,16.129-4.449,32.095-6.796,47.76c-6.01,0.189-12.33,0.223-18.93,0.035c-4.456-0.122-8.776-0.339-12.948-0.627
				c-8.394-22.385-18.315-51.821-27.2-86.982c-9.34-36.973-14.975-70.136-18.99-101.85c-14.135-111.661,2.43-121.403-9.041-204.155
				c-10.16-73.289-24.609-76.152-41.568-180.205C1133.304,1436.075,1147.002,1419.137,1153.664,1413.02z"/>
			
				<linearGradient id="SVGID_00000020398736688134014470000010384288662885113993_" gradientUnits="userSpaceOnUse" x1="3769.7129" y1="1187.7649" x2="4127.4609" y2="1187.7649" gradientTransform="matrix(-0.9916 0.1295 0.1295 0.9916 4910.771 33.2584)">
				<stop  offset="0.0036" style="stop-color:#26264F"/>
				<stop  offset="1" style="stop-color:#444B8C"/>
			</linearGradient>
			<path style="fill:url(#SVGID_00000020398736688134014470000010384288662885113993_);" d="M1287.785,1402.475
				c-51.908,102.284-105.862,228.191-149.491,376.16c-32.971,111.819-53.935,215.502-67.29,307.211
				c-3.166,2.001-10.711,6.154-21.047,6.137c-14.098-0.022-23.56-7.784-26.053-9.969c-18.422-62.086-24.32-115.935-25.941-155.142
				c-1.039-25.103-2.538-66.938,6.615-120.021c10.251-59.461,22.012-64.264,37.229-127.742
				c15.793-65.887,7.936-80.788,20.653-162.322c5.222-33.494,14.751-83.568,33.318-144.399
				C1159.779,1382.416,1223.782,1392.446,1287.785,1402.475z"/>
			
				<linearGradient id="SVGID_00000064353496444494359660000003133448476119030186_" gradientUnits="userSpaceOnUse" x1="4183.8618" y1="1111.5835" x2="4263.1211" y2="1359.9303" gradientTransform="matrix(-1 0 0 1 5914.8198 0)">
				<stop  offset="0" style="stop-color:#FFC444"/>
				<stop  offset="0.9964" style="stop-color:#F36F56"/>
			</linearGradient>
			<path style="fill:url(#SVGID_00000064353496444494359660000003133448476119030186_);" d="M1671.944,1180.207
				c0,0,10.307-22.092,22.555-36.795c12.247-14.703,45.933,2.292,57.821,2.711c2.196,0.078,3.445,0.682,3.917,1.621
				c1.163,2.321-7.745,6.733-24.723,15.64c-27.572,14.464-29.737,16.141-36.658,16.843
				C1686.074,1181.119,1671.945,1180.207,1671.944,1180.207z"/>
			
				<linearGradient id="SVGID_00000004530454946110898280000014669506300824336291_" gradientUnits="userSpaceOnUse" x1="1281.2916" y1="1154.4097" x2="1695.828" y2="1154.4097">
				<stop  offset="0" style="stop-color:#FFC444"/>
				<stop  offset="0.9964" style="stop-color:#F36F56"/>
			</linearGradient>
			<path style="fill:url(#SVGID_00000004530454946110898280000014669506300824336291_);" d="M1677.995,1141.793
				c5.944,7.925,11.889,15.851,17.833,23.778c-4.006,16.624-17.193,61.691-59.445,98.084c-5.883,5.067-56.397,47.249-128.797,44.583
				c-109.848-4.045-167.52-107.555-170.408-112.945c-17.216-34.729-79.418-164.166-46.354-190.012
				c22.999-17.978,87.191,17.997,123.632,47.344c57.472,46.284,51.654,80.701,109.972,115.918
				c20.574,12.425,63.399,38.286,105.019,21.796C1657.416,1179.259,1671.975,1154.153,1677.995,1141.793z"/>
			
				<linearGradient id="SVGID_00000046316374658729628550000007537044461718371749_" gradientUnits="userSpaceOnUse" x1="1641.1748" y1="1402.8953" x2="1463.2102" y2="1085.3506">
				<stop  offset="0" style="stop-color:#FF9085"/>
				<stop  offset="1" style="stop-color:#FB6FBB"/>
			</linearGradient>
			<path style="fill:url(#SVGID_00000046316374658729628550000007537044461718371749_);" d="M1677.995,1141.793
				c5.944,7.925,11.889,15.851,17.833,23.778c-4.006,16.624-17.193,61.691-59.445,98.084c-5.883,5.067-56.397,47.249-128.797,44.583
				c-109.848-4.045-167.52-107.555-170.408-112.945c-17.216-34.729-79.418-164.166-46.354-190.012
				c22.999-17.978,87.191,17.997,123.632,47.344c57.472,46.284,51.654,80.701,109.972,115.918
				c20.574,12.425,63.399,38.286,105.019,21.796C1657.416,1179.259,1671.975,1154.153,1677.995,1141.793z"/>
			
				<linearGradient id="SVGID_00000181767269874322591920000004938764678538429119_" gradientUnits="userSpaceOnUse" x1="1003.9489" y1="1583.811" x2="1364.5309" y2="1223.2291">
				<stop  offset="0" style="stop-color:#FF9085"/>
				<stop  offset="1" style="stop-color:#FB6FBB"/>
			</linearGradient>
			<path style="fill:url(#SVGID_00000181767269874322591920000004938764678538429119_);" d="M1389.687,1622.305
				c19.818-12.877,23.446-40.219,24.878-56.38c8.641-97.546-28.113-178.713-33.795-296.325c-1.719-35.578,0.92-43.165-1.981-99.075
				c-5.96-114.859-19.839-135.755-31.704-147.621c-28.726-28.727-70.494-29.36-95.113-29.734
				c-9.797-0.149-100.265-0.356-135.948,56.201c-27.008,42.808,9.367,67.422-1.765,146.914
				c-13.584,97.002-84.059,176.821-100.066,194.187c-23.081,25.041-44.885,41.721-63.407,80.25
				c-18.225,37.91-9.526,47.58-26.75,79.26c-31.621,58.158-84.609,69.109-79.26,90.158c4.116,16.202,38.755,22.477,61.426,21.796
				c33.639-1.008,42.637-17.377,71.546-24.818c55.974-14.407,74.541,33.499,131.557,27.79c63.919-6.4,68.539-69.407,125.825-67.371
				c31.402,1.117,42.891,20.508,108.982,29.723C1362.652,1629.844,1377.132,1630.463,1389.687,1622.305z"/>
			
				<linearGradient id="SVGID_00000160170368749182103250000009576053459983635896_" gradientUnits="userSpaceOnUse" x1="4498.9458" y1="1391.2568" x2="5067.9277" y2="1391.2568" gradientTransform="matrix(-1 0 0 1 5914.8198 0)">
				<stop  offset="0" style="stop-color:#FF9085"/>
				<stop  offset="1" style="stop-color:#FB6FBB"/>
			</linearGradient>
			<path style="opacity:0.3;fill:url(#SVGID_00000160170368749182103250000009576053459983635896_);" d="M886.388,1642.12
				c38.459-11.688,45.146-44.751,90.159-53.5c42.534-8.266,55.609,17.556,90.158,5.944c41.31-13.884,33.507-54.463,73.315-72.324
				c51.549-23.128,101.279,28.479,131.769,2.972c19.383-16.213,1.494-38.915,22.787-76.287
				c23.332-40.949,57.098-35.264,74.306-69.352c16.433-32.555-2.539-61.159-10.898-107.992
				c-6.288-35.23-7.505-86.577,16.867-154.449c1.531,15.091,2.865,32.696,3.939,53.393c2.901,55.91,0.262,63.497,1.981,99.075
				c5.682,117.613,42.436,198.779,33.795,296.325c-1.432,16.162-5.061,43.504-24.878,56.38c-12.555,8.157-27.035,7.539-45.574,4.954
				c-66.091-9.215-77.58-28.606-108.982-29.723c-57.285-2.036-61.906,60.97-125.825,67.371
				c-57.016,5.709-75.583-42.197-131.557-27.79c-28.908,7.44-37.906,23.81-71.546,24.818c-20.458,0.614-50.584-4.463-59.311-17.359
				C862.855,1646.928,875.857,1645.321,886.388,1642.12z"/>
			
				<linearGradient id="SVGID_00000015333701167011368150000002212884758809217668_" gradientUnits="userSpaceOnUse" x1="4663.0894" y1="1036.8018" x2="4745.9341" y2="897.3691" gradientTransform="matrix(-1 0 0 1 5914.8198 0)">
				<stop  offset="0" style="stop-color:#FFC444"/>
				<stop  offset="0.9964" style="stop-color:#F36F56"/>
			</linearGradient>
			<path style="fill:url(#SVGID_00000015333701167011368150000002212884758809217668_);" d="M1221.131,945.74
				c0,0-0.861,36.963-11.76,45.219c-6.897,5.225-18.158,10.545-25.497,13.749c-2.219,0.968-1.891,4.201,0.47,4.733l63.172,14.247
				c3.007,0.752,6.193,0.018,8.568-1.974l24.301-20.374c1.656-1.389,0.761-4.089-1.397-4.213l-20.665-1.186
				c-9.265-1.957-16.479-9.236-18.353-18.518l2.244-27.661L1221.131,945.74z"/>
			
				<linearGradient id="SVGID_00000183959369486396297030000001772303788504740778_" gradientUnits="userSpaceOnUse" x1="4449.0332" y1="608.786" x2="4625.5527" y2="502.5139" gradientTransform="matrix(-0.9018 -0.4322 -0.4322 0.9018 5524.2324 2331.488)">
				<stop  offset="0" style="stop-color:#FFC444"/>
				<stop  offset="0.9964" style="stop-color:#F36F56"/>
			</linearGradient>
			<path style="fill:url(#SVGID_00000183959369486396297030000001772303788504740778_);" d="M1219.368,954.579
				c0,0,3.471,18.781,22.155,20.603c16.73,1.632,25.86-39.222,16.575-48.832c-3.097-3.206-10.313-5.903-16.321-5.235
				c-4.225,0.47-18.083,7.098-18.9,21.577c-3.098-2.767-6.718-3.339-8.365-1.937c-2.09,1.777-0.518,6.315-0.164,7.343
				C1215.582,951.661,1218.144,953.72,1219.368,954.579z"/>
			<g>
				
					<linearGradient id="SVGID_00000106122601531691809260000011666279329090247045_" gradientUnits="userSpaceOnUse" x1="1836.2043" y1="1189.0254" x2="1558.7892" y2="979.6552">
					<stop  offset="0.0036" style="stop-color:#26264F"/>
					<stop  offset="1" style="stop-color:#444B8C"/>
				</linearGradient>
				<path style="fill:url(#SVGID_00000106122601531691809260000011666279329090247045_);" d="M1738.116,1126.411
					c18.418,9.351,41.557,0.765,51.683-19.178c10.125-19.943,3.403-43.69-15.015-53.042c-0.955-0.485-1.928-0.892-2.905-1.281
					c3.422-11.036,6.002-22.157,7.732-33.283c1.056-0.003,2.115-0.02,3.191-0.117c21.013-1.873,37.69-21.182,37.25-43.129
					c-0.44-21.947-17.831-38.22-38.844-36.347c-1.098,0.099-2.177,0.272-3.249,0.462c-2.195-10.876-5.203-21.5-8.996-31.783
					c0.966-0.565,1.928-1.15,2.867-1.808c17.977-12.595,23.726-37.454,12.838-55.524c-10.887-18.069-34.288-22.507-52.266-9.913
					c-0.92,0.646-1.788,1.343-2.644,2.05c-7.101-7.849-14.889-15.124-23.315-21.763c0.592-0.972,1.172-1.956,1.697-2.989
					c10.126-19.943,23.357-41.728,4.795-50.79c-42.94-20.962-61.366-3.017-71.492,16.926c-0.524,1.033-0.976,2.082-1.411,3.134
					c-10.333-2.885-20.801-4.88-31.328-5.98c0.065-1.109,0.117-2.22,0.094-3.345c-0.44-21.946,6.072-33.823-15.021-34.233
					c-45.996-0.894-61.514,19.07-61.074,41.016c0.022,1.148,0.119,2.269,0.232,3.383c-10.541,3.004-20.893,6.846-30.969,11.492
					c-0.479-0.979-0.976-1.951-1.545-2.897c-10.887-18.07-34.287-22.508-52.266-9.912c-17.978,12.596-23.725,37.455-12.838,55.524
					c0.558,0.926,1.168,1.792,1.789,2.646c-7.962,7.962-15.417,16.607-22.307,25.882c-0.891-0.559-1.794-1.105-2.748-1.589
					c-18.418-9.352-41.557-0.765-51.683,19.178c-10.125,19.943-3.403,43.691,15.015,53.041c0.955,0.485,1.929,0.892,2.905,1.282
					c-3.422,11.035-6.002,22.156-7.732,33.282c-1.056,0.003-2.115,0.02-3.191,0.116c-21.014,1.874-37.691,21.183-37.251,43.13
					c0.44,21.946,17.832,38.218,38.845,36.345c1.097-0.097,2.176-0.27,3.249-0.461c2.195,10.876,5.202,21.5,8.996,31.783
					c-0.966,0.565-1.928,1.15-2.867,1.808c-17.978,12.594-23.726,37.454-12.838,55.524c10.887,18.069,46.933,26.464,64.91,13.869
					c0.922-0.646-10.857-5.3-10.001-6.007c7.102,7.849,14.889,15.124,23.315,21.763c-0.592,0.971-1.172,1.956-1.697,2.988
					c-10.126,19.943-3.403,43.69,15.015,53.042c18.418,9.351,41.557,0.765,51.682-19.178c0.524-1.033,0.976-2.082,1.411-3.133
					c10.332,2.884,20.801,4.879,31.328,5.98c-0.066,1.109-0.117,2.219-0.094,3.345c0.44,21.946,17.831,38.219,38.844,36.346
					c21.013-1.874,37.691-21.183,37.25-43.129c-0.023-1.147-0.119-2.268-0.233-3.382c10.541-3.004,20.893-6.846,30.969-11.492
					c0.478,0.979,0.976,1.952,1.545,2.896c10.887,18.07,34.287,22.509,52.266,9.913c17.978-12.596,23.725-37.454,12.838-55.525
					c-0.558-0.925-1.169-1.79-1.79-2.645c7.961-7.962,15.418-16.608,22.307-25.883
					C1736.259,1125.381,1737.162,1125.927,1738.116,1126.411z M1508.519,1129.324c-66.871-33.952-91.279-120.173-54.516-192.581
					c36.763-72.409,120.776-103.583,187.647-69.631c66.871,33.952,91.28,120.174,54.516,192.582
					C1659.403,1132.102,1575.391,1163.277,1508.519,1129.324z"/>
				
					<linearGradient id="SVGID_00000077322098349397629550000000145765080421789117_" gradientUnits="userSpaceOnUse" x1="1847.4554" y1="1174.118" x2="1570.0392" y2="964.747">
					<stop  offset="0.0036" style="stop-color:#26264F"/>
					<stop  offset="1" style="stop-color:#444B8C"/>
				</linearGradient>
				<path style="fill:url(#SVGID_00000077322098349397629550000000145765080421789117_);" d="M1782.803,1019.512
					c21.013-1.874,37.69-21.183,37.25-43.13c-0.44-21.946-17.831-38.22-38.844-36.347c-1.098,0.098-2.177,0.272-3.249,0.462
					c-2.195-10.876-5.203-21.5-8.996-31.783c0.966-0.565,1.928-1.15,2.867-1.809c17.977-12.594,40.22-43.028,27.536-59.885
					c-24.073-31.994-48.986-18.145-66.964-5.551c-0.92,0.646-1.788,1.342-2.644,2.05c-7.101-7.85-14.889-15.123-23.315-21.763
					c0.592-0.971,1.172-1.955,1.697-2.988c5.511-10.853,5.998-22.82,2.358-32.994c-17.365,30.562-34.495,61.253-51.319,92.111
					c53.348,39.092,70.333,116.13,36.987,181.809c-28.258,55.656-84.429,86.908-139.276,82.992
					c-2.447,6.345-4.849,12.724-7.469,19.008c-7.11,17.052-15.186,33.754-23.273,50.434c5.085,0.959,10.194,1.714,15.317,2.25
					c-0.066,1.109-0.118,2.22-0.095,3.345c0.44,21.947,13.764,40.593,51.848,38.573c21.067-1.117,24.688-23.41,24.247-45.356
					c-0.023-1.146-0.119-2.268-0.232-3.382c10.54-3.004,20.892-6.847,30.968-11.492c0.478,0.979,0.976,1.952,1.545,2.896
					c10.887,18.071,48.658,25.748,66.635,13.152c17.979-12.595,9.355-40.693-1.531-58.764c-0.558-0.926-1.169-1.791-1.79-2.645
					c7.961-7.962,15.418-16.608,22.307-25.882c0.891,0.56,1.795,1.105,2.749,1.589c18.418,9.353,41.557,0.765,51.683-19.178
					c10.125-19.942,3.403-43.69-15.015-53.042c-0.955-0.484-1.928-0.891-2.905-1.28c3.422-11.036,6.002-22.158,7.732-33.282
					C1780.667,1019.625,1781.726,1019.608,1782.803,1019.512z"/>
				
					<linearGradient id="SVGID_00000063612638314874347540000008727780889598568588_" gradientUnits="userSpaceOnUse" x1="1349.9169" y1="1000.4709" x2="1839.8716" y2="1000.4709">
					<stop  offset="0" style="stop-color:#AA80F9"/>
					<stop  offset="0.9964" style="stop-color:#6165D7"/>
				</linearGradient>
				<path style="fill:url(#SVGID_00000063612638314874347540000008727780889598568588_);" d="M1757.926,1128.664
					c18.418,9.351,41.557,0.765,51.682-19.178c10.125-19.943,3.403-43.69-15.015-53.042c-0.954-0.485-1.928-0.892-2.905-1.281
					c3.422-11.035,6.002-22.157,7.732-33.282c1.056-0.003,2.115-0.021,3.192-0.117c21.013-1.873,37.69-21.182,37.251-43.129
					c-0.44-21.947-17.831-38.221-38.845-36.347c-1.099,0.099-2.177,0.272-3.25,0.462c-2.195-10.876-5.203-21.5-8.997-31.783
					c0.967-0.566,1.929-1.15,2.868-1.809c17.978-12.595,23.726-37.454,12.838-55.524c-10.888-18.07-34.288-22.508-52.266-9.913
					c-0.922,0.646-1.789,1.343-2.645,2.05c-7.101-7.85-14.889-15.125-23.315-21.763c0.593-0.971,1.173-1.956,1.697-2.989
					c10.125-19.943,3.403-43.69-15.015-53.042c-18.418-9.351-41.557-0.764-51.683,19.179c-0.524,1.033-0.976,2.082-1.411,3.134
					c-10.332-2.885-20.801-4.88-31.328-5.981c0.066-1.109,0.117-2.22,0.095-3.344c-0.441-21.946-17.832-38.219-38.845-36.346
					c-21.013,1.873-37.691,21.183-37.25,43.129c0.023,1.148,0.119,2.269,0.233,3.383c-10.54,3.005-20.892,6.846-30.968,11.492
					c-0.479-0.978-0.976-1.951-1.545-2.896c-10.888-18.07-34.288-22.508-52.266-9.912c-17.979,12.596-23.725,37.454-12.838,55.524
					c0.557,0.926,1.168,1.792,1.789,2.646c-7.962,7.962-15.418,16.608-22.307,25.882c-0.891-0.558-1.794-1.104-2.749-1.589
					c-18.418-9.352-41.557-0.765-51.682,19.178c-10.125,19.943-3.403,43.691,15.015,53.042c0.954,0.484,1.928,0.891,2.905,1.281
					c-3.422,11.035-6.003,22.156-7.732,33.282c-1.056,0.003-2.115,0.02-3.192,0.115c-21.013,1.874-37.691,21.183-37.251,43.13
					c0.44,21.948,17.832,38.219,38.845,36.346c1.098-0.097,2.177-0.27,3.249-0.461c2.195,10.876,5.202,21.501,8.997,31.783
					c-0.967,0.565-1.929,1.149-2.868,1.808c-17.977,12.594-23.725,37.454-12.838,55.523c10.888,18.07,34.289,22.508,52.266,9.912
					c0.921-0.645,1.788-1.342,2.645-2.049c7.1,7.849,14.889,15.124,23.314,21.763c-0.593,0.971-1.172,1.956-1.697,2.988
					c-10.125,19.943-3.403,43.69,15.015,53.042c18.419,9.351,41.557,0.765,51.683-19.178c0.524-1.033,0.976-2.083,1.411-3.133
					c10.332,2.885,20.801,4.879,31.328,5.98c-0.066,1.108-0.117,2.219-0.095,3.344c0.441,21.946,17.832,38.219,38.845,36.346
					c21.013-1.873,37.691-21.183,37.251-43.129c-0.023-1.147-0.119-2.269-0.232-3.382c10.541-3.004,20.892-6.846,30.968-11.492
					c0.479,0.979,0.976,1.952,1.545,2.895c10.888,18.07,34.288,22.509,52.266,9.913c17.978-12.596,23.725-37.454,12.838-55.525
					c-0.558-0.925-1.169-1.791-1.79-2.645c7.962-7.962,15.418-16.608,22.307-25.882
					C1756.069,1127.634,1756.971,1128.18,1757.926,1128.664z M1528.329,1131.577c-66.872-33.952-91.279-120.173-54.517-192.582
					c36.763-72.408,120.776-103.582,187.647-69.63c66.872,33.952,91.28,120.174,54.516,192.582
					C1679.213,1134.355,1595.2,1165.529,1528.329,1131.577z"/>
			</g>
			<g>
				
					<linearGradient id="SVGID_00000072253345013165267330000016248175308869763980_" gradientUnits="userSpaceOnUse" x1="1401.0614" y1="1245.0592" x2="1435.9565" y2="1346.2549">
					<stop  offset="0" style="stop-color:#FFC444"/>
					<stop  offset="0.9964" style="stop-color:#F36F56"/>
				</linearGradient>
				<path style="fill:url(#SVGID_00000072253345013165267330000016248175308869763980_);" d="M1347.975,1162.489l-7.349-29.99
					c-1.139-4.648,0.825-9.424,5.269-12.685c10.702-7.852,13.344-13.958,19.682-15.67c11.573-3.123,17.224,5.399,8.754,8.917
					c-8.47,3.519-14.971,10.451-11.487,22.716C1366.327,1148.042,1359.709,1158.487,1347.975,1162.489z"/>
				
					<linearGradient id="SVGID_00000018924675839146736830000007908130352364490380_" gradientUnits="userSpaceOnUse" x1="1257.1749" y1="1295.955" x2="1051.2938" y2="908.62">
					<stop  offset="0" style="stop-color:#FF9085"/>
					<stop  offset="1" style="stop-color:#FB6FBB"/>
				</linearGradient>
				<path style="fill:url(#SVGID_00000018924675839146736830000007908130352364490380_);" d="M1367.23,1163.259
					c-10.127-6.384-20.255-12.77-30.383-19.155c-4.636,10.263-19.99,40.685-54.821,57.464
					c-30.584,14.732-79.242,20.42-101.056-3.302c-22.46-24.426-18.711-68.932-13.21-119.55c4.082-37.562,11.978-59.075,1.981-65.719
					c-10.038-6.672-30.445,6.744-52.84,21.467c-12.265,8.063-34.966,22.987-50.266,41.664
					c-34.651,42.301-46.745,122.644-7.197,186.867c29.753,48.317,85.967,82.794,145.26,79.744
					C1286.493,1338.528,1360.544,1263.603,1367.23,1163.259z"/>
			</g>
		</g>
		<g>
			<path style="fill:#A2A7AE;" d="M1545.326,3141.021c-3.186,0-5.769-2.583-5.769-5.769v-955.636c0-3.186,2.583-5.769,5.769-5.769
				s5.769,2.583,5.769,5.769v955.636C1551.095,3138.438,1548.512,3141.021,1545.326,3141.021z"/>
			<path style="fill:#A2A7AE;" d="M1053.408,3121.374c-3.186,0-5.769-2.583-5.769-5.769v-935.989c0-3.186,2.583-5.769,5.769-5.769
				c3.186,0,5.769,2.583,5.769,5.769v935.989C1059.177,3118.791,1056.594,3121.374,1053.408,3121.374z"/>
			<path style="fill:#A2A7AE;" d="M1103.081,3253.032c-0.513,0-1.034-0.07-1.554-0.213c-3.069-0.857-4.863-4.038-4.007-7.109
				l295.396-1059.07c0.857-3.067,4.035-4.851,7.108-4.007c3.069,0.857,4.863,4.038,4.008,7.108l-295.396,1059.07
				C1107.923,3251.363,1105.606,3253.032,1103.081,3253.032z"/>
			<path style="fill:#A2A7AE;" d="M646.091,3200.976c-0.55,0-1.109-0.08-1.663-0.245c-3.052-0.918-4.781-4.135-3.864-7.187
				L943.23,2186.53c0.917-3.05,4.135-4.771,7.187-3.864c3.052,0.918,4.781,4.135,3.864,7.187L651.615,3196.866
				C650.863,3199.363,648.572,3200.976,646.091,3200.976z"/>
			<polygon style="fill:#D8DEE8;" points="931.393,2189.051 1402.556,2197.626 1553.525,2189.051 1553.525,2170.182 
				1202.454,2164.139 931.393,2170.182 			"/>
			
				<linearGradient id="SVGID_00000166670982371068729720000017247834972967608471_" gradientUnits="userSpaceOnUse" x1="4547.54" y1="2183.3193" x2="4098.8442" y2="2184.8354" gradientTransform="matrix(-1 0 0 1 5541.5181 0)">
				<stop  offset="0.494" style="stop-color:#EBEFF2"/>
				<stop  offset="1" style="stop-color:#FFFFFF"/>
			</linearGradient>
			<polygon style="fill:url(#SVGID_00000166670982371068729720000017247834972967608471_);" points="931.393,2189.051 
				1402.556,2197.626 1402.556,2178.758 931.393,2170.182 			"/>
			<path style="fill:#A2A7AE;" d="M1334.69,2422.659c-0.092,0-0.184-0.002-0.278-0.007l-443.867-20.981
				c-3.183-0.15-5.641-2.852-5.49-6.035c0.15-3.183,2.835-5.665,6.035-5.49l443.867,20.981c3.183,0.15,5.641,2.852,5.49,6.035
				C1340.302,2420.251,1337.75,2422.659,1334.69,2422.659z"/>
			<path style="fill:#A2A7AE;" d="M1275.968,2633.193c-0.109,0-0.22-0.003-0.33-0.009l-451.391-25.553
				c-3.181-0.181-5.614-2.905-5.435-6.086c0.179-3.181,2.897-5.606,6.086-5.435l451.391,25.553c3.181,0.181,5.614,2.905,5.435,6.086
				C1281.55,2630.819,1279.004,2633.193,1275.968,2633.193z"/>
			<path style="fill:#A2A7AE;" d="M1217.582,2842.522c-0.124,0-0.25-0.003-0.377-0.012l-454.657-29.386
				c-3.181-0.206-5.592-2.949-5.386-6.129c0.206-3.179,2.932-5.592,6.129-5.386l454.657,29.386c3.181,0.206,5.592,2.949,5.386,6.129
				C1223.136,2840.177,1220.599,2842.522,1217.582,2842.522z"/>
			<path style="fill:#A2A7AE;" d="M1159.531,3050.653c-0.147,0-0.295-0.005-0.443-0.017l-457.44-34.619
				c-3.176-0.24-5.558-3.011-5.316-6.188c0.24-3.178,3.018-5.57,6.188-5.316l457.44,34.619c3.176,0.24,5.558,3.011,5.316,6.188
				C1165.048,3048.348,1162.52,3050.653,1159.531,3050.653z"/>
		</g>
	</g>
</g>
</svg>
