<?xml version="1.0" encoding="utf-8"?>
<!-- Generator: Adobe Illustrator 27.5.0, SVG Export Plug-In . SVG Version: 6.00 Build 0)  -->
<svg version="1.1" xmlns="http://www.w3.org/2000/svg" xmlns:xlink="http://www.w3.org/1999/xlink" x="0px" y="0px"
	 viewBox="0 0 3710 3710" style="enable-background:new 0 0 3710 3710;" xml:space="preserve">
<g id="Background">
	<g>
		<g>
			<rect style="fill:#FFFFFF;" width="3710" height="3710"/>
		</g>
	</g>
</g>
<g id="Illustration">
	<g>
		<path style="fill:#F4F7FA;" d="M1124.992,617.637c-95.811,134.132,12.558,354.367-128.57,454.518
			c-137.377,97.49-303.157-66.422-432.541,17.38c-191.935,124.315-163.208,702.699,111.689,1064.764
			c82.67,108.885,152.255,151.645,181.983,274.118c63.837,262.982-171.857,416.541-128.682,546.729
			c97.215,293.137,1636.99,554.455,2265.086-316.836c293.346-406.929,342.821-998.474,89.309-1450.818
			C2625.175,390.111,1339.977,316.671,1124.992,617.637z"/>
		<g>
			<g>
				
					<linearGradient id="SVGID_1_" gradientUnits="userSpaceOnUse" x1="-1907.5209" y1="466.0331" x2="-1090.1454" y2="2613.7571" gradientTransform="matrix(-0.9526 -0.3041 -0.3041 0.9526 1198.1394 207.51)">
					<stop  offset="0" style="stop-color:#FF9085"/>
					<stop  offset="1" style="stop-color:#FB6FBB"/>
				</linearGradient>
				<path style="fill:url(#SVGID_1_);" d="M2027.328,2656.159c16.297,84.758-36.148,152.448-81.06,195.613
					c-7.688-1.862-12.677-0.84-20.903-0.882c-74.242-0.375-104.921-17.205-177.372-29.749c-15.594-2.7-58.263-25.43-75.066-35.931
					l-30.996-20.122c0,0-14.2-199.838,93.042-227.398s116.788-220.556,133.812-322.874
					c46.19-277.616,334.263-179.713,422.134-531.714c23.371-93.622,36.635-279.979,134.131-334.935
					c111.075-62.611,156.014,37.073,231.516-19.606c118.007-88.587,274.6-91.957,333.618,44.081
					c58.249,134.263-102.442,332.749-407.986,448.42c-209.8,107.813-223.708,152.249-237.454,265.462
					c-9.629,79.3,13.929,297.97-110.4,352.036C2110.015,2492.629,2008.698,2559.265,2027.328,2656.159z"/>
				<g>
					<defs>
						<path id="SVGID_00000042700412134347600110000012697334037895812282_" d="M1885.358,2902.699l-239.389-129.472
							c0,0-18.238-207.977,89.003-235.537c107.241-27.56,116.789-220.555,133.812-322.874
							c46.19-277.616,334.263-179.712,422.133-531.714c23.371-93.622,36.635-279.979,134.131-334.935
							c111.075-62.61,156.014,37.073,231.516-19.606c118.007-88.587,274.6-91.956,333.618,44.081
							c58.249,134.263-102.442,332.749-407.986,448.42c-209.8,107.814-223.707,152.249-237.454,265.462
							c-9.629,79.3,13.929,297.97-110.4,352.037c-124.328,54.067-225.646,120.703-207.016,217.597
							C2055.676,2803.595,1885.358,2902.699,1885.358,2902.699z"/>
					</defs>
					<clipPath id="SVGID_00000054256497729665873430000004143412469106777985_">
						<use xlink:href="#SVGID_00000042700412134347600110000012697334037895812282_"  style="overflow:visible;"/>
					</clipPath>
					<g style="opacity:0.5;clip-path:url(#SVGID_00000054256497729665873430000004143412469106777985_);">
						<path style="fill:#FCFDFE;" d="M1784.337,2833.219l-5.034-1.94c11.557-29.999,23.583-60.111,35.742-89.499
							c90.05-217.584,197.15-418.888,318.334-598.323c102.684-152.039,216.889-290.54,339.443-411.656
							c98.558-97.401,203.028-184.137,310.508-257.801c75.558-51.783,151.809-96.621,226.641-133.263
							c13.04-6.388,26.732-12.191,39.975-17.803c17.643-7.477,35.888-15.208,52.725-24.386l2.58,4.738
							c-17.069,9.304-35.436,17.088-53.199,24.617c-13.177,5.584-26.802,11.359-39.709,17.681
							c-74.596,36.527-150.621,81.23-225.964,132.868c-107.214,73.48-211.433,160.012-309.765,257.188
							c-122.302,120.866-236.28,259.092-338.765,410.838c-120.98,179.131-227.908,380.115-317.817,597.363
							C1807.887,2773.189,1795.878,2803.258,1784.337,2833.219z"/>
						<path style="fill:#FCFDFE;" d="M2333.621,1889.137l-4.189-3.401c146.051-179.727,155.687-576.466,155.765-580.452l5.395,0.107
							C2490.512,1309.397,2480.84,1707.972,2333.621,1889.137z"/>
						<path style="fill:#FCFDFE;" d="M1969.135,2427.719l-4.555-2.892c84.965-133.755,386.03-178.453,389.061-178.89l0.769,5.343
							C2351.404,2251.713,2052.771,2296.054,1969.135,2427.719z"/>
						<path style="fill:#FCFDFE;" d="M1927.488,2507.779l-4.993-2.044c39.147-95.744,41.379-247.23,6.281-426.548
							c-1.765-9.017-1.765-9.017-1.39-9.97l5.02,1.981l-2.51-0.991l2.687-0.021c0.049,0.614,0.714,4.018,1.489,7.964
							C1969.367,2258.492,1967.031,2411.069,1927.488,2507.779z"/>
						<path style="fill:#FCFDFE;" d="M1806.202,2778.77l-4.2-3.385c71.492-88.707,240.474-88.716,242.171-88.706l-0.03,5.396
							C2042.469,2692.066,1876.058,2692.096,1806.202,2778.77z"/>
						<path style="fill:#FCFDFE;" d="M1776.32,2831.658c1.886-91.851-22.54-187.248-74.672-291.64l4.83-2.412
							c52.53,105.195,77.14,201.417,75.236,294.163L1776.32,2831.658z"/>
						<path style="fill:#FCFDFE;" d="M2723.792,1522.875l-3.99-3.63c86.771-95.4,155.816-215.738,178.504-255.281
							c5.492-9.573,7.437-12.935,8.317-13.989l4.138,3.461c-0.662,0.813-3.801,6.285-7.775,13.214
							C2880.225,1306.319,2810.96,1427.04,2723.792,1522.875z"/>
						<path style="fill:#FCFDFE;" d="M2559.765,1657.119l-2.744-4.646c104.107-61.532,338.142-0.545,348.054,2.081l-1.384,5.216
							C2901.287,1659.134,2661.928,1596.737,2559.765,1657.119z"/>
					</g>
				</g>
			</g>
			<g>
				<defs>
					<path id="SVGID_00000093870876123067655210000007701170758759332499_" d="M1759.407,2930.335l213.201,129.963
						c0,0,106.802-84.903,101.604-193.935c-10.605-222.46,184.973-216.222,267.279-225.863
						c124.125-14.541,227.167-81.487,128.714-197.994s142.443-232.308,346.289-226.9c199.477,5.292,323.99-346.247-106.702-397.344
						c-257.208-30.515-355.676,201.885-433.302,307.424c-77.626,105.539-248.997,13.722-275.261,184.445
						c-22.434,145.829,17.94,286.745-101.056,323.867C1781.177,2671.119,1719.265,2756.33,1759.407,2930.335z"/>
				</defs>
				<clipPath id="SVGID_00000117640055428430940180000007038782046549853589_">
					<use xlink:href="#SVGID_00000093870876123067655210000007701170758759332499_"  style="overflow:visible;"/>
				</clipPath>
				
					<linearGradient id="SVGID_00000015349501941235565980000014286212162520782219_" gradientUnits="userSpaceOnUse" x1="6652.604" y1="441.0246" x2="6155.5415" y2="1853.7302" gradientTransform="matrix(0.8539 0.5205 -0.5205 0.8539 -2557.9978 -1919.8285)">
					<stop  offset="0.0036" style="stop-color:#E38DDD"/>
					<stop  offset="1" style="stop-color:#9571F6"/>
				</linearGradient>
				
					<path style="clip-path:url(#SVGID_00000117640055428430940180000007038782046549853589_);fill:url(#SVGID_00000015349501941235565980000014286212162520782219_);" d="
					M1759.407,2930.335l213.201,129.963c0,0,106.802-84.903,101.604-193.935c-10.605-222.46,184.973-216.222,267.279-225.863
					c124.125-14.541,212.955-76.941,145.5-193.665c-76.322-132.067,125.657-236.637,329.503-231.229
					c199.477,5.292,323.99-346.247-106.702-397.344c-257.208-30.515-355.676,201.885-433.302,307.424
					c-77.626,105.539-248.997,13.722-275.261,184.445c-22.434,145.829,17.94,286.745-101.056,323.867
					C1781.177,2671.119,1719.265,2756.33,1759.407,2930.335z"/>
				<g style="opacity:0.5;clip-path:url(#SVGID_00000117640055428430940180000007038782046549853589_);">
					<path style="fill:#BEB8F2;" d="M1839.619,3006.371l4.922,1.887c1.169-3.049,119.295-307.831,327.502-574.663
						c191.813-245.825,501.559-508.804,887.898-365.63l1.832-4.942c-171.98-63.736-343.333-53.679-509.3,29.886
						c-132.579,66.755-261.995,180.315-384.652,337.527C1959.156,2697.89,1840.792,3003.316,1839.619,3006.371z"/>
					<path style="fill:#BEB8F2;" d="M2484.628,2130.825l4.808,2.165c72.11-159.938,257.467-336.579,259.33-338.345l-3.623-3.828
						C2743.27,1792.591,2557.161,1969.949,2484.628,2130.825z"/>
					<path style="fill:#BEB8F2;" d="M2596.738,2078.176c209.057-2.039,323.005,129.547,324.13,130.876l4.021-3.406
						c-1.141-1.351-116.583-134.805-328.203-132.742L2596.738,2078.176z"/>
					<path style="fill:#BEB8F2;" d="M2045.429,2615.457c179.68-181.527,500.017-57.637,503.037-56.169l2.607-4.575
						c-2.827-1.721-328.116-126.103-509.39,57.037L2045.429,2615.457z"/>
					<path style="fill:#BEB8F2;" d="M2098.851,2524.692l4.968,1.769c54.717-153.524-35.929-337.368-36.852-339.209l-4.712,2.362
						C2063.168,2191.436,2152.809,2373.312,2098.851,2524.692z"/>
					<path style="fill:#BEB8F2;" d="M1864.185,2960.707c56.838-78.638,214.626-72.155,216.213-72.082l0.248-5.263
						c-6.594-0.313-162.218-6.701-220.732,74.258L1864.185,2960.707z"/>
					<path style="fill:#BEB8F2;" d="M1891.188,2888.156l4.899,1.946c28.337-71.293-25.419-202.724-43.084-245.912
						c-2.496-6.104-4.651-11.372-4.85-12.387l-5.186,0.942c0.26,1.435,1.683,4.941,5.158,13.44
						C1865.59,2688.888,1918.74,2818.838,1891.188,2888.156z"/>
				</g>
			</g>
			<g>
				
					<linearGradient id="SVGID_00000111160933394231886080000012253864981082109835_" gradientUnits="userSpaceOnUse" x1="2757.4773" y1="2159.7532" x2="1485.6257" y2="3988.0391">
					<stop  offset="0" style="stop-color:#FF9085"/>
					<stop  offset="1" style="stop-color:#FB6FBB"/>
				</linearGradient>
				<path style="fill:url(#SVGID_00000111160933394231886080000012253864981082109835_);" d="M2135.975,3127.703
					c-1.026,0.202-2.055,0.4-3.085,0.596c-60.928,11.579-129.559,13.471-206.224-0.481c-14.752-3.774-29.504-7.548-44.257-11.322
					c-4.68-38.029-2.323-75.035,45.94-78.782c74.951-5.82,103.454-129.258,93.636-177.232
					c-12.151-59.38-37.605-198.224,78.124-209.043c96.344-9.008,160.355,4.871,191.796-109.86
					c31.442-114.73,110.488-173.447,214.282-143.754c109.227,31.248,232.007-96.577,312.104-27.598
					c139.564,120.194-59.107,345.025-267.509,377.51c-208.402,32.486-113.062,125.682-128.436,221.815
					c-20.989,131.24-190.345,65.575-247.692,106.507C2155.23,3089.922,2143.252,3108.365,2135.975,3127.703z"/>
				<g>
					<defs>
						<path id="SVGID_00000083046447263531234650000014082435337702265499_" d="M2125.615,3200.289l-241.014-54.15
							c-6.374-37.272-10.161-104.239,43.749-108.425c74.951-5.82,103.453-129.257,93.636-177.233
							c-12.151-59.379-37.605-198.223,78.124-209.043c96.344-9.008,160.355,4.871,191.796-109.86
							c31.442-114.73,110.488-173.447,214.282-143.754c109.227,31.247,232.007-96.577,312.104-27.597
							c139.564,120.193-59.107,345.023-267.509,377.51c-208.402,32.485-113.062,125.682-128.437,221.814
							c-20.989,131.241-190.344,65.575-247.692,106.507C2129.698,3108.146,2124.504,3164.727,2125.615,3200.289z"/>
					</defs>
					<clipPath id="SVGID_00000111164796972926938200000007882203914374510266_">
						<use xlink:href="#SVGID_00000083046447263531234650000014082435337702265499_"  style="overflow:visible;"/>
					</clipPath>
					<g style="opacity:0.5;clip-path:url(#SVGID_00000111164796972926938200000007882203914374510266_);">
						<path style="fill:#FCFDFE;" d="M2020.65,3136.881l-4.899-2.159c157.923-358.063,488.85-637.728,863.64-729.857l1.277,5.198
							C2507.458,2501.804,2177.917,2780.306,2020.65,3136.881z"/>
						<path style="fill:#FCFDFE;" d="M2123.473,2949.039l-5.228-1.149c33.053-150.202-69.769-295.58-70.812-297.031l4.347-3.124
							C2052.837,2649.204,2157.046,2796.469,2123.473,2949.039z"/>
						<path style="fill:#FCFDFE;" d="M2051.497,3071.805l-4.055-3.495c101.797-118.107,382.658-76.189,385.483-75.751l-0.819,5.29
							C2429.312,2997.417,2151.358,2955.943,2051.497,3071.805z"/>
						<path style="fill:#FCFDFE;" d="M2380.739,2664.533l-4.341-3.135c72.463-100.246,37.656-286.697,37.296-288.569l5.255-1.014
							C2419.315,2373.71,2454.541,2562.436,2380.739,2664.533z"/>
						<path style="fill:#FCFDFE;" d="M2586.308,2524.844l-1.759-5.057c133.131-46.271,306,33.517,307.733,34.332l-2.272,4.847
							C2888.3,2558.16,2717.364,2479.293,2586.308,2524.844z"/>
					</g>
				</g>
			</g>
		</g>
		<g>
			<path style="opacity:0.75;fill:#F4F7FA;" d="M2548.785,1441.316c0-465.561-396.366-842.974-885.309-842.974
				c-488.942,0-885.309,377.413-885.309,842.974c0,282.538,145.991,532.6,370.059,685.55
				c95.06,64.888,152.709,171.837,152.709,286.932v64.509c0,140.164,113.625,253.789,253.789,253.789h217.504
				c140.164,0,253.789-113.625,253.789-253.789v-64.509c0-115.095,57.65-222.044,152.709-286.932
				C2402.793,1973.916,2548.785,1723.854,2548.785,1441.316z"/>
			
				<linearGradient id="SVGID_00000169523480399566949380000002838977464465989812_" gradientUnits="userSpaceOnUse" x1="1645.0353" y1="3255.4739" x2="1660.7584" y2="3129.688">
				<stop  offset="0.0036" style="stop-color:#26264F"/>
				<stop  offset="1" style="stop-color:#444B8C"/>
			</linearGradient>
			
				<ellipse style="fill:url(#SVGID_00000169523480399566949380000002838977464465989812_);" cx="1663.476" cy="3107.947" rx="196.385" ry="103.972"/>
			
				<linearGradient id="SVGID_00000125577512534265809170000008284611078376488635_" gradientUnits="userSpaceOnUse" x1="1580.3696" y1="3140.8306" x2="1737.6023" y2="2857.8118">
				<stop  offset="0.0036" style="stop-color:#26264F"/>
				<stop  offset="1" style="stop-color:#444B8C"/>
			</linearGradient>
			<path style="fill:url(#SVGID_00000125577512534265809170000008284611078376488635_);" d="M1402.552,2922.211v106.178
				c0,35.923,20.443,68.837,52.867,84.301c45.015,21.467,119.857,45.027,228.627,42.239c88.24-2.261,145.781-16.672,182.362-31.811
				c35.34-14.626,57.992-49.573,57.992-87.82v-58.748L1402.552,2922.211z"/>
			
				<linearGradient id="SVGID_00000003784764623165188420000005611288147364613805_" gradientUnits="userSpaceOnUse" x1="1402.5518" y1="3006.7085" x2="1924.4003" y2="3006.7085">
				<stop  offset="0.0036" style="stop-color:#26264F"/>
				<stop  offset="1" style="stop-color:#444B8C"/>
			</linearGradient>
			<path style="opacity:0.3;fill:url(#SVGID_00000003784764623165188420000005611288147364613805_);" d="M1402.552,3015.214
				c7.953,7.731,17.165,14.292,27.51,19.224c50.5,24.084,381.287,77.895,461.078,47.914c10.363-3.892,19.685-9.102,27.849-15.385
				c3.491-10.027,5.41-20.699,5.41-31.67v-58.748l-521.849-54.34V3015.214z"/>
			
				<linearGradient id="SVGID_00000031890316567134144150000002382004060032019851_" gradientUnits="userSpaceOnUse" x1="1595.3368" y1="3063.4924" x2="1750.6044" y2="2764.7502">
				<stop  offset="0.0036" style="stop-color:#26264F"/>
				<stop  offset="1" style="stop-color:#444B8C"/>
			</linearGradient>
			<path style="fill:url(#SVGID_00000031890316567134144150000002382004060032019851_);" d="M1425.719,2849.97
				c-29.391-3.061-54.968,19.992-54.968,49.542v3.009c0,40.301,22.934,77.227,59.311,94.575
				c50.5,24.084,381.287,77.896,461.078,47.914c40.167-15.093,65.06-49.578,65.06-92.487v-2.422c0-25.512-19.276-46.9-44.65-49.542
				L1425.719,2849.97z"/>
			
				<linearGradient id="SVGID_00000064314778617349069590000001855428896605735824_" gradientUnits="userSpaceOnUse" x1="1379.171" y1="2918.7568" x2="1947.5222" y2="2918.7568">
				<stop  offset="0.0036" style="stop-color:#26264F"/>
				<stop  offset="1" style="stop-color:#444B8C"/>
			</linearGradient>
			<path style="opacity:0.3;fill:url(#SVGID_00000064314778617349069590000001855428896605735824_);" d="M1911.551,2900.56
				l-485.831-50.59c-19.168-1.996-36.661,7.151-46.548,21.926c9.76,22.997,27.531,42.233,50.891,53.373
				c50.5,24.083,395.375,84.911,461.078,53.952c25.576-12.054,45.633-32.399,56.381-57.131
				C1939.515,2910.349,1926.63,2902.13,1911.551,2900.56z"/>
			
				<linearGradient id="SVGID_00000093879291645966807690000012849359107322777226_" gradientUnits="userSpaceOnUse" x1="1370.7511" y1="2816.0654" x2="1956.201" y2="2816.0654">
				<stop  offset="0.0036" style="stop-color:#26264F"/>
				<stop  offset="1" style="stop-color:#444B8C"/>
			</linearGradient>
			<path style="fill:url(#SVGID_00000093879291645966807690000012849359107322777226_);" d="M1406.712,2677.946
				c-19.861,0-35.96,16.1-35.96,35.96v83.158c0,40.301,22.934,77.226,59.311,94.574c50.5,24.084,395.375,84.912,461.078,53.951
				c38.815-18.292,65.06-55.614,65.06-98.523v-133.16c0-19.861-16.1-35.96-35.96-35.96H1406.712z"/>
			
				<linearGradient id="SVGID_00000009576751652592685270000006250744123932748937_" gradientUnits="userSpaceOnUse" x1="1648.9365" y1="2771.9053" x2="1706.5886" y2="2501.9897">
				<stop  offset="0.0036" style="stop-color:#26264F"/>
				<stop  offset="1" style="stop-color:#444B8C"/>
			</linearGradient>
			
				<ellipse style="fill:url(#SVGID_00000009576751652592685270000006250744123932748937_);" cx="1663.476" cy="2703.834" rx="285.484" ry="67.496"/>
			
				<linearGradient id="SVGID_00000126316681964359236560000005858248744525499815_" gradientUnits="userSpaceOnUse" x1="1538.2217" y1="1265.8109" x2="2682.0271" y2="3081.7493">
				<stop  offset="0" style="stop-color:#FCB148"/>
				<stop  offset="0.0521" style="stop-color:#FDBA46"/>
				<stop  offset="0.1424" style="stop-color:#FFC244"/>
				<stop  offset="0.3183" style="stop-color:#FFC444"/>
				<stop  offset="0.4849" style="stop-color:#FDB946"/>
				<stop  offset="0.7754" style="stop-color:#F99C4D"/>
				<stop  offset="0.8658" style="stop-color:#F8924F"/>
				<stop  offset="1" style="stop-color:#F8924F"/>
			</linearGradient>
			<path style="fill:url(#SVGID_00000126316681964359236560000005858248744525499815_);" d="M2548.785,1441.316
				c0-465.561-396.366-842.974-885.309-842.974c-488.942,0-885.309,377.413-885.309,842.974c0,282.538,145.991,532.6,370.059,685.55
				c95.06,64.888,152.709,171.837,152.709,286.932v64.509c0,140.164,113.625,253.789,253.789,253.789h217.504
				c140.164,0,253.789-113.625,253.789-253.789v-64.509c0-115.095,57.65-222.044,152.709-286.932
				C2402.793,1973.916,2548.785,1723.854,2548.785,1441.316z"/>
			<ellipse style="opacity:0.5;fill:#F4F7FA;" cx="1663.476" cy="2650.612" rx="208.896" ry="49.388"/>
			<g>
				
					<linearGradient id="SVGID_00000013912871652231611720000018336741752252717186_" gradientUnits="userSpaceOnUse" x1="1329.2627" y1="2664.062" x2="1562.4912" y2="1982.7216">
					<stop  offset="0.494" style="stop-color:#EBEFF2"/>
					<stop  offset="1" style="stop-color:#FFFFFF"/>
				</linearGradient>
				<path style="fill:url(#SVGID_00000013912871652231611720000018336741752252717186_);" d="M1609.039,2680.794
					c-5.983,0-11.175-4.444-11.959-10.534l-153.677-1195.11c-0.849-6.613,3.822-12.661,10.436-13.51
					c6.625-0.89,12.661,3.82,13.512,10.433l153.677,1195.11c0.849,6.614-3.823,12.662-10.437,13.51
					C1610.071,2680.764,1609.552,2680.794,1609.039,2680.794z"/>
				
					<linearGradient id="SVGID_00000057862025262553214930000015935809782785396380_" gradientUnits="userSpaceOnUse" x1="1552.2358" y1="2740.387" x2="1785.4645" y2="2059.0461">
					<stop  offset="0.494" style="stop-color:#EBEFF2"/>
					<stop  offset="1" style="stop-color:#FFFFFF"/>
				</linearGradient>
				<path style="fill:url(#SVGID_00000057862025262553214930000015935809782785396380_);" d="M1704.491,2680.794
					c-0.513,0-1.032-0.03-1.553-0.1c-6.613-0.849-11.285-6.897-10.436-13.51l153.68-1195.11c0.851-6.613,6.893-11.329,13.513-10.433
					c6.613,0.849,11.285,6.897,10.436,13.51l-153.68,1195.11C1715.667,2676.35,1710.474,2680.794,1704.491,2680.794z"/>
				
					<linearGradient id="SVGID_00000129897299992823575590000003022940014855877281_" gradientUnits="userSpaceOnUse" x1="1248.0461" y1="2636.2617" x2="1481.2748" y2="1954.9208">
					<stop  offset="0.494" style="stop-color:#EBEFF2"/>
					<stop  offset="1" style="stop-color:#FFFFFF"/>
				</linearGradient>
				<path style="fill:url(#SVGID_00000129897299992823575590000003022940014855877281_);" d="M1829.648,1474.183
					c-3.922,0-7.772-1.91-10.091-5.429l-42.414-64.343c-0.437-0.661-1.108-1.044-1.722-0.967c-1.052,0.024-1.497,0.772-1.641,1.014
					l-28.002,46.902c-4.642,7.769-12.776,12.543-21.763,12.767c-8.93,0.289-17.371-4.143-22.407-11.688l-38.45-57.648
					c-0.419-0.625-0.979-0.949-1.662-0.955c-0.817,0.153-1.199,0.289-1.609,0.878l-33.779,48.823
					c-4.877,7.055-12.876,11.276-21.397,11.294h-0.053c-8.518,0-16.531-4.197-21.444-11.241l-48.697-69.761
					c-0.439-0.63-1.058-0.849-1.718-0.914c-0.696,0.03-1.241,0.383-1.624,1.043l-44.447,76.728
					c-3.339,5.765-10.731,7.734-16.496,4.392c-5.771-3.343-7.736-10.728-4.394-16.498l44.447-76.728
					c4.521-7.799,12.558-12.679,21.5-13.056c8.871-0.454,17.368,3.82,22.531,11.217l48.694,69.761
					c0.422,0.601,0.976,0.914,1.645,0.914h0.003c0.654-0.006,1.191-0.301,1.597-0.884l33.778-48.824
					c4.943-7.138,13.081-11.388,21.669-11.287c8.65,0.077,16.705,4.45,21.544,11.706l38.446,57.642
					c0.433,0.648,1.081,1.191,1.721,0.949c1.047-0.024,1.488-0.767,1.633-1.008l28.001-46.902
					c4.659-7.799,12.823-12.573,21.839-12.774c8.924-0.2,17.407,4.221,22.414,11.819l42.414,64.344
					c3.669,5.564,2.131,13.05-3.437,16.722C1834.234,1473.541,1831.929,1474.183,1829.648,1474.183z"/>
			</g>
			
				<linearGradient id="SVGID_00000139251632620887761970000015814984750316581296_" gradientUnits="userSpaceOnUse" x1="1578.3602" y1="856.4827" x2="1350.3728" y2="2735.4106">
				<stop  offset="0" style="stop-color:#FCB148"/>
				<stop  offset="0.0521" style="stop-color:#FDBA46"/>
				<stop  offset="0.1424" style="stop-color:#FFC244"/>
				<stop  offset="0.3183" style="stop-color:#FFC444"/>
				<stop  offset="0.4849" style="stop-color:#FDB946"/>
				<stop  offset="0.7754" style="stop-color:#F99C4D"/>
				<stop  offset="0.8658" style="stop-color:#F8924F"/>
				<stop  offset="1" style="stop-color:#F8924F"/>
			</linearGradient>
			<path style="opacity:0.3;fill:url(#SVGID_00000139251632620887761970000015814984750316581296_);" d="M1679.543,2106.227
				c18.965-324.91,566.704-400.949,564.357-691.112c-1.445-178.71-219.103-311.429-265.58-338.01
				c-342.474-195.876-764.007,30.318-851.063-129.773c-21.675-39.858-11.513-83.247-5.725-107.956
				c8.748-37.345,28.552-72.128,57.932-103.943c-241.625,150.521-401.297,410.427-401.297,705.884
				c0,282.538,145.991,532.601,370.059,685.55c95.061,64.889,152.709,171.839,152.709,286.933v64.509
				c0,140.164,113.626,253.788,253.789,253.788h217.504c140.163,0,253.789-113.624,253.789-253.788v-51.577
				c-29.936,22.942-64.318,38.942-102.019,38.633C1793.181,2464.288,1670.104,2267.912,1679.543,2106.227z"/>
			<ellipse style="opacity:0.44;fill:#F4F7FA;" cx="1677.636" cy="1474.183" rx="761.825" ry="734.698"/>
		</g>
		<g>
			<defs>
				<path id="SVGID_00000132784714543497094430000006921589372551599034_" d="M2548.785,1441.316
					c0-465.561-396.366-842.973-885.311-842.973c-138.456,0-269.475,30.287-386.184,84.247
					c-5.607,71.816,3.107,130.75,16.529,178.187c72.494,256.224,302.138,254.357,488.149,591.827
					c144.095,261.425,71.823,381.442,220.315,548.628c49.658,55.908,107.525,98.48,168.892,130.957
					c2.493-1.799,5.001-3.584,7.549-5.323C2402.794,1973.916,2548.785,1723.854,2548.785,1441.316z"/>
			</defs>
			<clipPath id="SVGID_00000165223540164484925290000007829603093232035749_">
				<use xlink:href="#SVGID_00000132784714543497094430000006921589372551599034_"  style="overflow:visible;"/>
			</clipPath>
			
				<linearGradient id="SVGID_00000057121868285833622220000017538336018474526117_" gradientUnits="userSpaceOnUse" x1="1385.8346" y1="2037.827" x2="2040.2661" y2="631.7681">
				<stop  offset="0.0054" style="stop-color:#D8DEE8"/>
				<stop  offset="1" style="stop-color:#F4F7FA"/>
			</linearGradient>
			
				<path style="clip-path:url(#SVGID_00000165223540164484925290000007829603093232035749_);fill:url(#SVGID_00000057121868285833622220000017538336018474526117_);" d="
				M2548.785,1441.316c0-465.561-396.366-842.974-885.309-842.974c-488.942,0-885.309,377.413-885.309,842.974
				c0,282.538,145.991,532.6,370.059,685.55c95.06,64.888,152.709,171.837,152.709,286.932v64.509
				c0,140.164,113.625,253.789,253.789,253.789h217.504c140.164,0,253.789-113.625,253.789-253.789v-64.509
				c0-115.095,57.65-222.044,152.709-286.932C2402.793,1973.916,2548.785,1723.854,2548.785,1441.316z"/>
			
				<linearGradient id="SVGID_00000172431172779789410930000017853168213384704951_" gradientUnits="userSpaceOnUse" x1="-1907.5209" y1="466.0331" x2="-1090.1454" y2="2613.7571" gradientTransform="matrix(-0.9526 -0.3041 -0.3041 0.9526 1198.1394 207.51)">
				<stop  offset="0" style="stop-color:#FF9085"/>
				<stop  offset="1" style="stop-color:#FB6FBB"/>
			</linearGradient>
			
				<path style="opacity:0.3;clip-path:url(#SVGID_00000165223540164484925290000007829603093232035749_);fill:url(#SVGID_00000172431172779789410930000017853168213384704951_);" d="
				M2027.328,2656.159c16.297,84.758-36.148,152.448-81.06,195.613c-7.688-1.862-12.677-0.84-20.903-0.882
				c-74.242-0.375-104.921-17.205-177.372-29.749c-15.594-2.7-58.263-25.43-75.066-35.931l-30.996-20.122
				c0,0-14.2-199.838,93.042-227.398s116.788-220.556,133.812-322.874c46.19-277.616,334.263-179.713,422.134-531.714
				c23.371-93.622,36.635-279.979,134.131-334.935c111.075-62.611,156.014,37.073,231.516-19.606
				c118.007-88.587,274.6-91.957,333.618,44.081c58.249,134.263-102.442,332.749-407.986,448.42
				c-209.8,107.813-223.708,152.249-237.454,265.462c-9.629,79.3,13.929,297.97-110.4,352.036
				C2110.015,2492.629,2008.698,2559.265,2027.328,2656.159z"/>
			
				<linearGradient id="SVGID_00000112615504104763130070000001800622187474088582_" gradientUnits="userSpaceOnUse" x1="1194.4611" y1="1407.3577" x2="2306.916" y2="1407.3577">
				<stop  offset="0" style="stop-color:#FCB148"/>
				<stop  offset="0.0521" style="stop-color:#FDBA46"/>
				<stop  offset="0.1424" style="stop-color:#FFC244"/>
				<stop  offset="0.3183" style="stop-color:#FFC444"/>
				<stop  offset="0.4849" style="stop-color:#FDB946"/>
				<stop  offset="0.7754" style="stop-color:#F99C4D"/>
				<stop  offset="0.8658" style="stop-color:#F8924F"/>
				<stop  offset="1" style="stop-color:#F8924F"/>
			</linearGradient>
			
				<path style="opacity:0.3;clip-path:url(#SVGID_00000165223540164484925290000007829603093232035749_);fill:url(#SVGID_00000112615504104763130070000001800622187474088582_);" d="
				M1277.29,682.59c84.329-1.12,200.285,11.861,282.922,90.349c103.292,98.104,55.925,204.899,126.718,348.473
				c119.105,241.551,359.185,154.249,524.149,403.191c150.03,226.405,94.306,514.195,31.678,558.708
				c-5.619,3.994-71.582,48.879-71.582,48.879l0,0l-976.714-420.391L1277.29,682.59z"/>
			<g style="clip-path:url(#SVGID_00000165223540164484925290000007829603093232035749_);">
				<path style="fill:#FFFFFF;" d="M1663.476,2252.882c-227.418,0-441.231-84.365-602.055-237.553
					c-160.868-153.232-249.463-356.978-249.463-573.704s88.595-420.472,249.463-573.704
					c160.824-153.188,374.637-237.553,602.055-237.553c227.418,0,441.231,84.365,602.055,237.553
					c160.868,153.233,249.463,356.978,249.463,573.704s-88.595,420.471-249.463,573.704
					C2104.708,2168.517,1890.895,2252.882,1663.476,2252.882z M1663.476,637.237c-225.647,0-437.776,83.691-597.315,235.658
					c-159.496,151.922-247.333,353.902-247.333,568.73s87.837,416.808,247.333,568.73
					c159.539,151.967,371.668,235.658,597.315,235.658c225.644,0,437.776-83.691,597.316-235.658
					c159.496-151.923,247.333-353.902,247.333-568.73s-87.837-416.806-247.333-568.73
					C2101.252,720.928,1889.12,637.237,1663.476,637.237z"/>
				<path style="fill:#FFFFFF;" d="M1663.476,2252.882c-166.895,0-323.745-84.504-441.653-237.947
					c-117.701-153.175-182.52-356.78-182.52-573.31s64.819-420.135,182.52-573.31c117.909-153.443,274.758-237.947,441.653-237.947
					c166.896,0,323.745,84.504,441.654,237.947c117.701,153.175,182.52,356.78,182.52,573.31s-64.819,420.135-182.52,573.31
					C1987.221,2168.377,1830.372,2252.882,1663.476,2252.882z M1663.476,637.237c-340.382,0-617.304,360.847-617.304,804.388
					s276.922,804.388,617.304,804.388s617.304-360.847,617.304-804.388S2003.859,637.237,1663.476,637.237z"/>
				<path style="fill:#FFFFFF;" d="M1663.476,2252.882c-84.426,0-163.504-84.81-222.672-238.808
					c-58.768-152.962-91.134-356.262-91.134-572.45s32.366-419.488,91.134-572.45c59.167-153.998,138.246-238.808,222.672-238.808
					c84.422,0,163.501,84.81,222.668,238.808c58.768,152.962,91.134,356.262,91.134,572.45s-32.366,419.488-91.134,572.45
					C1826.978,2168.072,1747.899,2252.882,1663.476,2252.882z M1663.476,637.237c-169.244,0-306.936,360.847-306.936,804.388
					s137.693,804.388,306.936,804.388c169.244,0,306.933-360.847,306.933-804.388S1832.72,637.237,1663.476,637.237z"/>
				<rect x="1660.042" y="633.802" style="fill:#FFFFFF;" width="6.87" height="1615.645"/>
				<path style="fill:#FFFFFF;" d="M1663.476,1535.86c-226.626,0-439.701-7.465-599.975-21.022
					c-78.015-6.598-139.293-14.288-182.134-22.855c-62.213-12.44-69.408-23.814-69.408-31.288s7.195-18.848,69.408-31.289
					c42.842-8.567,104.119-16.257,182.134-22.855c160.274-13.557,373.349-21.022,599.975-21.022
					c226.623,0,439.698,7.465,599.975,21.022c78.012,6.598,139.293,14.288,182.134,22.855
					c62.213,12.441,69.408,23.816,69.408,31.289s-7.195,18.848-69.408,31.288c-42.842,8.567-104.122,16.257-182.134,22.855
					C2103.175,1528.395,1890.1,1535.86,1663.476,1535.86z M1663.476,1392.399c-226.439,0-439.309,7.457-599.395,20.996
					c-233.429,19.744-245.253,42.865-245.253,47.3s11.824,27.554,245.253,47.298c160.086,13.54,372.956,20.996,599.395,20.996
					c226.435,0,439.306-7.457,599.395-20.996c233.429-19.744,245.253-42.864,245.253-47.298s-11.824-27.556-245.253-47.3
					C2102.782,1399.856,1889.915,1392.399,1663.476,1392.399z"/>
				<path style="fill:#FFFFFF;" d="M1663.476,1230.062c-386.28,0-785.83-36.544-785.83-97.699
					c0-34.79,126.261-57.304,232.181-70.066c147.907-17.82,344.532-27.633,553.648-27.633s405.739,9.813,553.645,27.633
					c105.92,12.762,232.181,35.276,232.181,70.066C2449.303,1193.518,2049.753,1230.062,1663.476,1230.062z M1663.476,1041.535
					c-465.956,0-778.96,46.964-778.96,90.829c0,43.865,313.004,90.829,778.96,90.829c465.953,0,778.957-46.964,778.957-90.829
					C2442.433,1088.499,2129.429,1041.535,1663.476,1041.535z"/>
				<path style="fill:#FFFFFF;" d="M1661.115,850.286c-229.518,0-466.918-28.639-466.918-76.566s237.401-76.566,466.918-76.566
					s466.919,28.639,466.919,76.566S1890.633,850.286,1661.115,850.286z M1661.115,704.023
					c-275.191,0-460.049,36.037-460.049,69.697s184.858,69.697,460.049,69.697s460.049-36.037,460.049-69.697
					S1936.306,704.023,1661.115,704.023z"/>
				<path style="fill:#FFFFFF;" d="M1663.476,1842.543c-209.117,0-405.742-9.813-553.648-27.633
					c-105.92-12.762-232.181-35.276-232.181-70.066c0-34.79,126.261-57.304,232.181-70.066
					c147.907-17.82,344.532-27.633,553.648-27.633s405.739,9.813,553.645,27.633c105.92,12.762,232.181,35.276,232.181,70.066
					c0,34.79-126.261,57.304-232.181,70.066C2069.215,1832.73,1872.593,1842.543,1663.476,1842.543z M1663.476,1654.015
					c-465.956,0-778.96,46.964-778.96,90.829c0,43.865,313.004,90.829,778.96,90.829c465.953,0,778.957-46.964,778.957-90.829
					C2442.433,1700.979,2129.429,1654.015,1663.476,1654.015z"/>
				<path style="fill:#FFFFFF;" d="M1661.115,2180.054c-229.518,0-466.918-28.639-466.918-76.568
					c0-47.927,237.401-76.566,466.918-76.566s466.919,28.64,466.919,76.566C2128.034,2151.415,1890.633,2180.054,1661.115,2180.054z
					 M1661.115,2033.789c-275.191,0-460.049,36.037-460.049,69.697s184.858,69.698,460.049,69.698s460.049-36.039,460.049-69.698
					S1936.306,2033.789,1661.115,2033.789z"/>
			</g>
			
				<circle style="clip-path:url(#SVGID_00000165223540164484925290000007829603093232035749_);fill:#FFFFFF;" cx="2254.998" cy="1191.25" r="32.399"/>
			
				<circle style="clip-path:url(#SVGID_00000165223540164484925290000007829603093232035749_);fill:#FFFFFF;" cx="1962.324" cy="1221.629" r="32.399"/>
			
				<circle style="clip-path:url(#SVGID_00000165223540164484925290000007829603093232035749_);fill:#FFFFFF;" cx="2276.307" cy="1506.583" r="32.399"/>
			
				<circle style="clip-path:url(#SVGID_00000165223540164484925290000007829603093232035749_);fill:#FFFFFF;" cx="1972.044" cy="1524.962" r="32.399"/>
			
				<ellipse transform="matrix(0.9239 -0.3827 0.3827 0.9239 -244.2097 1020.8569)" style="clip-path:url(#SVGID_00000165223540164484925290000007829603093232035749_);fill:#FFFFFF;" cx="2443.994" cy="1124.291" rx="32.399" ry="32.399"/>
			
				<circle style="clip-path:url(#SVGID_00000165223540164484925290000007829603093232035749_);fill:#FFFFFF;" cx="2508.792" cy="1461.531" r="32.399"/>
			
				<circle style="clip-path:url(#SVGID_00000165223540164484925290000007829603093232035749_);fill:#FFFFFF;" cx="1663.476" cy="1225.809" r="32.399"/>
			
				<circle style="clip-path:url(#SVGID_00000165223540164484925290000007829603093232035749_);fill:#FFFFFF;" cx="1663.476" cy="845.657" r="32.399"/>
			
				<ellipse transform="matrix(0.2298 -0.9732 0.9732 0.2298 625.9123 2464.9097)" style="clip-path:url(#SVGID_00000165223540164484925290000007829603093232035749_);fill:#FFFFFF;" cx="1870.23" cy="837.018" rx="32.399" ry="32.399"/>
			
				<circle style="clip-path:url(#SVGID_00000165223540164484925290000007829603093232035749_);fill:#FFFFFF;" cx="2046.202" cy="812.538" r="32.399"/>
			
				<circle style="clip-path:url(#SVGID_00000165223540164484925290000007829603093232035749_);fill:#FFFFFF;" cx="2123.961" cy="767.832" r="32.399"/>
			
				<circle style="clip-path:url(#SVGID_00000165223540164484925290000007829603093232035749_);fill:#FFFFFF;" cx="1663.476" cy="633.982" r="32.399"/>
			
				<circle style="clip-path:url(#SVGID_00000165223540164484925290000007829603093232035749_);fill:#FFFFFF;" cx="1935.325" cy="1834.916" r="32.399"/>
			
				<ellipse transform="matrix(0.7071 -0.7071 0.7071 0.7071 -627.6092 2097.05)" style="clip-path:url(#SVGID_00000165223540164484925290000007829603093232035749_);fill:#FFFFFF;" cx="2217.559" cy="1806.116" rx="32.399" ry="32.399"/>
			
				<ellipse transform="matrix(0.7071 -0.7071 0.7071 0.7071 -523.9235 2237.9319)" style="clip-path:url(#SVGID_00000165223540164484925290000007829603093232035749_);fill:#FFFFFF;" cx="2439.461" cy="1751.397" rx="32.399" ry="32.399"/>
		</g>
		<g>
			<path style="fill:#97A6B7;" d="M2266.367,3193.783c-2.174,0-3.935-1.763-3.935-3.937V2163.603c0-2.174,1.761-3.936,3.935-3.936
				s3.935,1.763,3.935,3.936v1026.244C2270.302,3192.021,2268.541,3193.783,2266.367,3193.783z"/>
			<path style="fill:#97A6B7;" d="M2542.846,3129.318c-2.174,0-3.935-1.763-3.935-3.936v-987.658c0-2.174,1.761-3.936,3.935-3.936
				s3.935,1.763,3.935,3.936v987.658C2546.78,3127.555,2545.019,3129.318,2542.846,3129.318z"/>
			<path style="fill:#97A6B7;" d="M3182.06,3175.307c-1.61,0-3.12-0.993-3.7-2.593l-369.589-1018.377
				c-0.741-2.044,0.315-4.302,2.358-5.043c2.039-0.743,4.3,0.313,5.042,2.356l369.589,1018.377c0.741,2.044-0.315,4.302-2.358,5.043
				C3182.959,3175.232,3182.506,3175.307,3182.06,3175.307z"/>
			<path style="fill:#97A6B7;" d="M2909.218,3255c-1.68,0-3.237-1.085-3.76-2.774l-331.708-1073.7
				c-0.641-2.078,0.523-4.282,2.6-4.922c2.083-0.644,4.277,0.525,4.921,2.598l331.708,1073.7c0.641,2.078-0.52,4.282-2.6,4.923
				C2909.992,3254.943,2909.6,3255,2909.218,3255z"/>
			<polygon style="fill:#97A6B7;" points="2539.806,2136.698 2262.454,2157.225 2262.454,2163.465 2579.427,2177.673 
				2816.34,2148.644 2816.34,2142.406 			"/>
			<polygon style="fill:#E7EBEF;" points="2539.806,2130.46 2262.454,2157.225 2579.427,2171.435 2816.34,2142.406 			"/>
			<path style="fill:#97A6B7;" d="M2837.451,3022.716c-1.744,0-3.341-1.169-3.804-2.938c-0.55-2.102,0.704-4.253,2.808-4.805
				l264.084-69.281c2.09-0.553,4.253,0.701,4.807,2.809c0.55,2.102-0.704,4.253-2.807,4.805l-264.084,69.281
				C2838.119,3022.675,2837.783,3022.716,2837.451,3022.716z"/>
			<path style="fill:#97A6B7;" d="M2762.643,2779.67c-1.875,0-3.535-1.342-3.871-3.25c-0.379-2.14,1.047-4.183,3.187-4.562
				l259.177-45.891c2.16-0.371,4.186,1.05,4.562,3.19c0.379,2.14-1.046,4.183-3.187,4.562l-259.177,45.891
				C2763.099,2779.65,2762.871,2779.67,2762.643,2779.67z"/>
			<path style="fill:#97A6B7;" d="M2684.865,2528.805c-1.952,0-3.643-1.447-3.901-3.433c-0.279-2.155,1.244-4.129,3.401-4.406
				l250.828-32.331c2.227-0.295,4.129,1.248,4.408,3.4c0.278,2.155-1.245,4.129-3.401,4.406l-250.828,32.331
				C2685.201,2528.795,2685.033,2528.805,2684.865,2528.805z"/>
			<path style="fill:#97A6B7;" d="M2635.027,2354.72c-1.906,0-3.583-1.387-3.885-3.328c-0.335-2.148,1.131-4.161,3.281-4.498
				l235.831-36.903c2.15-0.337,4.159,1.135,4.495,3.281c0.335,2.148-1.13,4.161-3.281,4.498l-235.831,36.903
				C2635.432,2354.705,2635.228,2354.72,2635.027,2354.72z"/>
		</g>
		<g>
			<g>
				
					<linearGradient id="SVGID_00000178195377871464113690000008700775237909270421_" gradientUnits="userSpaceOnUse" x1="370.1411" y1="3208.7583" x2="408.5514" y2="3208.7583" gradientTransform="matrix(0.9858 -0.168 0.168 0.9858 2.0423 -81.8595)">
					<stop  offset="0.0036" style="stop-color:#F36F56"/>
					<stop  offset="1" style="stop-color:#FFC444"/>
				</linearGradient>
				<path style="fill:url(#SVGID_00000178195377871464113690000008700775237909270421_);" d="M911.964,2993.191l-2.783,44.635
					c0,0,6.339,6.713,18.531,2.037l13.311-43.832L911.964,2993.191z"/>
				
					<linearGradient id="SVGID_00000173146065047313701820000002147520464779854746_" gradientUnits="userSpaceOnUse" x1="444.3719" y1="3050.4956" x2="343.6518" y2="3403.8706" gradientTransform="matrix(0.9858 -0.168 0.168 0.9858 2.0423 -81.8595)">
					<stop  offset="0" style="stop-color:#444B8C"/>
					<stop  offset="0.9964" style="stop-color:#26264F"/>
				</linearGradient>
				<path style="fill:url(#SVGID_00000173146065047313701820000002147520464779854746_);" d="M917.558,3026.008
					c0,0-21.859,8.92-17.614,18.588c2.279,5.191,10.167,16.916,16.982,26.661c6.307,9.02,17.7,13.011,28.244,9.85
					c3.538-1.061,7.157-2.098,10.361-2.925c6.626-1.71,7.012-10.973,0.558-13.247c-3.13-1.103-6.23-1.994-8.929-2.41
					c-8.003-1.233-19.018-20.138-20.309-27.711C925.561,3027.241,917.558,3026.008,917.558,3026.008z"/>
				
					<linearGradient id="SVGID_00000127022369990134135230000012623504247072732807_" gradientUnits="userSpaceOnUse" x1="1025.5283" y1="2688.5161" x2="699.8227" y2="2956.0603" gradientTransform="matrix(1 -2.000000e-04 2.000000e-04 1 0.866 -0.7051)">
					<stop  offset="0" style="stop-color:#AB316D"/>
					<stop  offset="1" style="stop-color:#792D3D"/>
				</linearGradient>
				<path style="fill:url(#SVGID_00000127022369990134135230000012623504247072732807_);" d="M864.929,2564.798
					c32.201,11.106,151.278,56.092,177.819,159.324c1.417,5.511,5.051,20.836,5.22,45.869
					c0.704,104.201-59.875,192.4-103.934,243.711c-13.894-0.229-27.787-0.459-41.68-0.689c-6.939-26.594-13.318-66.37-3.354-111.129
					c15.228-68.409,54.764-86.158,47.133-119.733c-13.857-60.969-155.433-51.718-168.784-106.313
					C772.526,2656.117,783.109,2622.648,864.929,2564.798z"/>
				
					<linearGradient id="SVGID_00000008854252696550910420000001268735536463397292_" gradientUnits="userSpaceOnUse" x1="873.2875" y1="2670.9102" x2="784.1549" y2="2983.6304" gradientTransform="matrix(0.9956 0.0935 -0.0935 0.9956 20.8041 68.2337)">
					<stop  offset="0" style="stop-color:#444B8C"/>
					<stop  offset="0.9964" style="stop-color:#26264F"/>
				</linearGradient>
				<path style="fill:url(#SVGID_00000008854252696550910420000001268735536463397292_);" d="M466.79,3188.711l60.459-1.421
					c3.726-0.087,5.324-4.732,2.471-7.129c-2.812-2.362-6.7-4.296-11.668-3.777c-11.493,1.197-37.294-14.882-48.998-11.429
					c-3.824,1.128-6.928,10.124-8.521,12.611C457.407,3182.45,460.993,3188.847,466.79,3188.711z"/>
				
					<linearGradient id="SVGID_00000127030510560766509420000007488966780297439618_" gradientUnits="userSpaceOnUse" x1="735.8484" y1="3030.3872" x2="781.1686" y2="3030.3872" gradientTransform="matrix(0.9956 0.0935 -0.0935 0.9956 20.8041 68.2337)">
					<stop  offset="0.0036" style="stop-color:#F36F56"/>
					<stop  offset="1" style="stop-color:#FFC444"/>
				</linearGradient>
				<path style="fill:url(#SVGID_00000127030510560766509420000007488966780297439618_);" d="M493.944,3142.257l-24.891,22.698
					c0,0,8.693,6.492,21.373,3.707l25.443-17.518L493.944,3142.257z"/>
				<g style="opacity:0.3;">
					
						<linearGradient id="SVGID_00000107559987474870879380000000815549674462203529_" gradientUnits="userSpaceOnUse" x1="654.0844" y1="3152.7595" x2="280.2176" y2="2951.3149" gradientTransform="matrix(0.9858 -0.168 0.168 0.9858 2.0423 -81.8595)">
						<stop  offset="0" style="stop-color:#AB316D"/>
						<stop  offset="1" style="stop-color:#792D3D"/>
					</linearGradient>
					<path style="fill:url(#SVGID_00000107559987474870879380000000815549674462203529_);" d="M971.792,2833.628
						c16.691-45.088,36.705-100.682,13.829-132.241c-23.151-31.938-73.853-4.968-124.725-30.696
						c-18.87-9.544-38.263-26.625-54.4-57.543c-28.552,29.487-32.428,49.274-29.146,62.69
						c13.351,54.595,154.926,45.344,168.784,106.313c7.631,33.574-31.904,51.324-47.133,119.733
						c-8.566,38.479-5.046,73.251,0.517,99.155c4.95-24.057,12.644-49.324,24.411-74.828
						C942.168,2886.674,954.208,2881.126,971.792,2833.628z"/>
				</g>
				
					<linearGradient id="SVGID_00000114053456343887292840000008441533849381413803_" gradientUnits="userSpaceOnUse" x1="-111.9333" y1="2937.1184" x2="-472.9312" y2="3312.0005" gradientTransform="matrix(0.9541 -0.2994 0.2994 0.9541 -13.4346 -149.0448)">
					<stop  offset="0" style="stop-color:#AB316D"/>
					<stop  offset="1" style="stop-color:#792D3D"/>
				</linearGradient>
				<path style="fill:url(#SVGID_00000114053456343887292840000008441533849381413803_);" d="M883.372,2551.775
					c-19.583,89.98-61.317,227.377-156.966,370.804c-70.811,106.181-148.611,181.838-209.635,232.388
					c-4.341,1.298-11.742,2.893-20.815,1.782c-6.742-0.827-12.09-2.863-15.686-4.578c4.2-25.366,13.06-62.839,34.08-103.315
					c38.463-74.067,72.727-71.694,111.361-137.064c28.289-47.865,37.481-98.709,55.865-200.397
					c14.195-78.521,14.202-97.288,33.655-119.806C754.561,2546.061,828.429,2545.533,883.372,2551.775z"/>
				<g style="opacity:0.3;">
					
						<linearGradient id="SVGID_00000052817586759954059120000001412026593300395172_" gradientUnits="userSpaceOnUse" x1="-139.0874" y1="2926.564" x2="-492.5891" y2="3293.6616" gradientTransform="matrix(0.9541 -0.2994 0.2994 0.9541 -13.4346 -149.0448)">
						<stop  offset="0" style="stop-color:#AB316D"/>
						<stop  offset="1" style="stop-color:#792D3D"/>
					</linearGradient>
					<path style="fill:url(#SVGID_00000052817586759954059120000001412026593300395172_);" d="M529.103,3065.6
						c13.728-21.674,38.088-44.247,86.139-88.777c49.66-46.019,47.753-37.701,57.526-51.299
						c43.758-60.882,20.046-125.923,30.852-204.424c6.03-43.797,25.358-101.031,81.647-165.147
						c-26.385,4.87-51.647,15.338-70.038,35.634c-22.581,24.921-20.911,49.321-33.655,119.806
						c-18.383,101.688-27.576,152.532-55.865,200.397c-38.634,65.371-72.897,62.998-111.361,137.064
						c-21.02,40.476-29.88,77.949-34.08,103.315c3.596,1.715,8.943,3.751,15.686,4.578c5.347,0.654,10.089,0.36,13.992-0.25
						C506.764,3105.038,522.139,3076.595,529.103,3065.6z"/>
				</g>
				
					<linearGradient id="SVGID_00000183221990932785860160000004498707309505064105_" gradientUnits="userSpaceOnUse" x1="901.8195" y1="2203.4429" x2="910.5435" y2="1828.3037" gradientTransform="matrix(1 -2.000000e-04 2.000000e-04 1 0.866 -0.7051)">
					<stop  offset="0" style="stop-color:#FF9085"/>
					<stop  offset="1" style="stop-color:#FB6FBB"/>
				</linearGradient>
				<path style="fill:url(#SVGID_00000183221990932785860160000004498707309505064105_);" d="M936.181,1967.075
					c0,0,16.123,119.874-110.176,204.417l134.416,32.038c0,0,43.005-80.449,11.835-213.686L936.181,1967.075z"/>
				
					<linearGradient id="SVGID_00000119836049708040565300000010377088695036290236_" gradientUnits="userSpaceOnUse" x1="-1263.9115" y1="1954.0446" x2="-1258.3434" y2="2035.0356" gradientTransform="matrix(-1 2.000000e-04 2.000000e-04 1 -318.1064 -0.4318)">
					<stop  offset="0.0036" style="stop-color:#F36F56"/>
					<stop  offset="1" style="stop-color:#FFC444"/>
				</linearGradient>
				<path style="fill:url(#SVGID_00000119836049708040565300000010377088695036290236_);" d="M959.838,1989.846
					c0,0,7.239-17.882,6.07-25.932c-1.17-8.049-20.334-18.788-33.398-29.879c-13.063-11.092,0.492,11.157,3.53,16.218
					c3.038,5.062,13.695,12.651,12.166,29.863L959.838,1989.846z"/>
				
					<linearGradient id="SVGID_00000085215758853991703250000002235525226918823329_" gradientUnits="userSpaceOnUse" x1="-1172.4998" y1="2217.9795" x2="-1180.4432" y2="2122.6567" gradientTransform="matrix(-0.9986 0.0539 0.0539 0.9986 -503.7567 -56.1364)">
					<stop  offset="0" style="stop-color:#444B8C"/>
					<stop  offset="0.9964" style="stop-color:#26264F"/>
				</linearGradient>
				<path style="fill:url(#SVGID_00000085215758853991703250000002235525226918823329_);" d="M809.458,2081.135
					c6.599-13.002,9.321-12.926,10.941-19.789c3.692-15.638-5.85-35.498-13.939-35.772c-5.215-0.177-5.645,7.93-16.681,20.567
					c-13.521,15.48-21.728,13.451-29.684,26.889c-1.861,3.143-10.236,17.291-5.083,27.848c6.578,13.474,32.503,15.603,43.338,5.207
					C803.49,2101.154,801.33,2097.153,809.458,2081.135z"/>
				
					<linearGradient id="SVGID_00000183945043609717811250000015037900410607992212_" gradientUnits="userSpaceOnUse" x1="800.9949" y1="2007.7562" x2="827.1674" y2="2400.3403" gradientTransform="matrix(1 -2.000000e-04 2.000000e-04 1 0.866 -0.7051)">
					<stop  offset="0.0036" style="stop-color:#F36F56"/>
					<stop  offset="1" style="stop-color:#FFC444"/>
				</linearGradient>
				<path style="fill:url(#SVGID_00000183945043609717811250000015037900410607992212_);" d="M790.027,2095.167
					c0,0,4.634,24.708,1.343,44.799c-2.977,18.157-36.608,37.025-43.054,42.436c-6.445,5.41,17.101,11.275,38.7,8.443
					c21.598-2.829,80.734-21.764,89.719-32.313c8.985-10.549-10.465-5.348-26.824-7.342c-16.359-1.994-31.98-29.406-32.46-43.399
					C816.972,2093.796,790.027,2095.167,790.027,2095.167z"/>
				<g>
					
						<linearGradient id="SVGID_00000182523043280125211340000013562502727800838568_" gradientUnits="userSpaceOnUse" x1="3577.5801" y1="2663.2822" x2="3652.4956" y2="2742.2473" gradientTransform="matrix(0.966 -0.2586 0.2586 0.966 -3410.5564 403.1299)">
						<stop  offset="0.0036" style="stop-color:#F36F56"/>
						<stop  offset="1" style="stop-color:#FFC444"/>
					</linearGradient>
					<path style="fill:url(#SVGID_00000182523043280125211340000013562502727800838568_);" d="M797.074,2113.606
						c0,0,16.536,7.258,31.18-4.456c13.111-10.489-6.393-42.697-19.732-43.106c-4.45-0.136-10.945,3.053-14.779,7.718
						c-2.265,2.755-2.399,4.591-6.187,9.022c-3.492,4.085-5.029,4.454-5.559,6.438c-0.665,2.481,0.477,6.628,9.457,13.755
						c-4.474-0.824-8.331,0.356-9.825,2.964c-0.238,0.416-0.733,1.717-0.585,3.058
						C781.583,2113.862,787.933,2116.111,797.074,2113.606z"/>
				</g>
				
					<linearGradient id="SVGID_00000162345027492186240830000016535010307648306053_" gradientUnits="userSpaceOnUse" x1="-1489.7098" y1="2029.5845" x2="-1474.0179" y2="2079.697" gradientTransform="matrix(-1 2.000000e-04 2.000000e-04 1 -318.1064 -0.4318)">
					<stop  offset="0.0036" style="stop-color:#F36F56"/>
					<stop  offset="1" style="stop-color:#FFC444"/>
				</linearGradient>
				<path style="fill:url(#SVGID_00000162345027492186240830000016535010307648306053_);" d="M1160.442,2027.597
					c0,0,10.014-1.397,6.888-20.521c-2.45-14.991-0.598-20.033,2.942-17.377c3.538,2.657,4.04,11.32,4.04,11.32
					s12.906-11.011,18.219-25.44c5.312-14.427,8.732-2.279,9.871,4.934c1.141,7.213-7.586,29.613-12.522,33.791
					c-4.934,4.176-12.144,22.583-12.144,22.583L1160.442,2027.597z"/>
				
					<linearGradient id="SVGID_00000052100694467732148170000004280176702234819214_" gradientUnits="userSpaceOnUse" x1="604.9137" y1="2726.9326" x2="1084.7393" y2="2026.0968" gradientTransform="matrix(1 -2.000000e-04 2.000000e-04 1 0.866 -0.7051)">
					<stop  offset="0" style="stop-color:#FF9085"/>
					<stop  offset="1" style="stop-color:#FB6FBB"/>
				</linearGradient>
				<path style="fill:url(#SVGID_00000052100694467732148170000004280176702234819214_);" d="M1187.125,2032.716
					c-11.392-7.976-22.786-15.95-34.178-23.927c-13.845,85.206-45.344,118.65-72.101,133.283
					c-64.549,35.298-122.177-27.573-245.737-1.889c-34.049,7.077-93.399,20.26-126.3,68.774
					c-8.649,12.752-11.724,22.407-26.073,113.88c-18.341,116.927-18.99,137.333-16.396,162.507
					c4.746,46.072,7.622,73.993,28.871,98.701c56.422,65.612,176.313,31.755,191.344,27.299
					c27.768-8.23,70.926-21.023,88.067-57.722c8.066-17.265,7.205-33.05-5.207-96.187c-24.586-125.07-27.726-133.163-20.872-146.861
					c23.131-46.226,96.452-19.791,158.379-62.785C1143.13,2222.652,1183.938,2167.877,1187.125,2032.716z"/>
				
					<linearGradient id="SVGID_00000109736583168739334310000005839758417349096098_" gradientUnits="userSpaceOnUse" x1="-1335.3328" y1="2190.115" x2="-1238.1455" y2="2696.2993" gradientTransform="matrix(-1 2.000000e-04 2.000000e-04 1 -318.1064 -0.4318)">
					<stop  offset="0" style="stop-color:#FF9085"/>
					<stop  offset="1" style="stop-color:#FB6FBB"/>
				</linearGradient>
				<path style="opacity:0.3;fill:url(#SVGID_00000109736583168739334310000005839758417349096098_);" d="M830.365,2594.651
					c12.085-24.797-4.167-47.644,13.652-77.449c22.709-37.986,63.582-25.098,78.956-53.165c26.292-48-77.244-114.917-56.222-191.329
					c10.037-36.483,45.102-62.895,74.396-72.905c65.038-22.221,107.591,34.385,168.566,16.673
					c14.451-4.199,31.038-12.896,47.811-30.938c-14.823,31.288-33.236,50.193-50.603,62.25
					c-61.927,42.994-135.248,16.56-158.379,62.785c-6.854,13.698-3.714,21.792,20.872,146.861
					c12.413,63.137,13.273,78.922,5.207,96.187c-17.141,36.698-60.298,49.492-88.067,57.722c-8.228,2.44-47.882,13.656-91.34,12.577
					C814.602,2616.041,825.034,2605.591,830.365,2594.651z"/>
			</g>
			<g>
				<path style="fill:#D8DEE8;" d="M1362.303,1805.394c28.247,14.335,63.73,1.161,79.251-29.425
					c15.522-30.586,5.206-67.002-23.041-81.337c-1.462-0.743-2.956-1.367-4.454-1.964c5.244-16.924,9.197-33.98,11.848-51.042
					c1.619-0.005,3.243-0.032,4.894-0.18c32.224-2.879,57.793-32.494,57.113-66.151c-0.681-33.657-27.356-58.608-59.58-55.729
					c-1.684,0.152-3.339,0.417-4.984,0.71c-3.368-16.678-7.983-32.97-13.805-48.738c1.482-0.868,2.957-1.764,4.398-2.774
					c27.565-19.32,36.373-57.444,19.672-85.152c-16.701-27.708-52.589-34.506-80.154-15.187c-1.413,0.99-2.741,2.059-4.055,3.145
					c-10.891-12.036-22.836-23.19-35.76-33.368c0.908-1.49,1.797-2.999,2.602-4.583c15.522-30.586,35.807-63.997,7.339-77.888
					c-65.856-32.135-94.108-4.611-109.631,25.975c-0.804,1.585-1.497,3.194-2.164,4.805c-15.846-4.421-31.899-7.477-48.044-9.162
					c0.101-1.7,0.178-3.404,0.145-5.129c-0.682-33.655,9.302-51.87-23.045-52.493c-70.536-1.359-94.329,29.262-93.649,62.916
					c0.036,1.76,0.183,3.479,0.357,5.188c-16.163,4.61-32.037,10.504-47.487,17.632c-0.735-1.501-1.497-2.993-2.37-4.443
					c-16.702-27.707-52.588-34.506-80.155-15.184c-27.567,19.321-36.374,57.444-19.672,85.151c0.854,1.42,1.793,2.747,2.744,4.056
					c-12.207,12.213-23.638,25.474-34.201,39.698c-1.366-0.857-2.753-1.694-4.216-2.437c-28.247-14.335-63.729-1.161-79.251,29.425
					c-15.523,30.586-5.207,67.002,23.041,81.337c1.464,0.743,2.958,1.367,4.456,1.964c-5.244,16.924-9.198,33.98-11.848,51.042
					c-1.62,0.005-3.244,0.032-4.893,0.179c-32.226,2.88-57.795,32.495-57.115,66.152c0.681,33.656,27.357,58.605,59.581,55.727
					c1.683-0.15,3.338-0.415,4.982-0.709c3.369,16.678,7.984,32.97,13.805,48.738c-1.482,0.867-2.957,1.764-4.397,2.774
					c-27.566,19.32-36.373,57.444-19.672,85.152c16.702,27.708,71.981,40.572,99.547,21.252c1.413-0.99-16.651-8.124-15.338-9.209
					c10.892,12.036,22.837,23.189,35.76,33.369c-0.907,1.49-1.797,2.998-2.6,4.583c-15.523,30.586-5.207,67.002,23.04,81.337
					c28.247,14.335,63.73,1.162,79.252-29.424c0.804-1.584,1.497-3.193,2.163-4.805c15.846,4.421,31.9,7.477,48.045,9.162
					c-0.1,1.7-0.178,3.404-0.144,5.129c0.681,33.655,27.356,58.605,59.58,55.727c32.224-2.879,57.795-32.496,57.113-66.151
					c-0.036-1.759-0.183-3.478-0.358-5.187c16.164-4.61,32.039-10.504,47.489-17.632c0.734,1.501,1.497,2.993,2.37,4.44
					c16.702,27.707,52.588,34.508,80.154,15.186c27.567-19.322,36.374-57.444,19.672-85.153c-0.856-1.418-1.793-2.746-2.745-4.055
					c12.206-12.213,23.638-25.473,34.201-39.698C1359.454,1803.815,1360.839,1804.652,1362.303,1805.394z M1010.206,1809.927
					c-102.559-52.049-140.014-184.267-83.656-295.318c56.357-111.052,185.185-158.882,287.744-106.834
					c102.56,52.048,140.014,184.266,83.657,295.317C1241.594,1814.143,1112.766,1861.975,1010.206,1809.927z"/>
				<path style="fill:#D8DEE8;" d="M1430.801,1641.447c32.224-2.879,57.793-32.496,57.113-66.152
					c-0.681-33.656-27.356-58.607-59.58-55.728c-1.684,0.15-3.339,0.417-4.984,0.709c-3.367-16.679-7.983-32.969-13.805-48.738
					c1.482-0.866,2.957-1.764,4.398-2.774c27.565-19.32,61.665-65.997,42.21-91.844c-36.926-49.057-75.127-27.813-102.693-8.493
					c-1.413,0.99-2.741,2.059-4.054,3.144c-10.892-12.036-22.837-23.188-35.761-33.368c0.908-1.49,1.797-2.998,2.602-4.582
					c8.448-16.646,9.191-34.998,3.606-50.598c-26.621,46.873-52.882,93.944-78.673,141.27
					c81.822,59.934,107.89,178.07,56.77,278.801c-43.318,85.359-129.45,133.3-213.561,127.31c-3.75,9.73-7.432,19.515-11.449,29.152
					c-10.898,26.153-23.279,51.768-35.677,77.349c7.801,1.469,15.635,2.625,23.491,3.446c-0.1,1.701-0.178,3.405-0.144,5.129
					c0.681,33.656,21.12,62.247,79.521,59.139c32.307-1.719,37.853-35.906,37.171-69.563c-0.036-1.758-0.182-3.478-0.357-5.186
					c16.164-4.61,32.038-10.505,47.488-17.632c0.734,1.501,1.497,2.992,2.37,4.44c16.702,27.709,74.626,39.472,102.192,20.151
					c27.567-19.322,14.336-62.408-2.366-90.116c-0.856-1.419-1.793-2.746-2.745-4.056c12.206-12.213,23.639-25.473,34.201-39.697
					c1.367,0.857,2.752,1.695,4.216,2.435c28.247,14.337,63.73,1.161,79.252-29.425c15.522-30.584,5.206-67.002-23.041-81.336
					c-1.463-0.744-2.958-1.367-4.455-1.964c5.244-16.924,9.197-33.981,11.848-51.041
					C1427.525,1641.622,1429.15,1641.594,1430.801,1641.447z"/>
				<path style="fill:#FFFFFF;" d="M1392.682,1808.843c28.247,14.335,63.73,1.162,79.252-29.425
					c15.521-30.586,5.206-67.002-23.042-81.337c-1.464-0.743-2.957-1.367-4.455-1.964c5.245-16.924,9.198-33.98,11.848-51.042
					c1.62-0.005,3.244-0.032,4.895-0.18c32.224-2.878,57.794-32.494,57.113-66.151c-0.681-33.657-27.355-58.607-59.58-55.729
					c-1.684,0.151-3.338,0.417-4.984,0.71c-3.369-16.678-7.984-32.97-13.806-48.738c1.482-0.868,2.957-1.764,4.398-2.774
					c27.565-19.32,36.373-57.444,19.672-85.152c-16.702-27.708-52.588-34.507-80.154-15.187c-1.413,0.991-2.741,2.06-4.055,3.145
					c-10.892-12.035-22.836-23.189-35.76-33.368c0.908-1.49,1.797-2.999,2.602-4.583c15.522-30.586,5.206-67.002-23.041-81.337
					c-28.248-14.336-63.729-1.161-79.252,29.424c-0.804,1.585-1.497,3.194-2.164,4.806c-15.845-4.421-31.899-7.478-48.043-9.162
					c0.1-1.701,0.178-3.404,0.144-5.129c-0.682-33.655-27.356-58.605-59.581-55.727c-32.224,2.878-57.794,32.495-57.113,66.15
					c0.036,1.759,0.183,3.479,0.358,5.187c-16.163,4.611-32.037,10.505-47.488,17.633c-0.734-1.501-1.497-2.993-2.369-4.443
					c-16.701-27.707-52.589-34.506-80.155-15.185c-27.566,19.322-36.373,57.445-19.672,85.152c0.856,1.419,1.793,2.747,2.745,4.056
					c-12.207,12.213-23.639,25.472-34.202,39.698c-1.367-0.857-2.752-1.694-4.216-2.436c-28.247-14.336-63.729-1.161-79.251,29.424
					c-15.523,30.586-5.207,67.003,23.04,81.337c1.464,0.743,2.957,1.366,4.455,1.964c-5.244,16.924-9.198,33.98-11.848,51.042
					c-1.618,0.005-3.244,0.032-4.894,0.178c-32.223,2.88-57.794,32.496-57.113,66.152c0.68,33.657,27.356,58.605,59.58,55.727
					c1.683-0.15,3.338-0.415,4.983-0.708c3.369,16.678,7.984,32.97,13.805,48.738c-1.481,0.867-2.957,1.763-4.397,2.774
					c-27.566,19.32-36.373,57.445-19.672,85.151c16.702,27.708,52.588,34.507,80.154,15.188c1.413-0.991,2.742-2.06,4.055-3.145
					c10.893,12.036,22.837,23.189,35.76,33.368c-0.907,1.49-1.797,2.999-2.601,4.584c-15.522,30.586-5.206,67.001,23.041,81.337
					c28.247,14.335,63.73,1.161,79.251-29.425c0.804-1.584,1.497-3.193,2.163-4.805c15.845,4.42,31.901,7.476,48.045,9.162
					c-0.1,1.7-0.179,3.404-0.145,5.129c0.682,33.655,27.357,58.606,59.58,55.727c32.224-2.878,57.795-32.496,57.113-66.151
					c-0.035-1.759-0.182-3.479-0.357-5.187c16.164-4.61,32.037-10.504,47.488-17.632c0.735,1.5,1.498,2.993,2.371,4.44
					c16.702,27.708,52.587,34.508,80.153,15.187c27.567-19.322,36.374-57.444,19.673-85.153c-0.856-1.418-1.793-2.746-2.745-4.055
					c12.207-12.213,23.639-25.473,34.202-39.698C1389.833,1807.263,1391.219,1808.1,1392.682,1808.843z M1040.586,1813.375
					c-102.56-52.048-140.015-184.265-83.656-295.317c56.359-111.051,185.185-158.882,287.744-106.834
					c102.56,52.049,140.014,184.266,83.657,295.317C1271.973,1817.593,1143.146,1865.423,1040.586,1813.375z"/>
			</g>
		</g>
		<path style="fill:#FFFFFF;" d="M1772.228,2735.531h-217.503c-141.835,0-257.225-115.389-257.225-257.223v-64.509
			c0-113.26-56.527-219.463-151.211-284.095c-112.498-76.793-205.907-178.926-270.126-295.359
			c-66.359-120.305-101.432-256.214-101.432-393.029c0-226.115,92.466-438.687,260.368-598.558
			c167.855-159.828,391.016-247.849,628.377-247.849c237.36,0,460.522,88.021,628.377,247.849
			c167.902,159.872,260.368,372.443,260.368,598.558c0,136.816-35.073,272.724-101.432,393.029
			c-64.219,116.434-157.627,218.566-270.129,295.359c-94.68,64.63-151.207,170.833-151.207,284.095v64.509
			C2029.453,2620.141,1914.063,2735.531,1772.228,2735.531z M1663.476,601.778c-235.589,0-457.067,87.349-623.64,245.954
			c-166.523,158.562-258.234,369.367-258.234,593.584c0,135.658,34.778,270.419,100.577,389.712
			c63.702,115.495,156.37,216.813,267.982,293.002c96.562,65.913,154.209,174.237,154.209,289.769v64.509
			c0,138.045,112.31,250.353,250.355,250.353h217.503c138.045,0,250.355-112.309,250.355-250.353v-64.509
			c0-115.532,57.648-223.857,154.206-289.769c111.613-76.189,204.283-177.507,267.986-293.002
			c65.799-119.292,100.577-254.053,100.577-389.712c0-224.216-91.711-435.022-258.234-593.584
			C2120.543,689.127,1899.066,601.778,1663.476,601.778z"/>
		<circle style="fill:#FFFFFF;" cx="2067.356" cy="2242.69" r="33.81"/>
		<circle style="fill:#FFFFFF;" cx="1807.9" cy="2438.576" r="25.761"/>
		<polygon style="fill:#FFFFFF;" points="1804.641,2447.977 1800.468,2442.52 2066.042,2239.371 2067.011,2239.271 
			2453.114,2200.111 2453.804,2206.948 2068.672,2246.009 		"/>
		
			<ellipse transform="matrix(0.9239 -0.3827 0.3827 0.9239 -658.5435 1107.0378)" style="fill:#FFFFFF;" cx="2453.458" cy="2208.881" rx="25.761" ry="25.761"/>
		<g>
			
				<linearGradient id="SVGID_00000021809794742767689170000006955965821175505028_" gradientUnits="userSpaceOnUse" x1="3003.2085" y1="2001.7498" x2="3020.762" y2="2225.1555" gradientTransform="matrix(1 0 0 1 -626.2627 0)">
				<stop  offset="0.0036" style="stop-color:#26264F"/>
				<stop  offset="1" style="stop-color:#444B8C"/>
			</linearGradient>
			<path style="fill:url(#SVGID_00000021809794742767689170000006955965821175505028_);" d="M2408.697,2113.492
				c0,0-62.998,32.013-64.026,37.123c-1.029,5.11,40.514-1.713,57.472-0.976c16.96,0.737,30.911-4.867,29.376-12.898
				c-1.536-8.033-7.472-28.232-7.472-28.232L2408.697,2113.492z"/>
			
				<linearGradient id="SVGID_00000049904159858517039000000005425019138279238016_" gradientUnits="userSpaceOnUse" x1="3044.8992" y1="2126.4131" x2="3041.7166" y2="1895.6559" gradientTransform="matrix(1 0 0 1 -626.2627 0)">
				<stop  offset="0" style="stop-color:#893976"/>
				<stop  offset="1" style="stop-color:#311944"/>
			</linearGradient>
			<path style="fill:url(#SVGID_00000049904159858517039000000005425019138279238016_);" d="M2406.392,2087.513l3.832,31.713
				c0,0,9.974,3.97,16.673-0.724l2.858-34.781L2406.392,2087.513z"/>
			
				<linearGradient id="SVGID_00000144322618870636252650000000489908618012987068_" gradientUnits="userSpaceOnUse" x1="3298.8083" y1="1975.62" x2="3316.4077" y2="2199.613" gradientTransform="matrix(1 0 0 1 -626.2627 0)">
				<stop  offset="0.0036" style="stop-color:#26264F"/>
				<stop  offset="1" style="stop-color:#444B8C"/>
			</linearGradient>
			<path style="fill:url(#SVGID_00000144322618870636252650000000489908618012987068_);" d="M2703.071,2088.273l7.328,13.153
				c2.049,3.677,2.659,8.105,1.677,12.297c-2.562,10.938-7.679,32.252-9.911,37.811c-3.039,7.57-43.806,12.068-43.806,12.068
				s-3.636-5.719,4.829-12.628c8.463-6.909,13.904-7.995,16.892-18.191c2.987-10.194,4.98-39.032,4.98-39.032L2703.071,2088.273z"/>
			
				<linearGradient id="SVGID_00000017505474818714009730000006911002290504231044_" gradientUnits="userSpaceOnUse" x1="3315.9502" y1="2122.2329" x2="3312.7678" y2="1891.5049" gradientTransform="matrix(1 0 0 1 -626.2627 0)">
				<stop  offset="0" style="stop-color:#893976"/>
				<stop  offset="1" style="stop-color:#311944"/>
			</linearGradient>
			<path style="fill:url(#SVGID_00000017505474818714009730000006911002290504231044_);" d="M2672.571,2054.851
				c2.677,2.385,15.77,46.82,15.77,46.82s4.239,6.059,12.29-2.883c8.051-8.943,3.643-4.012,3.643-4.012l-1.51-43.703
				L2672.571,2054.851z"/>
			
				<linearGradient id="SVGID_00000045604228477825616260000009949586401232497034_" gradientUnits="userSpaceOnUse" x1="2369.3452" y1="1752.7628" x2="2521.8728" y2="1752.7628">
				<stop  offset="0" style="stop-color:#AB316D"/>
				<stop  offset="1" style="stop-color:#792D3D"/>
			</linearGradient>
			<path style="fill:url(#SVGID_00000045604228477825616260000009949586401232497034_);" d="M2371.731,1450.379
				c-3.324,94.599-3.459,197.377,1.41,307.175c5.48,123.641,16.496,237.915,30.377,341.505c5.161,0.185,10.583,0.214,16.248,0.037
				c3.826-0.119,7.532-0.328,11.114-0.604c7.204-21.48,15.719-49.727,23.344-83.467c8.016-35.478,12.852-67.301,16.297-97.732
				c12.131-107.147-2.085-116.494,7.76-195.901c8.719-70.325,21.119-73.072,35.676-172.919
				c15.794-108.337,4.037-124.591-1.681-130.462C2487.934,1393.017,2430.759,1410.034,2371.731,1450.379z"/>
			
				<linearGradient id="SVGID_00000083080426363192857370000010818252212226890643_" gradientUnits="userSpaceOnUse" x1="2379.8914" y1="1752.7698" x2="2521.8721" y2="1752.7698">
				<stop  offset="0" style="stop-color:#AB316D"/>
				<stop  offset="1" style="stop-color:#792D3D"/>
			</linearGradient>
			<path style="opacity:0.3;fill:url(#SVGID_00000083080426363192857370000010818252212226890643_);" d="M2512.274,1418.014
				c-23.216-23.843-76.308-9.409-132.383,26.979c64.51,77.927,71.542,128.478,63.809,161.278
				c-8.74,37.072-35.313,47.749-35.212,88.285c0.125,49.815,40.334,63.01,39.481,115.724c-0.566,34.857-18.235,34.495-22.408,77.546
				c-4.937,50.939,18.146,68.491,10.67,106.18c-3.217,16.214-12.397,37.401-38.544,59.226c1.885,15.477,3.818,30.798,5.833,45.829
				c5.158,0.182,10.581,0.214,16.246,0.034c3.826-0.117,7.532-0.326,11.113-0.602c7.204-21.48,15.719-49.726,23.344-83.465
				c8.016-35.479,12.852-67.302,16.297-97.733c12.131-107.146-2.085-116.494,7.76-195.901
				c8.719-70.325,21.119-73.073,35.676-172.919C2529.748,1440.136,2517.992,1423.883,2512.274,1418.014z"/>
			
				<linearGradient id="SVGID_00000170985751017895216240000003952507212023242133_" gradientUnits="userSpaceOnUse" x1="2411.6892" y1="1735.9524" x2="2718.7441" y2="1735.9524">
				<stop  offset="0" style="stop-color:#AB316D"/>
				<stop  offset="1" style="stop-color:#792D3D"/>
			</linearGradient>
			<path style="fill:url(#SVGID_00000170985751017895216240000003952507212023242133_);" d="M2411.689,1448.791
				c55.546,90.87,115.457,203.963,169.035,339.33c40.49,102.298,69.856,198.346,91.416,283.946c2.918,1.51,9.8,4.523,18.595,3.223
				c11.994-1.773,19.184-10.334,21.063-12.724c8.775-61.363,7.808-113.333,4.83-150.841c-1.907-24.015-5.282-64.007-18.972-113.376
				c-15.335-55.302-25.877-58.411-45.883-116.918c-20.765-60.729-15.735-75.883-35.621-151.881
				c-8.168-31.22-21.843-77.68-44.407-133.253C2518.392,1413.795,2465.04,1431.294,2411.689,1448.791z"/>
			
				<linearGradient id="SVGID_00000061473026836769313200000006715945091942927772_" gradientUnits="userSpaceOnUse" x1="3270.4636" y1="1076.2643" x2="3532.7185" y2="1316.2938" gradientTransform="matrix(0.969 0.2471 -0.2471 0.969 -333.3113 -839.6736)">
				<stop  offset="0.0036" style="stop-color:#26264F"/>
				<stop  offset="1" style="stop-color:#444B8C"/>
			</linearGradient>
			<path style="fill:url(#SVGID_00000061473026836769313200000006715945091942927772_);" d="M2344.917,1047.083
				c-44.271-48.233-68.052-50.037-75.507-85.12c-7.373-34.702,5.128-83.59,36.937-103.067c2.335-1.431,26.407-15.652,51.552-5.754
				c38.031,14.975,28.268,65.352,66.544,99.33c32.432,28.793,76.615,25.623,106.516,23.476
				c72.002-5.167,92.51-44.435,125.223-29.002c40.992,19.338,27.129,89.643,68.999,104.867
				c27.984,10.174,42.503-18.202,82.364-16.873c46.839,1.559,88.16,42.788,106.52,84.792
				c33.558,76.775-3.959,169.031-50.055,219.433c-37.868,41.407-107.068,82.499-150.492,58.792
				c-34.306-18.729-34.459-68.031-67.202-71.477c-23.28-2.448-30.308,21.726-60.037,27.51c-48.819,9.5-92.589-43.488-104.529-57.943
				c-34.03-41.198-22.391-59.029-60.702-133.996C2405.914,1132.442,2384.121,1089.794,2344.917,1047.083z"/>
			
				<linearGradient id="SVGID_00000029025439369197642170000009423453781219666366_" gradientUnits="userSpaceOnUse" x1="1903.0088" y1="876.5114" x2="1957.6296" y2="876.5114">
				<stop  offset="0" style="stop-color:#893976"/>
				<stop  offset="1" style="stop-color:#311944"/>
			</linearGradient>
			<path style="fill:url(#SVGID_00000029025439369197642170000009423453781219666366_);" d="M1957.63,898.157
				c0,0-10.365-14.503-16.941-25.279c-6.577-10.777-37.278-41.056-37.278-41.056s-2.339,4.805,4.27,12.493
				c6.609,7.688,20.517,20.864,17.319,26.438c-3.198,5.575-12.201,10.488-5.704,21.014c6.497,10.525,17.794,3.337,23.57,11.78
				c5.775,8.442,11.691,17.652,11.691,17.652L1957.63,898.157z"/>
			
				<linearGradient id="SVGID_00000021105139712053885460000008413221392351015076_" gradientUnits="userSpaceOnUse" x1="2161.2458" y1="1126.6846" x2="2404.5791" y2="1998.6294">
				<stop  offset="0" style="stop-color:#AA80F9"/>
				<stop  offset="0.9964" style="stop-color:#6165D7"/>
			</linearGradient>
			<path style="fill:url(#SVGID_00000021105139712053885460000008413221392351015076_);" d="M1961.675,888.694
				c-6.99,11.827-13.982,23.648-20.973,35.474c7.279,23.771,19.823,56.778,41.802,91.604c9.695,15.362,39.753,60.428,90.643,96.67
				c69.276,49.333,195.486,95.359,232.432,42.861c32.968-46.844-20.244-150.676-30.043-169.318
				c-19.832,10.397-52.423,24.186-94.315,27.448c-13.729,1.069-49.463,3.504-89.72-10.323
				C2016.995,977.521,1975.632,912.936,1961.675,888.694z"/>
			
				<linearGradient id="SVGID_00000032640240124192033750000015214733758496932518_" gradientUnits="userSpaceOnUse" x1="2444.9238" y1="1047.5186" x2="2688.2568" y2="1919.463">
				<stop  offset="0" style="stop-color:#AA80F9"/>
				<stop  offset="0.9964" style="stop-color:#6165D7"/>
			</linearGradient>
			<path style="fill:url(#SVGID_00000032640240124192033750000015214733758496932518_);" d="M2194.708,1047.189
				c3.486,17.518,57.973,8.123,69.218,39.921c6.034,17.063-6.777,27.901-7.314,56.88c-0.602,32.441,14.861,50.865,26.723,76.385
				c17.372,37.379,17.437,74.021,17.566,147.299c0.183,104.312-22.882,125.287-3.194,158.906
				c25.627,43.76,87.165,46.554,103.798,47.312c56.884,2.584,63.632-27.634,125.355-31.243
				c70.492-4.122,80.532,34.194,130.945,17.853c46.053-14.929,61.55-54.641,97.41-46.418c22.413,5.136,28.356,23.402,49.503,21.425
				c21.25-1.988,43.216-23.047,44.713-44.639c1.861-26.839-27.478-60.65-73.457-60.703c-18.27,7.171-48.556,15.483-82.24,6.251
				c-55.188-15.127-83.893-67.597-115.774-125.873c-22.056-40.314-62.594-114.413-63.077-211.575
				c-0.199-40.068,6.573-51.79-3.194-73.205c-31.715-69.543-154.758-59.166-165.177-58.161
				C2262.672,975.685,2190.498,1026.036,2194.708,1047.189z"/>
			<g>
				
					<linearGradient id="SVGID_00000041255867669256241630000006058625468003103632_" gradientUnits="userSpaceOnUse" x1="2303.3823" y1="1218.9561" x2="2207.8005" y2="1377.3864">
					<stop  offset="0.0036" style="stop-color:#6165D7"/>
					<stop  offset="1" style="stop-color:#AA80F9"/>
				</linearGradient>
				<path style="fill:url(#SVGID_00000041255867669256241630000006058625468003103632_);" d="M2167.22,1134.711l154.549,6.744
					c1.697,0.073,3.184,1.291,3.759,3.077l72.805,225.819c1.044,3.239-2.229,11.341-5.291,10.974l-152.8-23.241
					c-1.553-0.187-2.884-1.331-3.445-2.961l-75.746-210.778C2159.977,1141.219,2164.228,1134.581,2167.22,1134.711z"/>
				
					<linearGradient id="SVGID_00000075149201884659435950000015653836441602161325_" gradientUnits="userSpaceOnUse" x1="2368.3684" y1="1213.2567" x2="2131.5679" y2="1339.2958">
					<stop  offset="0" style="stop-color:#FF9085"/>
					<stop  offset="1" style="stop-color:#FB6FBB"/>
				</linearGradient>
				<path style="fill:url(#SVGID_00000075149201884659435950000015653836441602161325_);" d="M2164.822,1140.238l154.549,6.744
					c1.697,0.074,3.184,1.291,3.76,3.077l72.805,225.82c1.044,3.239-1.305,6.582-4.367,6.215l-153.724-18.483
					c-1.554-0.186-2.884-1.33-3.445-2.961l-73.63-214.081C2159.694,1143.443,2161.829,1140.108,2164.822,1140.238z"/>
				
					<linearGradient id="SVGID_00000021109452858126897580000012841883225190479011_" gradientUnits="userSpaceOnUse" x1="2260.718" y1="1052.8586" x2="2232.6143" y2="1144.8345">
					<stop  offset="0.0036" style="stop-color:#26264F"/>
					<stop  offset="1" style="stop-color:#444B8C"/>
				</linearGradient>
				<path style="fill:url(#SVGID_00000021109452858126897580000012841883225190479011_);" d="M2207.083,1148.649l-5.956-18.002
					c-0.538-1.625,0.538-3.352,2.088-3.352h56.256c0.97,0,1.828,0.702,2.122,1.736l5.656,19.912
					c0.465,1.635-0.655,3.294-2.189,3.241l-55.957-1.91C2208.197,1150.242,2207.398,1149.599,2207.083,1148.649z"/>
				
					<linearGradient id="SVGID_00000039819178965058146410000000903041679372271020_" gradientUnits="userSpaceOnUse" x1="2359.2122" y1="1198.0753" x2="2123.6104" y2="1323.4762">
					<stop  offset="0" style="stop-color:#FF9085"/>
					<stop  offset="1" style="stop-color:#FB6FBB"/>
				</linearGradient>
				<path style="opacity:0.3;fill:url(#SVGID_00000039819178965058146410000000903041679372271020_);" d="M2302.219,1327.428
					c-10.039-36.396,6.483-60.096-10.38-88.38c-23.851-40.004-75.092-23.073-91.022-55.352c-4.296-8.704-6.351-21.676-0.556-41.914
					l-35.439-1.543c-2.993-0.13-5.128,3.201-4.053,6.329l73.63,214.081c0.561,1.632,1.891,2.773,3.445,2.961l93.427,11.236
					C2314.631,1358.62,2306.298,1342.221,2302.219,1327.428z"/>
			</g>
			
				<linearGradient id="SVGID_00000044174693384606802170000008679491346523440308_" gradientUnits="userSpaceOnUse" x1="2328.8362" y1="1295.7086" x2="2415.0786" y2="1295.7086">
				<stop  offset="0" style="stop-color:#893976"/>
				<stop  offset="1" style="stop-color:#311944"/>
			</linearGradient>
			<path style="fill:url(#SVGID_00000044174693384606802170000008679491346523440308_);" d="M2415.079,1300.384
				c0,0-23.354-5.195-32.361-11.532c-9.008-6.342-18.559-16.526-31.838-15.971c-13.279,0.559-26.643,8.105-20.508,9.84
				c6.135,1.73,17.593,15.336,26.348,20.694c8.754,5.357,28.758,5.84,32.483,5.549c3.725-0.292,18.43,9.596,18.43,9.596
				L2415.079,1300.384z"/>
			
				<linearGradient id="SVGID_00000109000076557972922430000014851089836477523331_" gradientUnits="userSpaceOnUse" x1="2289.751" y1="1295.1046" x2="2849.5156" y2="1295.1046">
				<stop  offset="0" style="stop-color:#AA80F9"/>
				<stop  offset="0.9964" style="stop-color:#6165D7"/>
			</linearGradient>
			<path style="opacity:0.3;fill:url(#SVGID_00000109000076557972922430000014851089836477523331_);" d="M2775.975,1430.166
				c-18.27,7.171-48.556,15.483-82.24,6.251c-55.188-15.127-83.893-67.597-115.774-125.873
				c-22.056-40.314-62.594-114.413-63.077-211.575c-0.199-40.068,6.573-51.79-3.193-73.205c-1.554-3.405-3.387-6.57-5.355-9.604
				c-24.092,18.208-33.435,36.443-36.165,52.454c-6.645,38.97,24.688,70.835,8.384,104.448
				c-15.617,32.195-54.229,23.288-62.279,50.885c-8.685,29.773,34.046,47.73,35.93,93.735
				c2.261,55.211-57.115,82.249-46.708,119.179c9.02,32.006,58.71,29.7,58.685,46.868c-0.03,20.41,1.536-21.733-58.685-46.868
				c-18.251-7.616-104.147,55.781-114.587,44.655c-2.248,17.989-1.842,30.313,6.797,45.064
				c25.627,43.76,87.165,46.554,103.798,47.312c56.884,2.584,63.632-27.634,125.355-31.243
				c70.492-4.122,80.531,34.194,130.945,17.853c46.053-14.929,61.55-54.641,97.41-46.418c22.413,5.136,28.356,23.402,49.503,21.425
				c21.25-1.988,43.216-23.047,44.713-44.639C2851.293,1464.031,2821.954,1430.219,2775.975,1430.166z"/>
			
				<linearGradient id="SVGID_00000141415807043966489640000008044737358942601865_" gradientUnits="userSpaceOnUse" x1="2470.9763" y1="1040.2483" x2="2714.3098" y2="1912.194">
				<stop  offset="0" style="stop-color:#AA80F9"/>
				<stop  offset="0.9964" style="stop-color:#6165D7"/>
			</linearGradient>
			<path style="fill:url(#SVGID_00000141415807043966489640000008044737358942601865_);" d="M2414.48,1289.563
				c-7.186,14.285-14.372,28.566-21.557,42.851c11.078,6.068,129.525,68.727,215.379,6.696
				c10.616-7.668,38.827-28.053,54.033-67.969c16.76-43.995,7.359-84.9,1.26-111.468c-15.097-65.767-57.792-134.756-118.37-162.473
				c-23.139-10.588-50.611-15.944-76.451-20.981c-21.914-4.273-56.354-9.509-57.088-5.801c-0.358,1.81,7.645,4.121,13.202,7.637
				c34.134,21.587-9.204,110.741,30.912,153.497c38.429,40.957,88.304,34.194,96.342,71.312c3.737,17.257-3.998,32.781-7.444,39.696
				C2525.47,1281.147,2473.714,1298.418,2414.48,1289.563z"/>
			
				<linearGradient id="SVGID_00000124158132102719141320000010703786766131306113_" gradientUnits="userSpaceOnUse" x1="2761.9551" y1="1213.683" x2="2872.3191" y2="1053.4769" gradientTransform="matrix(0.9787 -0.2054 0.2054 0.9787 -614.8153 371.9818)">
				<stop  offset="0" style="stop-color:#893976"/>
				<stop  offset="1" style="stop-color:#311944"/>
			</linearGradient>
			<path style="fill:url(#SVGID_00000124158132102719141320000010703786766131306113_);" d="M2334.086,903.482
				c0,0,13.91,45.213,31.235,52.256c17.325,7.036,44.712,15.117,48.15,18.251c3.437,3.126-92.042,37.792-145.577,21.837l0,0
				c15.254-7.463,19.335-9.848,19.335-9.848c4.073-2.385,11.672-6.825,18.8-13.883c4.853-4.802,12.449-13.742,18.166-28.597
				l-5.004-25.669L2334.086,903.482z"/>
			
				<linearGradient id="SVGID_00000114781922467504055260000017544133917906910602_" gradientUnits="userSpaceOnUse" x1="2749.4341" y1="1135.0568" x2="2944.4888" y2="1017.6257" gradientTransform="matrix(0.9787 -0.2054 0.2054 0.9787 -614.8153 371.9818)">
				<stop  offset="0" style="stop-color:#893976"/>
				<stop  offset="1" style="stop-color:#311944"/>
			</linearGradient>
			<path style="fill:url(#SVGID_00000114781922467504055260000017544133917906910602_);" d="M2340.332,923.22
				c0,0-8.063,20.038-27.183,16.962c-17.121-2.753-16.249-50.904-4.618-59.102c3.878-2.733,11.75-3.774,17.591-1.383
				c4.108,1.68,16.336,12.877,13.611,29.28c3.773-2.244,7.53-1.893,8.833,0.125c1.655,2.557-1.027,7.198-1.633,8.249
				C2344.829,920.996,2341.765,922.596,2340.332,923.22z"/>
		</g>
		<g>
			
				<linearGradient id="SVGID_00000035526616252372576110000010965425491986407099_" gradientUnits="userSpaceOnUse" x1="2364.407" y1="2372.3508" x2="1622.5599" y2="5095.5864" gradientTransform="matrix(-1 0 0 1 4763.3062 0)">
				<stop  offset="0" style="stop-color:#444B8C"/>
				<stop  offset="0.9964" style="stop-color:#26264F"/>
			</linearGradient>
			<polygon style="fill:url(#SVGID_00000035526616252372576110000010965425491986407099_);" points="2425.406,2925.912 
				2651.692,2752.129 2613.51,2704.882 2387.625,2879.162 			"/>
			
				<linearGradient id="SVGID_00000049922316227320556560000013267116407475951746_" gradientUnits="userSpaceOnUse" x1="2324.6296" y1="2361.5154" x2="1582.7858" y2="5084.7393" gradientTransform="matrix(-1 0 0 1 4763.3062 0)">
				<stop  offset="0" style="stop-color:#444B8C"/>
				<stop  offset="0.9964" style="stop-color:#26264F"/>
			</linearGradient>
			<polygon style="fill:url(#SVGID_00000049922316227320556560000013267116407475951746_);" points="2493.331,3032.309 
				2743.08,2842.365 2673.892,2756.751 2424.944,2947.686 			"/>
			
				<linearGradient id="SVGID_00000109731470013910039180000017004312655962543516_" gradientUnits="userSpaceOnUse" x1="2245.7131" y1="2245.1526" x2="1382.6926" y2="5413.2021" gradientTransform="matrix(-1 0 0 1 4763.3062 0)">
				<stop  offset="0" style="stop-color:#444B8C"/>
				<stop  offset="0.9964" style="stop-color:#26264F"/>
			</linearGradient>
			<polygon style="fill:url(#SVGID_00000109731470013910039180000017004312655962543516_);" points="2584.012,3251.189 
				3024.844,3251.189 2929.123,3012.176 2752.019,2856.931 2503.071,3047.866 			"/>
			
				<linearGradient id="SVGID_00000149365552270024171540000001337718298798672292_" gradientUnits="userSpaceOnUse" x1="2431.6567" y1="2390.6699" x2="1689.8113" y2="5113.9004" gradientTransform="matrix(-1 0 0 1 4763.3062 0)">
				<stop  offset="0" style="stop-color:#444B8C"/>
				<stop  offset="0.9964" style="stop-color:#26264F"/>
			</linearGradient>
			<polygon style="fill:url(#SVGID_00000149365552270024171540000001337718298798672292_);" points="2063.201,2304.565 
				2051.5,2290.085 2063.022,2280.727 2385.302,2679.516 2406.16,2676.403 2413.981,2657.116 2091.266,2257.788 2102.832,2248.395 
				2114.562,2262.91 2619.133,2518.175 2622.664,2677.102 2504.132,2768.67 2475.331,2790.919 2358.416,2881.237 2205.055,2841.175 
							"/>
		</g>
	</g>
</g>
</svg>
